<svg width="500" height="500" viewBox="0 0 500 500" fill="none" xmlns="http://www.w3.org/2000/svg">
<path d="M60.3899 228C58.3885 222.624 58.0267 216.774 59.3502 211.192C60.6736 205.61 63.623 200.546 67.8251 196.641C72.0272 192.735 77.2933 190.164 82.9571 189.251C88.6209 188.339 94.428 189.128 99.6438 191.516C104.86 193.905 109.25 197.788 112.259 202.672C115.268 207.556 116.76 213.223 116.548 218.956C116.336 224.689 114.428 230.23 111.066 234.878C107.703 239.527 103.038 243.073 97.66 245.07C90.4538 247.745 82.4804 247.449 75.492 244.249C68.5035 241.048 63.0716 235.204 60.3899 228Z" fill="#EBEBEB"/>
<path d="M102.68 219.78C99.3499 229.07 89.6099 235.48 89.6099 235.48C89.6099 235.48 78.6099 231.48 73.2899 223.22C68.8099 216.32 70.1799 208.15 75.6999 205.75C83.5999 202.31 87.3799 216.34 87.3799 216.34C87.3799 216.34 87.8099 201.82 96.3099 203.34C102.23 204.4 105.45 212 102.68 219.78Z" fill="white"/>
<path d="M418.36 308.11C415.65 309.489 412.736 310.424 409.73 310.88C402.518 311.997 395.15 310.354 389.096 306.279C383.043 302.203 378.748 295.995 377.069 288.893C375.39 281.791 376.451 274.317 380.039 267.962C383.627 261.608 389.48 256.84 396.428 254.609C403.377 252.379 410.911 252.85 417.527 255.93C424.144 259.009 429.356 264.469 432.124 271.222C434.892 277.974 435.013 285.522 432.461 292.36C429.91 299.197 424.875 304.821 418.36 308.11Z" fill="#EBEBEB"/>
<path d="M414.36 279.69C414.208 281.429 413.544 283.083 412.452 284.445C411.36 285.806 409.888 286.813 408.223 287.337C406.559 287.862 404.776 287.88 403.1 287.391C401.425 286.902 399.933 285.926 398.812 284.589C397.691 283.251 396.992 281.61 396.804 279.875C396.616 278.14 396.947 276.388 397.755 274.841C398.564 273.294 399.812 272.021 401.344 271.185C402.876 270.348 404.621 269.984 406.36 270.14C408.686 270.348 410.834 271.471 412.334 273.261C413.834 275.051 414.562 277.363 414.36 279.69Z" fill="white"/>
<path d="M418.67 304.48L418.36 308.11C415.65 309.489 412.736 310.424 409.73 310.88C405.932 311.477 402.052 311.308 398.32 310.382C394.588 309.456 391.079 307.793 388 305.49L388.31 301.87C388.481 299.876 389.044 297.935 389.965 296.158C390.887 294.381 392.149 292.803 393.68 291.515C395.212 290.226 396.982 289.251 398.89 288.646C400.798 288.042 402.806 287.818 404.8 287.99C406.794 288.161 408.735 288.724 410.512 289.645C412.288 290.567 413.866 291.829 415.155 293.36C416.444 294.891 417.419 296.662 418.023 298.569C418.628 300.477 418.851 302.486 418.68 304.48H418.67Z" fill="white"/>
<path d="M404.348 107.73C420.531 100.837 428.063 82.1297 421.17 65.9462C414.277 49.7626 395.57 42.2311 379.386 49.1239C363.203 56.0167 355.671 74.7238 362.564 90.9073C369.457 107.091 388.164 114.622 404.348 107.73Z" fill="#EBEBEB"/>
<path fill-rule="evenodd" clip-rule="evenodd" d="M387.51 91.0799C386.67 90.5499 385.94 89.7799 384.81 89.8899C384.38 89.8899 384.47 89.5699 384.47 89.3399C384.47 85.0899 384.47 80.8599 384.47 76.6099C384.47 76.3099 384.47 76.0499 384.83 75.8799C388.07 74.2499 389.47 71.0299 391.46 68.2899C392.478 66.9243 393.21 65.368 393.614 63.7137C394.017 62.0593 394.084 60.3407 393.81 58.6599C393.67 57.7099 394.12 57.2799 394.98 57.0799C395.413 56.9347 395.881 56.931 396.316 57.0695C396.751 57.2079 397.131 57.4813 397.4 57.8499C398.332 59.5832 398.958 61.4641 399.25 63.4099C399.44 65.0099 398.86 66.5799 398.66 68.1699C398.51 69.3399 398.24 70.4899 398.02 71.6699C398.3 71.8699 398.63 71.7699 398.94 71.7699H409.69C411.2 71.7699 411.94 72.1999 412.15 73.1999C412.265 73.8175 412.175 74.4557 411.893 75.0171C411.611 75.5786 411.154 76.0326 410.59 76.3099C410.32 76.4399 409.83 76.3099 409.8 76.7399C409.77 77.1699 410.27 77.12 410.52 77.3C411.81 78.19 411.57 80.02 410.07 81.08C409.71 81.34 409.01 81.2199 408.99 81.7499C408.97 82.2799 409.64 82.1699 409.94 82.4599C410.94 83.4599 410.46 85.4599 408.94 86.2099C408.726 86.2778 408.515 86.3579 408.31 86.4499C408.13 86.5699 407.96 86.7099 408.31 86.9499C409.86 88.0599 409.83 89.5999 408.31 90.7299L407.84 91.0599C407.274 91.405 406.609 91.5527 405.95 91.4799C400.33 91.4799 394.71 91.4799 389.09 91.4799C388.814 91.5279 388.53 91.5171 388.258 91.4482C387.985 91.3793 387.731 91.2538 387.51 91.0799Z" fill="white"/>
<path fill-rule="evenodd" clip-rule="evenodd" d="M371.54 83.6C371.54 80.9 371.54 78.21 371.54 75.51C371.54 74.97 371.59 74.7 372.26 74.7C375.55 74.7 378.83 74.7 382.12 74.7C382.77 74.7 382.87 74.91 382.86 75.48C382.86 80.9133 382.86 86.34 382.86 91.76C382.86 92.45 382.67 92.64 381.98 92.63C378.793 92.59 375.607 92.59 372.42 92.63C371.62 92.63 371.51 92.36 371.52 91.63C371.56 89 371.54 86.3 371.54 83.6Z" fill="white"/>
<path d="M113.33 377.59C115 388.26 109 399.53 109 399.53C109 399.53 96.3599 401.41 86.8699 396.25C78.9099 392 75.9999 383.36 79.9999 378.17C85.8199 370.73 96.7799 382.27 96.7799 382.27C96.7799 382.27 89.6099 368.06 98.5899 365.09C104.86 363 112 368.69 113.33 377.59Z" fill="#EBEBEB"/>
<path d="M135.39 351.32C130.61 357.67 121.58 360.32 121.58 360.32C121.58 360.32 114.1 354.63 111.94 346.98C110.14 340.6 113.15 334.63 117.94 334.11C124.85 333.35 124.4 345.05 124.4 345.05C124.4 345.05 128.2 333.98 134.4 337.18C138.72 339.37 139.37 346 135.39 351.32Z" fill="#EBEBEB"/>
<path d="M250 472.62C337.493 472.62 408.42 463.124 408.42 451.41C408.42 439.696 337.493 430.2 250 430.2C162.507 430.2 91.5801 439.696 91.5801 451.41C91.5801 463.124 162.507 472.62 250 472.62Z" fill="#EBEBEB"/>
<path d="M46.98 433.16L97.74 432.92L148.49 432.83L250 432.66L351.51 432.83L402.26 432.92L453.01 433.16L402.26 433.4L351.51 433.49L250 433.66L148.49 433.49L97.74 433.4L46.98 433.16Z" fill="#263238"/>
<path d="M334.51 61.9199H165.51C163.243 61.9395 161.001 62.4058 158.914 63.2919C156.827 64.1781 154.935 65.4669 153.346 67.0847C151.757 68.7024 150.502 70.6174 149.654 72.7202C148.805 74.823 148.379 77.0724 148.4 79.3399V427.34C148.36 431.919 150.14 436.326 153.349 439.592C156.557 442.859 160.932 444.718 165.51 444.76H334.51C339.091 444.72 343.469 442.863 346.682 439.596C349.894 436.33 351.677 431.921 351.64 427.34V79.3399C351.66 77.0711 351.232 74.8207 350.382 72.7172C349.532 70.6137 348.275 68.6983 346.685 67.0806C345.094 65.4628 343.2 64.1744 341.111 63.2889C339.022 62.4034 336.779 61.9382 334.51 61.9199ZM340.94 416.59C340.94 425.75 334.08 433.16 325.63 433.16H174.39C165.9 433.16 159.05 425.75 159.05 416.59V92.5299C159.05 73.8699 165.9 72.9599 174.39 72.9599H204.68C206.44 72.9599 207.88 74.9599 207.88 77.4399V78.5099C207.88 84.3199 211.06 84.3399 214.97 84.3399H284.97C288.97 84.3399 292.06 84.3399 292.06 78.5099V77.4399C292.06 74.9599 293.48 72.9599 295.28 72.9599H325.58C334.03 72.9599 340.89 75.4399 340.89 92.5299L340.94 416.59Z" fill="#263238"/>
<path d="M259.55 77.08H240.44C240.127 77.08 239.827 76.9556 239.606 76.7344C239.385 76.5131 239.26 76.2129 239.26 75.9C239.26 75.587 239.385 75.2869 239.606 75.0656C239.827 74.8443 240.127 74.72 240.44 74.72H259.55C259.863 74.72 260.163 74.8443 260.385 75.0656C260.606 75.2869 260.73 75.587 260.73 75.9C260.73 76.2129 260.606 76.5131 260.385 76.7344C260.163 76.9556 259.863 77.08 259.55 77.08Z" fill="white"/>
<path d="M340.94 92.53V416.59C340.94 425.75 334.08 433.16 325.63 433.16H174.39C165.9 433.16 159.05 425.75 159.05 416.59V92.53C159.05 73.87 165.9 72.96 174.39 72.96H204.68C206.44 72.96 207.88 74.96 207.88 77.44V78.51C207.88 84.32 211.06 84.34 214.97 84.34H284.97C288.97 84.34 292.06 84.34 292.06 78.51V77.44C292.06 74.96 293.48 72.96 295.28 72.96H325.58C334.08 73 340.94 75.44 340.94 92.53Z" fill="white"/>
<path d="M340.94 92.53V116.71H159V92.53C159 73.87 165.9 73 174.38 73H204.68C206.44 73 207.88 75 207.88 77.48V78.55C207.88 84.36 211.06 84.38 214.96 84.38H285C288.94 84.38 292.1 84.38 292.1 78.55V77.44C292.1 74.96 293.52 72.96 295.31 72.96H325.6C334.08 73 340.94 75.44 340.94 92.53Z" fill="url(#paint0_linear_289_21)"/>
<path d="M176.28 104.91L170.91 99.8698L176.28 94.8298L177.11 95.7198L172.69 99.8698L177.11 104.02L176.28 104.91Z" fill="white"/>
<path d="M324.44 105.26H320.84V104C320.839 103.944 320.823 103.889 320.793 103.841C320.763 103.794 320.72 103.755 320.67 103.73C320.53 103.66 320.4 103.58 320.27 103.5C320.222 103.471 320.167 103.455 320.11 103.455C320.054 103.455 319.999 103.471 319.95 103.5L318.87 104.12L317.07 101.01L318.16 100.38C318.208 100.352 318.247 100.31 318.271 100.26C318.296 100.211 318.306 100.155 318.3 100.1C318.295 100.023 318.295 99.9466 318.3 99.87C318.295 99.7934 318.295 99.7166 318.3 99.64C318.306 99.5848 318.296 99.5291 318.271 99.4795C318.247 99.4298 318.208 99.3884 318.16 99.36L317.07 98.73L318.87 95.62L319.95 96.24C319.999 96.2691 320.054 96.2845 320.11 96.2845C320.167 96.2845 320.222 96.2691 320.27 96.24C320.4 96.16 320.53 96.08 320.67 96.01C320.72 95.9846 320.763 95.9461 320.793 95.8985C320.823 95.851 320.839 95.7962 320.84 95.74V94.48H324.44V95.73C324.442 95.7862 324.458 95.841 324.488 95.8885C324.518 95.9361 324.56 95.9746 324.61 96L325.01 96.23C325.059 96.2591 325.114 96.2745 325.17 96.2745C325.227 96.2745 325.282 96.2591 325.33 96.23L326.41 95.61L328.2 98.72L327.12 99.35C327.072 99.3779 327.032 99.419 327.005 99.4685C326.979 99.518 326.967 99.5739 326.97 99.63C326.975 99.7066 326.975 99.7834 326.97 99.86V100.08C326.961 100.137 326.969 100.195 326.994 100.247C327.02 100.299 327.06 100.342 327.11 100.37L328.19 101L326.4 104.11L325.31 103.49C325.264 103.461 325.21 103.445 325.155 103.445C325.1 103.445 325.047 103.461 325 103.49L324.6 103.72C324.55 103.745 324.508 103.784 324.478 103.831C324.448 103.879 324.431 103.934 324.43 103.99L324.44 105.26ZM321.59 104.51H323.69V104C323.69 103.806 323.743 103.616 323.844 103.45C323.944 103.285 324.088 103.15 324.26 103.06C324.379 103.006 324.493 102.943 324.6 102.87C324.764 102.762 324.955 102.705 325.15 102.705C325.346 102.705 325.537 102.762 325.7 102.87L326.13 103.12L327.18 101.3L326.74 101.05C326.565 100.953 326.423 100.807 326.332 100.628C326.241 100.45 326.206 100.249 326.23 100.05V99.67C326.206 99.4703 326.243 99.2681 326.336 99.0897C326.429 98.9113 326.573 98.7651 326.75 98.67L327.18 98.42L326.13 96.6L325.7 96.85C325.537 96.9575 325.346 97.0148 325.15 97.0148C324.955 97.0148 324.764 96.9575 324.6 96.85C324.495 96.7792 324.384 96.7157 324.27 96.66C324.096 96.5727 323.949 96.4384 323.847 96.2724C323.744 96.1064 323.69 95.9151 323.69 95.72V95.22H321.59V95.72C321.59 95.9151 321.536 96.1064 321.434 96.2724C321.331 96.4384 321.185 96.5727 321.01 96.66C320.895 96.7135 320.785 96.7771 320.68 96.85C320.517 96.9575 320.326 97.0148 320.13 97.0148C319.935 97.0148 319.744 96.9575 319.58 96.85L319.15 96.6L318.15 98.42L318.58 98.67C318.757 98.7651 318.902 98.9113 318.995 99.0897C319.087 99.2681 319.124 99.4703 319.1 99.67C319.087 99.7963 319.087 99.9237 319.1 100.05C319.124 100.25 319.087 100.452 318.995 100.63C318.902 100.809 318.757 100.955 318.58 101.05L318.15 101.3L319.15 103.12L319.58 102.87C319.744 102.762 319.935 102.705 320.13 102.705C320.326 102.705 320.517 102.762 320.68 102.87C320.786 102.941 320.896 103.004 321.01 103.06C321.185 103.147 321.331 103.282 321.434 103.448C321.536 103.614 321.59 103.805 321.59 104V104.51ZM322.64 102.57C322.103 102.572 321.578 102.414 321.131 102.117C320.684 101.82 320.335 101.397 320.129 100.902C319.922 100.406 319.868 99.8604 319.972 99.3337C320.076 98.8071 320.334 98.3233 320.714 97.9437C321.094 97.5641 321.577 97.3058 322.104 97.2016C322.631 97.0973 323.176 97.1518 323.672 97.3582C324.168 97.5645 324.591 97.9134 324.888 98.3606C325.185 98.8078 325.342 99.3331 325.34 99.87C325.338 100.585 325.052 101.27 324.547 101.776C324.041 102.282 323.356 102.567 322.64 102.57ZM322.64 97.91C322.243 97.9 321.851 98.0088 321.516 98.2225C321.18 98.4361 320.916 98.7449 320.757 99.1093C320.598 99.4738 320.551 99.8774 320.623 100.269C320.694 100.66 320.881 101.021 321.158 101.306C321.436 101.59 321.792 101.786 322.181 101.867C322.571 101.948 322.975 101.912 323.344 101.762C323.712 101.612 324.027 101.356 324.249 101.026C324.472 100.696 324.59 100.308 324.59 99.91C324.59 99.3881 324.387 98.8868 324.022 98.5132C323.658 98.1395 323.162 97.923 322.64 97.91Z" fill="white"/>
<path d="M199.45 80.2399L199.16 80.5299C199.1 80.5299 199.05 80.6399 198.99 80.6999C198.623 80.3252 198.184 80.0285 197.7 79.8275C197.215 79.6265 196.695 79.5252 196.17 79.5299C195.645 79.5229 195.125 79.6231 194.64 79.8242C194.155 80.0254 193.716 80.3234 193.35 80.6999L193.19 80.5299L192.9 80.2399L193.27 79.9199C193.533 79.7011 193.822 79.5163 194.13 79.3699C194.487 79.1899 194.868 79.0619 195.26 78.9899C195.45 78.9899 195.64 78.9899 195.83 78.9099H196.33H196.71C197.052 78.9548 197.388 79.0386 197.71 79.1599C197.956 79.2494 198.194 79.3598 198.42 79.4899C198.658 79.6258 198.882 79.7831 199.09 79.9599L199.4 80.2399H199.45Z" fill="white"/>
<path d="M194.271 81.62C194.121 81.46 193.971 81.31 193.811 81.16C194.119 80.8495 194.486 80.6031 194.89 80.4349C195.294 80.2667 195.728 80.1802 196.166 80.1802C196.603 80.1802 197.037 80.2667 197.441 80.4349C197.845 80.6031 198.212 80.8495 198.521 81.16L198.061 81.62C197.558 81.1174 196.876 80.8351 196.166 80.8351C195.455 80.8351 194.773 81.1174 194.271 81.62Z" fill="white"/>
<path d="M197.6 82.0799L197.14 82.5399C197.011 82.4061 196.856 82.3013 196.683 82.2324C196.511 82.1634 196.326 82.1319 196.14 82.1399C195.955 82.1344 195.771 82.167 195.599 82.2358C195.427 82.3047 195.27 82.4082 195.14 82.5399L194.68 82.0799C194.867 81.8801 195.093 81.7208 195.344 81.6119C195.596 81.503 195.866 81.4468 196.14 81.4468C196.414 81.4468 196.685 81.503 196.936 81.6119C197.187 81.7208 197.413 81.8801 197.6 82.0799Z" fill="white"/>
<path d="M196.58 82.9999C196.58 83.1087 196.537 83.213 196.46 83.2899C196.383 83.3668 196.279 83.41 196.17 83.41C196.11 83.4193 196.049 83.4155 195.991 83.399C195.932 83.3824 195.878 83.3534 195.832 83.314C195.786 83.2745 195.749 83.2256 195.724 83.1705C195.699 83.1155 195.686 83.0556 195.686 82.995C195.686 82.9343 195.699 82.8744 195.724 82.8194C195.749 82.7643 195.786 82.7154 195.832 82.6759C195.878 82.6365 195.932 82.6075 195.991 82.5909C196.049 82.5744 196.11 82.5706 196.17 82.58C196.225 82.5799 196.279 82.5909 196.329 82.6121C196.38 82.6333 196.425 82.6644 196.464 82.7035C196.502 82.7427 196.532 82.7891 196.552 82.84C196.572 82.8909 196.582 82.9453 196.58 82.9999Z" fill="white"/>
<path d="M170.9 81.1199C170.9 80.8806 170.971 80.6467 171.104 80.4477C171.237 80.2487 171.426 80.0936 171.647 80.002C171.868 79.9104 172.112 79.8865 172.346 79.9332C172.581 79.9799 172.797 80.0951 172.966 80.2643C173.135 80.4335 173.25 80.6491 173.297 80.8839C173.344 81.1186 173.32 81.3619 173.228 81.583C173.137 81.8041 172.982 81.993 172.783 82.126C172.584 82.2589 172.35 82.3299 172.11 82.3299C171.789 82.3299 171.482 82.2024 171.255 81.9755C171.028 81.7486 170.9 81.4408 170.9 81.1199Z" fill="white"/>
<path d="M174.7 81.1199C174.7 80.8806 174.771 80.6467 174.904 80.4477C175.037 80.2487 175.226 80.0936 175.447 80.002C175.668 79.9104 175.912 79.8865 176.146 79.9332C176.381 79.9799 176.597 80.0951 176.766 80.2643C176.935 80.4335 177.05 80.6491 177.097 80.8839C177.144 81.1186 177.12 81.3619 177.028 81.583C176.937 81.8041 176.781 81.993 176.582 82.126C176.383 82.2589 176.15 82.3299 175.91 82.3299C175.751 82.3299 175.594 82.2986 175.447 82.2378C175.3 82.177 175.167 82.0879 175.055 81.9755C174.942 81.8632 174.853 81.7298 174.792 81.583C174.731 81.4362 174.7 81.2788 174.7 81.1199Z" fill="white"/>
<path d="M178.5 81.1199C178.5 80.8801 178.571 80.6458 178.705 80.4466C178.838 80.2474 179.028 80.0923 179.249 80.0011C179.471 79.9098 179.715 79.8864 179.95 79.9339C180.185 79.9814 180.4 80.0976 180.569 80.2679C180.738 80.4381 180.852 80.6546 180.898 80.89C180.944 81.1254 180.918 81.369 180.825 81.5899C180.732 81.8108 180.575 81.9991 180.375 82.1308C180.175 82.2626 179.94 82.3319 179.7 82.3299C179.542 82.3299 179.385 82.2985 179.239 82.2376C179.092 82.1766 178.96 82.0874 178.848 81.9749C178.736 81.8624 178.648 81.7289 178.588 81.5822C178.529 81.4354 178.499 81.2783 178.5 81.1199Z" fill="white"/>
<path d="M182.3 81.1199C182.3 80.8801 182.372 80.6458 182.505 80.4466C182.638 80.2474 182.828 80.0923 183.05 80.0011C183.271 79.9098 183.515 79.8864 183.75 79.9339C183.985 79.9814 184.201 80.0976 184.369 80.2679C184.538 80.4381 184.653 80.6546 184.698 80.89C184.744 81.1254 184.718 81.369 184.625 81.5899C184.532 81.8108 184.376 81.9991 184.175 82.1308C183.975 82.2626 183.74 82.3319 183.5 82.3299C183.342 82.3299 183.185 82.2985 183.039 82.2376C182.893 82.1766 182.76 82.0874 182.648 81.9749C182.537 81.8624 182.449 81.7289 182.389 81.5822C182.329 81.4354 182.299 81.2783 182.3 81.1199Z" fill="white"/>
<path d="M186.09 81.1199C186.09 80.8806 186.161 80.6467 186.294 80.4477C186.427 80.2487 186.616 80.0936 186.837 80.002C187.058 79.9104 187.302 79.8865 187.536 79.9332C187.771 79.9799 187.987 80.0951 188.156 80.2643C188.325 80.4335 188.44 80.6491 188.487 80.8839C188.534 81.1186 188.51 81.3619 188.418 81.583C188.327 81.8041 188.172 81.993 187.973 82.126C187.774 82.2589 187.54 82.3299 187.3 82.3299C186.979 82.3299 186.672 82.2024 186.445 81.9755C186.218 81.7486 186.09 81.4408 186.09 81.1199Z" fill="white"/>
<path d="M327.3 83.75H317.48V79.21H327.3V83.75ZM317.98 83.25H326.8V79.71H318L317.98 83.25Z" fill="white"/>
<path d="M324.63 79.98H318.3V82.98H324.63V79.98Z" fill="white"/>
<path d="M328.17 80.27H327.3V82.7H328.17V80.27Z" fill="white"/>
<path d="M186.68 413.35H185.3V419.7H182.72V416.46H178.14V419.7H175.56V413.35H174.17L180.43 406.89L186.68 413.35Z" fill="#EBEBEB"/>
<path d="M325.83 406.89H310.75V409.04H325.83V406.89Z" fill="#EBEBEB"/>
<path d="M325.83 412.22H310.75V414.37H325.83V412.22Z" fill="#EBEBEB"/>
<path d="M325.83 417.55H310.75V419.7H325.83V417.55Z" fill="#EBEBEB"/>
<path d="M186.39 148.52C185.486 149.085 184.497 149.5 183.46 149.75C180.975 150.36 178.351 150.01 176.112 148.77C173.872 147.531 172.183 145.493 171.38 143.063C170.578 140.632 170.721 137.989 171.781 135.66C172.841 133.33 174.741 131.486 177.101 130.496C179.46 129.505 182.107 129.441 184.512 130.315C186.918 131.19 188.905 132.939 190.077 135.214C191.25 137.489 191.521 140.122 190.838 142.588C190.155 145.055 188.566 147.173 186.39 148.52Z" fill="#DBDBDB"/>
<path d="M184.14 138.73C184.14 139.341 183.959 139.938 183.619 140.447C183.28 140.955 182.797 141.351 182.232 141.585C181.668 141.819 181.047 141.88 180.447 141.761C179.848 141.641 179.297 141.347 178.865 140.915C178.433 140.483 178.139 139.932 178.019 139.333C177.9 138.733 177.961 138.112 178.195 137.547C178.429 136.983 178.825 136.5 179.333 136.161C179.841 135.821 180.439 135.64 181.05 135.64C181.869 135.64 182.655 135.965 183.235 136.545C183.814 137.124 184.14 137.91 184.14 138.73Z" fill="white"/>
<path d="M186.39 147.25V148.52C185.486 149.085 184.497 149.5 183.46 149.75C182.153 150.07 180.795 150.127 179.466 149.915C178.137 149.704 176.864 149.23 175.72 148.52V147.25C175.689 146.53 175.804 145.811 176.058 145.137C176.312 144.462 176.7 143.846 177.199 143.326C177.697 142.805 178.296 142.391 178.959 142.108C179.621 141.825 180.335 141.679 181.055 141.679C181.776 141.679 182.489 141.825 183.152 142.108C183.815 142.391 184.414 142.805 184.912 143.326C185.411 143.846 185.799 144.462 186.053 145.137C186.307 145.811 186.422 146.53 186.39 147.25Z" fill="white"/>
<path d="M268.44 130.32H203.93V135.64H268.44V130.32Z" fill="#EBEBEB"/>
<path d="M260.24 139.19H203.93V142.71H260.24V139.19Z" fill="#EBEBEB"/>
<path d="M297.04 145.98H203.93V149.5H297.04V145.98Z" fill="#EBEBEB"/>
<path d="M159.04 285.8H340.91V158.44L159.04 158.44L159.04 285.8Z" fill="#EBEBEB"/>
<path d="M180.3 194.65C180.3 197.63 181.184 200.544 182.84 203.022C184.496 205.501 186.85 207.432 189.603 208.573C192.357 209.713 195.387 210.012 198.31 209.43C201.234 208.849 203.919 207.414 206.026 205.306C208.134 203.198 209.569 200.513 210.151 197.59C210.732 194.667 210.434 191.636 209.293 188.883C208.153 186.129 206.221 183.775 203.743 182.12C201.264 180.464 198.351 179.58 195.37 179.58C191.373 179.58 187.54 181.168 184.714 183.994C181.888 186.82 180.3 190.653 180.3 194.65Z" fill="#DBDBDB"/>
<path d="M239.8 258.1H340.94L290.37 189.56L239.8 258.1Z" fill="#C7C7C7"/>
<path d="M200.16 258.43H283.66L241.91 213.79L200.16 258.43Z" fill="#DBDBDB"/>
<path d="M340.92 258.37H159.05V285.81H340.92V258.37Z" fill="#DBDBDB"/>
<path d="M186.39 353C185.483 353.557 184.495 353.969 183.46 354.22C181.512 354.692 179.467 354.577 177.584 353.888C175.702 353.199 174.066 351.967 172.883 350.348C171.7 348.73 171.023 346.797 170.939 344.794C170.854 342.791 171.365 340.807 172.407 339.095C173.449 337.382 174.976 336.017 176.794 335.171C178.612 334.326 180.639 334.038 182.621 334.345C184.602 334.652 186.448 335.539 187.925 336.894C189.402 338.249 190.444 340.012 190.92 341.96C191.425 344.043 191.258 346.231 190.445 348.214C189.631 350.197 188.212 351.872 186.39 353Z" fill="#DBDBDB"/>
<path d="M184.14 343.17C184.14 343.781 183.959 344.378 183.619 344.887C183.28 345.395 182.797 345.791 182.232 346.025C181.668 346.259 181.047 346.32 180.447 346.2C179.848 346.081 179.297 345.787 178.865 345.355C178.433 344.923 178.139 344.372 178.019 343.773C177.9 343.173 177.961 342.552 178.195 341.987C178.429 341.423 178.825 340.94 179.333 340.601C179.841 340.261 180.439 340.08 181.05 340.08C181.869 340.08 182.655 340.405 183.235 340.985C183.814 341.564 184.14 342.35 184.14 343.17Z" fill="white"/>
<path d="M186.39 351.69V353C185.483 353.557 184.495 353.969 183.46 354.22C182.153 354.543 180.795 354.6 179.466 354.389C178.136 354.178 176.863 353.702 175.72 352.99V351.72C175.689 351 175.804 350.281 176.058 349.607C176.312 348.932 176.7 348.316 177.199 347.796C177.697 347.275 178.296 346.861 178.959 346.578C179.621 346.295 180.335 346.149 181.055 346.149C181.776 346.149 182.489 346.295 183.152 346.578C183.815 346.861 184.414 347.275 184.912 347.796C185.411 348.316 185.799 348.932 186.053 349.607C186.307 350.281 186.422 351 186.39 351.72V351.69Z" fill="white"/>
<path d="M286.9 334.76H203.93V340.08H286.9V334.76Z" fill="#EBEBEB"/>
<path d="M309.84 343.63H203.93V347.15H309.84V343.63Z" fill="#EBEBEB"/>
<path d="M240.01 350.42H203.93V353.94H240.01V350.42Z" fill="#EBEBEB"/>
<path d="M340.92 362.89H159.05V394H340.92V362.89Z" fill="#EBEBEB"/>
<path d="M209.55 394H181.19C182.24 391.081 184.166 388.557 186.703 386.773C189.241 384.99 192.268 384.032 195.37 384.032C198.472 384.032 201.499 384.99 204.036 386.773C206.574 388.557 208.5 391.081 209.55 394Z" fill="#DBDBDB"/>
<path d="M177.11 305.32C180.435 305.32 183.13 302.625 183.13 299.3C183.13 295.975 180.435 293.28 177.11 293.28C173.786 293.28 171.09 295.975 171.09 299.3C171.09 302.625 173.786 305.32 177.11 305.32Z" fill="#EBEBEB"/>
<path fill-rule="evenodd" clip-rule="evenodd" d="M176.29 301.7C176.13 301.6 175.99 301.45 175.78 301.47C175.57 301.49 175.72 301.42 175.72 301.37C175.72 300.57 175.72 299.77 175.72 298.97C175.715 298.942 175.719 298.913 175.731 298.888C175.744 298.863 175.765 298.842 175.79 298.83C176.4 298.52 176.67 297.91 177.05 297.39C177.241 297.131 177.378 296.837 177.454 296.524C177.529 296.212 177.542 295.887 177.49 295.57C177.49 295.39 177.55 295.31 177.71 295.27C177.793 295.243 177.882 295.243 177.964 295.27C178.047 295.297 178.119 295.349 178.17 295.42C178.346 295.747 178.464 296.102 178.52 296.47C178.513 296.773 178.476 297.074 178.41 297.37C178.41 297.59 178.33 297.81 178.29 298.03C178.34 298.03 178.4 298.03 178.46 298.03H180.46C180.75 298.03 180.89 298.11 180.93 298.3C180.952 298.417 180.935 298.539 180.881 298.646C180.827 298.753 180.738 298.839 180.63 298.89C180.58 298.89 180.49 298.89 180.48 298.97C180.47 299.05 180.57 299.04 180.62 299.08C180.86 299.24 180.82 299.59 180.53 299.79C180.47 299.84 180.33 299.79 180.33 299.92C180.33 300.05 180.45 300 180.51 300.05C180.554 300.107 180.583 300.173 180.597 300.243C180.611 300.314 180.607 300.386 180.588 300.455C180.569 300.524 180.533 300.587 180.485 300.64C180.437 300.693 180.377 300.734 180.31 300.76C180.268 300.772 180.228 300.789 180.19 300.81C180.19 300.81 180.13 300.81 180.19 300.9C180.258 300.933 180.315 300.984 180.354 301.047C180.394 301.111 180.416 301.185 180.416 301.26C180.416 301.335 180.394 301.409 180.354 301.472C180.315 301.536 180.258 301.587 180.19 301.62L180.11 301.68C180.002 301.745 179.875 301.773 179.75 301.76H176.56C176.466 301.773 176.37 301.751 176.29 301.7Z" fill="white"/>
<path fill-rule="evenodd" clip-rule="evenodd" d="M173.27 300.29V298.76C173.27 298.65 173.27 298.6 173.41 298.6H175.27C175.39 298.6 175.41 298.6 175.41 298.75V301.83C175.41 301.96 175.41 302 175.25 301.99H173.44C173.29 301.99 173.27 301.94 173.27 301.8C173.28 301.3 173.27 300.8 173.27 300.29Z" fill="white"/>
<path d="M183.91 300.73C183.633 299.578 183.703 298.37 184.112 297.258C184.52 296.146 185.249 295.179 186.206 294.481C187.163 293.782 188.305 293.383 189.489 293.332C190.673 293.282 191.845 293.583 192.858 294.198C193.87 294.813 194.678 295.714 195.18 296.787C195.681 297.861 195.854 299.059 195.675 300.23C195.497 301.401 194.976 302.494 194.178 303.369C193.379 304.245 192.34 304.864 191.19 305.15C190.422 305.341 189.623 305.378 188.841 305.259C188.058 305.139 187.307 304.867 186.63 304.456C185.953 304.045 185.364 303.504 184.898 302.865C184.431 302.225 184.095 301.5 183.91 300.73Z" fill="url(#paint1_linear_289_21)"/>
<path d="M192.83 300.06C192.098 301.3 191.035 302.311 189.76 302.98C188.481 302.313 187.414 301.302 186.68 300.06C185.93 298.53 186.41 296.87 187.6 296.51C189.32 295.99 189.76 298.98 189.76 298.98C189.76 298.98 190.2 295.98 191.91 296.51C193.11 296.87 193.59 298.53 192.83 300.06Z" fill="white"/>
<path d="M290.38 298.52H204.93V302H290.38V298.52Z" fill="#EBEBEB"/>
<path d="M159.04 319.27L181.78 319.09L204.51 319.02L249.98 318.9L295.45 319.02L318.18 319.09L340.92 319.27L318.18 319.45L295.45 319.52L249.98 319.65L204.51 319.52L181.78 319.45L159.04 319.27Z" fill="#EBEBEB"/>
<path d="M123.635 256.399L62.2783 272.759L78.6384 334.116L139.995 317.756L123.635 256.399Z" fill="#455A64"/>
<path d="M97.1599 303.27L88.9399 305.46C88.0799 302.25 87.2699 299.22 86.4199 296.02L94.4899 293.87C94.3299 293.14 94.2299 292.57 94.0899 292.01C93.4799 289.51 92.7199 287.01 92.2899 284.52C91.3599 278.96 93.6599 274.25 98.8299 272.08C102.05 270.72 105.61 270.18 109.1 269.25C109.89 272.18 110.6 274.85 111.4 277.84C110.15 278.17 108.9 278.48 107.67 278.84C106.553 279.104 105.465 279.476 104.42 279.95C103.729 280.248 103.167 280.781 102.834 281.456C102.5 282.13 102.417 282.9 102.6 283.63C103.14 286.07 103.86 288.47 104.6 291.09L113.98 288.58C114.4 291.78 114.83 294.74 115.15 297.71C115.15 298 114.56 298.54 114.15 298.71C111.9 299.38 109.63 299.95 107.15 300.6C109.31 308.73 111.44 316.72 113.61 324.84L103.61 327.5C101.48 319.44 99.3399 311.45 97.1599 303.27Z" fill="white"/>
<path d="M426.651 329.028L363.292 322.749L357.012 386.109L420.372 392.388L426.651 329.028Z" fill="url(#paint2_linear_289_21)"/>
<path d="M416.44 347C417.04 340.66 413.44 336.16 407.2 335.48C398.533 334.527 389.833 333.663 381.1 332.89C374.94 332.35 370.55 336.03 369.85 342.16C369.36 346.5 368.98 350.85 368.55 355.16C368.12 359.47 367.68 363.66 367.29 367.91C366.7 374.4 370.29 378.91 376.66 379.64C385.26 380.58 393.867 381.433 402.48 382.2C408.78 382.75 413.23 379.01 413.88 372.75C414.78 364.17 415.633 355.587 416.44 347ZM409.71 372.44C409.27 376.44 406.89 378.44 402.88 378.08C394.267 377.28 385.66 376.427 377.06 375.52C373.06 375.1 371.06 372.67 371.44 368.68C372.26 360.013 373.12 351.33 374.02 342.63C374.43 338.63 376.88 336.63 380.86 336.96C389.473 337.753 398.08 338.603 406.68 339.51C410.68 339.94 412.68 342.43 412.29 346.4C411.91 350.74 411.45 355.08 411.02 359.4C410.59 363.72 410.19 368.08 409.71 372.42V372.44Z" fill="white"/>
<path d="M393.1 345.32C390.697 345.071 388.275 345.539 386.137 346.664C384 347.789 382.243 349.521 381.088 351.643C379.933 353.765 379.432 356.181 379.647 358.586C379.863 360.992 380.785 363.281 382.299 365.163C383.812 367.046 385.849 368.439 388.152 369.166C390.455 369.894 392.923 369.924 395.243 369.252C397.563 368.58 399.633 367.237 401.191 365.391C402.749 363.546 403.727 361.28 404 358.88C404.184 357.272 404.048 355.644 403.599 354.089C403.149 352.535 402.396 351.085 401.382 349.824C400.368 348.562 399.114 347.515 397.692 346.742C396.271 345.969 394.71 345.485 393.1 345.32ZM390.93 365.59C388.832 365.32 386.918 364.256 385.581 362.617C384.243 360.978 383.585 358.889 383.74 356.78C383.846 355.712 384.161 354.676 384.667 353.73C385.173 352.784 385.861 351.947 386.69 351.267C387.52 350.587 388.476 350.077 389.503 349.766C390.529 349.455 391.607 349.349 392.675 349.455C393.743 349.561 394.779 349.876 395.725 350.382C396.671 350.888 397.508 351.576 398.188 352.406C398.868 353.235 399.378 354.191 399.689 355.218C400 356.244 400.106 357.322 400 358.39C399.734 360.54 398.635 362.499 396.938 363.846C395.242 365.192 393.084 365.819 390.93 365.59Z" fill="white"/>
<path d="M408.93 346.59C408.896 346.956 408.784 347.311 408.6 347.63C408.416 347.949 408.166 348.224 407.865 348.437C407.565 348.65 407.222 348.795 406.861 348.863C406.499 348.931 406.127 348.92 405.77 348.83C405.38 348.813 404.999 348.707 404.656 348.52C404.313 348.334 404.017 348.071 403.79 347.753C403.564 347.435 403.412 347.07 403.348 346.684C403.284 346.299 403.309 345.904 403.42 345.53C403.72 343.84 404.91 343.16 406.62 343.23C408.32 343.69 409.24 344.78 408.93 346.59Z" fill="white"/>
<path d="M418.214 190.62L373.605 174.744L357.729 219.353L402.338 235.229L418.214 190.62Z" fill="#455A64"/>
<path d="M367.07 210C370.571 211.428 374.46 211.594 378.07 210.47C374.41 207.77 373.22 205.93 373.45 203.39L376.25 204.23C373.46 201.84 372.33 198.99 373.34 195.35L375.91 197.1C374.27 192.31 374.7 189.2 377.43 187.1C378.472 189.885 380.075 192.426 382.139 194.566C384.203 196.706 386.685 198.399 389.43 199.54C389.57 199.07 389.66 198.71 389.77 198.36C390.127 196.932 390.918 195.65 392.034 194.69C393.15 193.731 394.535 193.14 396 193C397.462 192.779 398.957 193.014 400.281 193.673C401.605 194.331 402.694 195.381 403.4 196.68C403.524 196.954 403.728 197.185 403.985 197.342C404.242 197.499 404.54 197.575 404.84 197.56C406.1 197.56 407.35 197.56 408.72 197.56C407.71 198.791 406.333 199.667 404.79 200.06C404.796 200.137 404.796 200.214 404.79 200.29L408.5 200.62L408.59 200.81C407.4 201.38 406.22 202 405 202.5C404.705 202.595 404.435 202.757 404.213 202.974C403.991 203.191 403.822 203.457 403.72 203.75C401.979 208.751 398.421 212.914 393.753 215.415C389.086 217.916 383.648 218.571 378.52 217.25C374.282 216.213 370.462 213.907 367.57 210.64C367.41 210.41 367.24 210.19 367.07 210Z" fill="white"/>
<path d="M396.248 99.6444L357.21 112.661L370.227 151.698L409.264 138.682L396.248 99.6444Z" fill="url(#paint3_linear_289_21)"/>
<path d="M373.5 145C373.37 142.55 373.23 140.28 373.16 138C373.158 137.663 373.087 137.331 372.951 137.023C372.815 136.715 372.617 136.438 372.37 136.21C370.793 134.556 369.609 132.568 368.906 130.394C368.202 128.219 367.997 125.914 368.306 123.65C368.615 121.386 369.431 119.22 370.691 117.314C371.951 115.407 373.625 113.81 375.588 112.639C377.55 111.467 379.751 110.753 382.027 110.549C384.303 110.345 386.596 110.656 388.736 111.46C390.875 112.263 392.807 113.538 394.386 115.189C395.966 116.841 397.153 118.827 397.86 121C398.907 124.645 398.567 128.549 396.905 131.958C395.243 135.368 392.377 138.04 388.86 139.46C386.439 140.394 383.83 140.736 381.25 140.46C380.755 140.43 380.263 140.552 379.84 140.81C377.75 142.18 375.72 143.52 373.5 145ZM375.87 140.43C377.17 139.59 378.26 138.84 379.4 138.17C379.806 137.95 380.27 137.859 380.73 137.91C382.84 138.272 385.006 138.128 387.05 137.49C394.53 135.14 398.21 126.24 394.38 119.49C393.28 117.275 391.516 115.46 389.334 114.296C387.152 113.133 384.662 112.68 382.21 113C379.678 113.133 377.252 114.061 375.277 115.651C373.302 117.242 371.879 119.414 371.21 121.86C369.57 126.99 370.97 131.45 374.93 135.12C375.292 135.484 375.521 135.96 375.58 136.47C375.77 137.72 375.79 139 375.87 140.39V140.43Z" fill="white"/>
<path d="M375 121.83C375.54 120.18 376.95 120 378.12 121.23C378.58 121.71 378.71 121.88 379.19 122.45C379.528 122.742 379.75 123.146 379.816 123.588C379.882 124.03 379.788 124.482 379.55 124.86C379.18 125.49 379.37 125.86 379.9 126.29C381.516 127.559 383.464 128.337 385.51 128.53C385.639 128.564 385.774 128.572 385.907 128.553C386.039 128.534 386.167 128.489 386.282 128.42C386.396 128.351 386.496 128.26 386.575 128.152C386.653 128.043 386.71 127.92 386.74 127.79C387.5 125.86 387.53 125.87 389.6 126.11L390.31 126.2C390.642 126.192 390.97 126.278 391.255 126.447C391.541 126.616 391.774 126.863 391.926 127.158C392.078 127.453 392.144 127.785 392.117 128.116C392.089 128.447 391.969 128.764 391.77 129.03C391.421 129.719 390.892 130.299 390.238 130.71C389.585 131.12 388.832 131.345 388.06 131.36C384.046 131.591 380.101 130.249 377.06 127.62C376.041 126.91 375.274 125.894 374.87 124.72C374.636 123.764 374.681 122.761 375 121.83Z" fill="white"/>
<path d="M238.4 280.85C238.4 280.85 231.33 303.25 222.4 332.41C212.48 364.82 200.26 405.56 192.92 433.15H259.72C260.84 428.71 262.06 423.91 263.35 418.81L268.99 396.81C274.33 376.02 280.21 353.29 285.34 333.52C293.03 303.89 299.03 280.88 299.03 280.88L238.4 280.85Z" fill="#455A64"/>
<path d="M286.08 297.11C284.64 302.24 282.83 307.28 281.24 312.35C279.65 317.42 278.01 322.74 276.41 327.94C273.237 338.24 270.09 348.543 266.97 358.85C260.71 379.457 254.47 400.077 248.25 420.71C247 424.86 245.69 429 244.4 433.15H246.4C248.794 425.203 251.187 417.25 253.58 409.29C259.86 388.35 266.117 367.4 272.35 346.44C275.47 335.913 278.574 325.377 281.66 314.83C283.21 309.5 284.66 304.16 286.21 298.83C287 296.17 286.66 295 286.08 297.11Z" fill="#263238"/>
<path d="M245.29 280.85C249.5 313.42 257.52 374.5 263.37 418.85C277.06 365.16 299.05 280.85 299.05 280.85H245.29Z" fill="#263238"/>
<path d="M269 396.78C269.33 409.04 269.66 421.87 269.92 433.15H331.3C330.05 405.27 327.9 365.92 326.1 334.2C324.4 304.07 323 280.85 323 280.85H240.36C240.36 280.85 241.76 309.85 248.36 332.85C248.89 334.75 249.47 336.62 250.1 338.41C256.188 340.873 262.039 343.886 267.58 347.41C267.58 347.41 268.32 370.74 269 396.78Z" fill="#455A64"/>
<path d="M321.61 433.15H322.61C322.203 425.763 321.83 418.38 321.49 411C319.71 371.1 318.31 331.17 316.99 291.26C316.99 290.94 316.49 290.91 316.5 291.26C317.17 313.83 317.76 336.41 318.5 358.98C319.36 383.66 320.397 408.383 321.61 433.15Z" fill="#263238"/>
<path d="M247.16 336.68C254.278 339.654 261.123 343.241 267.62 347.4C267.666 347.434 267.698 347.483 267.711 347.539C267.724 347.595 267.716 347.653 267.69 347.704C267.663 347.755 267.619 347.794 267.566 347.815C267.513 347.837 267.454 347.838 267.4 347.82C260.5 344.46 253.45 341.23 246.74 337.51C246.648 337.445 246.582 337.349 246.555 337.239C246.527 337.13 246.54 337.014 246.591 336.913C246.642 336.813 246.728 336.734 246.832 336.691C246.937 336.648 247.053 336.644 247.16 336.68Z" fill="#263238"/>
<path d="M242.88 304.58C243.45 307.65 244.19 310.69 244.88 313.74C245.5 316.6 245.95 319.52 246.71 322.34C247.321 325.081 248.71 327.588 250.71 329.56C251.83 330.56 253.07 331.56 254.27 332.48C254.91 332.99 255.61 333.48 256.27 334.01C256.18 333.61 256.11 333.19 256.04 332.78C255.83 331.61 255.64 330.45 255.44 329.29C255.01 326.7 254.59 324.11 254.2 321.52C253.42 316.43 252.7 311.29 251.64 306.25C251.64 306.212 251.653 306.175 251.676 306.145C251.699 306.115 251.732 306.094 251.769 306.085C251.806 306.076 251.844 306.079 251.879 306.095C251.914 306.11 251.942 306.136 251.96 306.17C253.23 311.17 254.63 316.11 255.73 321.17C256.27 323.64 258.21 335.84 258.29 336.7C258.37 337.56 258.45 338.48 258.49 339.38C258.605 340.29 258.605 341.21 258.49 342.12C258.44 342.34 258.17 342.3 258.07 342.12C257.702 341.272 257.44 340.382 257.29 339.47C257.07 338.6 256.87 337.72 256.72 336.83C256.66 336.51 256.62 336.19 256.57 335.83C255.37 335.1 254.25 334.14 253.13 333.32C252.01 332.5 250.69 331.59 249.54 330.63C247.427 328.841 245.901 326.457 245.16 323.79C244.424 320.915 243.945 317.98 243.73 315.02C243.34 311.56 243.06 308.07 242.57 304.62C242.53 304.46 242.84 304.37 242.88 304.58Z" fill="#263238"/>
<path d="M253.82 200.24C249.72 232.92 242.56 287.73 230.97 292.16C228.97 292.93 220.43 294.62 214.6 288.06C204.77 277 187.77 239.68 183 227.67C180.89 222.35 215.59 204.99 218.56 210.34C222.72 217.83 227.09 229.11 227.91 228.73C229.3 228.1 231.66 214.19 240.91 194.65C252.46 170.37 255.35 188.09 253.82 200.24Z" fill="#AD6359"/>
<path d="M172.94 214.77C176.36 222.11 189.22 234.38 193.46 236.15C197.7 237.92 219.29 216.76 218.74 212.07C218.19 207.38 204.74 183.58 197.37 179.91C190 176.24 169.41 207.17 172.94 214.77Z" fill="#AD6359"/>
<path d="M217.17 207.62C217.17 207.62 216.46 197.11 218.95 188.18C221.05 180.67 225.02 169.75 221.02 168.47C212.82 165.84 202.94 193.07 202.94 193.07C202.94 193.07 200.5 205.78 208.4 209.07C209.854 209.66 211.442 209.837 212.99 209.581C214.537 209.325 215.984 208.646 217.17 207.62Z" fill="#AD6359"/>
<path d="M195.19 216.3L183.02 214.16L189.23 178.91L204.63 181.62L195.19 216.3Z" fill="url(#paint4_linear_289_21)"/>
<path d="M204.63 181.62L201.03 194.85L195.19 216.31L183.01 214.16L189.23 178.91L204.63 181.62Z" fill="url(#paint5_linear_289_21)"/>
<path opacity="0.1" d="M204.63 181.62L201.03 194.85L186.86 192.35L189.23 178.91L204.63 181.62Z" fill="black"/>
<path d="M207.697 172.539L188.532 169.159L185.966 183.715L205.13 187.094L207.697 172.539Z" fill="url(#paint6_linear_289_21)"/>
<path d="M221.49 169.46L206.34 168.32L210.49 144.76L225.11 148.88L221.49 169.46Z" fill="url(#paint7_linear_289_21)"/>
<path d="M203.65 138.75L197.53 173.52L172.02 172.11L110.17 183.24L124.89 99.74L179.2 131.36L203.65 138.75Z" fill="url(#paint8_linear_289_21)"/>
<path d="M129.659 143.65C133.744 120.48 131.02 100.633 123.574 99.3198C116.128 98.0069 106.78 115.725 102.695 138.895C98.6093 162.065 101.333 181.912 108.779 183.225C116.225 184.538 125.573 166.82 129.659 143.65Z" fill="url(#paint9_linear_289_21)"/>
<path opacity="0.2" d="M126.651 142.375C130.278 121.805 128.275 104.258 122.178 103.183C116.081 102.108 108.198 117.912 104.571 138.482C100.944 159.052 102.947 176.599 109.044 177.674C115.141 178.749 123.024 162.945 126.651 142.375Z" fill="black"/>
<path d="M124.85 142C124.36 144.74 123.85 147.39 123.18 149.93C121.783 150.706 120.195 151.07 118.599 150.981C117.004 150.891 115.466 150.352 114.164 149.425C112.863 148.498 111.85 147.221 111.244 145.743C110.638 144.264 110.463 142.644 110.74 141.07L111.43 137.13C111.703 135.56 112.415 134.1 113.483 132.917C114.551 131.735 115.931 130.878 117.465 130.446C118.998 130.015 120.623 130.025 122.151 130.477C123.679 130.929 125.048 131.803 126.1 133C125.81 135.94 125.39 139 124.85 142Z" fill="url(#paint10_linear_289_21)"/>
<path d="M210.66 177.82L181.36 175.62L189.39 130.06L217.68 138.01L210.66 177.82Z" fill="url(#paint11_linear_289_21)"/>
<path opacity="0.2" d="M210.66 177.82L181.36 175.62L189.39 130.06L217.68 138.01L210.66 177.82Z" fill="black"/>
<path opacity="0.2" d="M127.79 106.15C129.329 108.964 130.345 112.034 130.79 115.21C131.295 118.371 131.546 121.568 131.54 124.77C131.54 126.37 131.49 127.97 131.44 129.56C131.39 131.15 131.23 132.75 131.06 134.34C130.89 135.93 130.72 137.52 130.48 139.1C130.24 140.68 130.01 142.26 129.73 143.83C128.632 150.133 126.958 156.322 124.73 162.32C123.602 165.317 122.21 168.209 120.57 170.96C118.978 173.748 116.814 176.168 114.22 178.06C116.7 176.056 118.742 173.564 120.22 170.74C121.77 167.974 123.071 165.076 124.11 162.08C126.206 156.088 127.788 149.93 128.84 143.67C130.03 137.436 130.699 131.114 130.84 124.77C130.927 121.599 130.763 118.425 130.35 115.28C130.031 112.112 129.164 109.023 127.79 106.15Z" fill="black"/>
<path d="M97.3301 98.8999C99.0601 100.27 100.73 101.73 102.33 103.19C103.93 104.65 105.59 106.19 107.19 107.67C108.79 109.15 110.36 110.73 111.9 112.32L114.19 114.7C114.93 115.52 115.7 116.32 116.42 117.16C115.54 116.48 114.71 115.76 113.85 115.06L111.36 112.87C109.71 111.42 108.1 109.87 106.5 108.39C104.9 106.91 103.33 105.33 101.8 103.74C100.27 102.15 98.7801 100.57 97.3301 98.8999Z" fill="#263238"/>
<path d="M109.63 163.42C107.22 164.05 104.78 164.57 102.35 165.07C99.9202 165.57 97.4702 166.07 95.0202 166.46C92.5702 166.85 90.1202 167.29 87.6502 167.63L83.9502 168.13C82.7202 168.26 81.4802 168.42 80.2402 168.52C81.4402 168.2 82.6602 167.94 83.8702 167.64L87.5202 166.87C89.9502 166.35 92.4002 165.87 94.8502 165.48C97.3002 165.09 99.7502 164.65 102.22 164.32C104.69 163.99 107.15 163.64 109.63 163.42Z" fill="#263238"/>
<path d="M63.8301 154.75C67.4801 154.47 71.1301 154.29 74.8301 154.13C78.5301 153.97 82.1301 153.86 85.7801 153.77C89.4301 153.68 93.0901 153.63 96.7801 153.64H102.26C104.09 153.64 105.92 153.64 107.75 153.77C105.92 153.92 104.1 154.01 102.27 154.13L96.7901 154.4C93.1401 154.57 89.4901 154.66 85.7901 154.76C82.0901 154.86 78.4801 154.89 74.7901 154.88C71.1001 154.87 67.4901 154.88 63.8301 154.75Z" fill="#263238"/>
<path d="M76.9199 99.6299C80.0399 101.63 83.0999 103.73 86.1499 105.84C89.1999 107.95 92.2199 110.1 95.2299 112.26C98.2399 114.42 101.23 116.62 104.17 118.87L108.59 122.24C110.04 123.4 111.51 124.52 112.95 125.7C111.38 124.7 109.85 123.7 108.3 122.64L103.72 119.49C100.66 117.39 97.6499 115.23 94.6399 113.07C91.6299 110.91 88.6399 108.7 85.6999 106.46C82.7599 104.22 79.7999 102 76.9199 99.6299Z" fill="#263238"/>
<path d="M109.14 139.68C104.9 139.1 100.67 138.41 96.4502 137.68C92.2302 136.95 88.0202 136.18 83.8102 135.44C79.6002 134.7 75.4002 133.83 71.2102 132.96L64.9202 131.65C62.8402 131.17 60.7402 130.73 58.6602 130.22C60.7802 130.51 62.9002 130.85 65.0102 131.16L71.3502 132.16C75.5702 132.86 79.7802 133.66 83.9902 134.4C88.2002 135.14 92.4002 136.01 96.5902 136.88C100.78 137.75 105 138.69 109.14 139.68Z" fill="#263238"/>
<path d="M207.63 187.84C207.16 192.1 202.4 189.12 202.4 189.12C202.4 189.12 208.22 195.06 206.04 199.28C203.93 203.33 198.31 199.52 197.9 199.28C198.21 199.6 203.41 205.2 200.79 209.21C198.17 213.22 193.07 208.58 192.79 208.27C192.98 208.66 195.46 213.86 192.79 216.45C188.17 220.9 181.48 207.77 176.48 206.38C176.48 206.38 173.15 214.58 173 214.8C173 214.8 166.38 202.45 168.64 195.8C168.952 194.829 169.586 193.994 170.437 193.432C171.288 192.87 172.305 192.616 173.32 192.71C173.32 192.71 170.75 188.97 172.71 185.71C173.71 184.06 177.27 184.21 177.27 184.21C177.27 184.21 175.33 181.12 177.27 178.37C178.8 176.17 182.11 176.66 182.11 176.66C182.11 176.66 181.62 172.84 183.92 171.09C188.47 167.59 208.61 178.71 207.63 187.84Z" fill="#AD6359"/>
<path d="M182.58 176.68C182.569 176.675 182.56 176.668 182.554 176.658C182.547 176.648 182.544 176.637 182.544 176.625C182.544 176.613 182.547 176.602 182.554 176.592C182.56 176.582 182.569 176.575 182.58 176.57C190.1 178.57 197.73 183.15 202.65 189.25C202.81 189.45 202.55 189.8 202.33 189.61C196.405 184.37 189.752 180.015 182.58 176.68Z" fill="#263238"/>
<path d="M177.13 184.13C177.05 184.13 177.13 183.96 177.2 183.99C184.93 186.13 193.38 191.49 198.2 199.18C198.36 199.45 198.25 199.85 198.03 199.56C194.46 194.69 183.92 187.16 177.13 184.13Z" fill="#263238"/>
<path d="M192.9 208.89C187.97 201.69 181.23 196.79 173.59 192.76C173.49 192.76 173.59 192.57 173.67 192.6C177.94 193.6 182.55 196.6 185.93 199.33C189.119 201.773 191.609 205.011 193.15 208.72C193.21 208.87 193 209 192.9 208.89Z" fill="#263238"/>
<path d="M202.55 189.11C202.74 189.35 202.18 189.37 202.36 189.61C203.15 190.61 207.31 197.29 205.49 199.41C204.03 201.11 200.73 200.32 199.59 199.52L196.7 197.52L198.7 200.41C199.593 201.687 200.268 203.103 200.7 204.6C200.948 205.281 201.048 206.006 200.995 206.728C200.941 207.451 200.735 208.153 200.39 208.79C200.064 209.38 199.546 209.84 198.921 210.093C198.297 210.346 197.605 210.376 196.96 210.18C195.529 209.707 194.239 208.882 193.21 207.78L190.28 204.78L192.07 208.52C192.573 209.559 192.943 210.658 193.17 211.79C193.424 212.854 193.365 213.969 193 215C192.807 215.455 192.492 215.847 192.089 216.133C191.687 216.419 191.213 216.587 190.72 216.62C189.613 216.527 188.555 216.121 187.67 215.45C185.727 214.018 183.898 212.436 182.2 210.72C181.32 209.88 180.43 209.04 179.5 208.24C178.61 207.389 177.55 206.734 176.39 206.32C177.481 206.851 178.459 207.588 179.27 208.49C180.13 209.35 180.94 210.25 181.76 211.15C183.372 213.021 185.156 214.735 187.09 216.27C188.123 217.126 189.386 217.658 190.72 217.8C191.452 217.795 192.166 217.578 192.777 217.175C193.387 216.772 193.868 216.201 194.16 215.53C194.672 214.261 194.791 212.867 194.5 211.53C194.273 210.265 193.884 209.035 193.34 207.87L192.2 208.65C193.393 209.979 194.914 210.972 196.61 211.53C197.56 211.812 198.578 211.755 199.49 211.37C200.37 210.961 201.108 210.3 201.61 209.47C202.047 208.663 202.307 207.772 202.375 206.857C202.442 205.942 202.314 205.022 202 204.16C201.489 202.519 200.708 200.975 199.69 199.59L198.81 200.47C200.31 201.47 203.89 202.72 206.49 200.37C209.46 196.87 203.69 190.24 202.55 189.11Z" fill="#263238"/>
<path d="M202.4 189.12C203.227 189.434 204.097 189.62 204.98 189.67C205.334 189.699 205.688 189.634 206.008 189.481C206.328 189.328 206.601 189.093 206.8 188.8C207.14 188.095 207.268 187.307 207.17 186.53C207.11 185.67 207 184.77 206.85 183.84C207.445 184.591 207.871 185.46 208.1 186.39C208.255 186.893 208.309 187.421 208.259 187.944C208.209 188.467 208.057 188.976 207.81 189.44C207.49 189.927 207.025 190.302 206.48 190.51C205.962 190.686 205.405 190.718 204.87 190.6C203.911 190.382 203.045 189.863 202.4 189.12Z" fill="#263238"/>
<path d="M180.3 239.45L218.23 209C218.23 209 227.42 228 227.96 227.92C228.5 227.84 234.52 202.63 244.5 186.92C254.48 171.21 256.88 188.26 254.76 201.22C252.64 214.18 242.66 286.01 233.69 292.59C224.72 299.17 216.29 290.93 212.69 287.44C207.66 282.57 180.3 239.45 180.3 239.45Z" fill="url(#paint12_linear_289_21)"/>
<path d="M187.6 242.88C188.79 241.66 200.71 232.36 203.34 230.4L211.26 224.52C213.98 222.52 216.67 220.31 219.55 218.52C219.563 218.51 219.577 218.503 219.592 218.498C219.607 218.494 219.623 218.493 219.639 218.495C219.655 218.497 219.67 218.502 219.684 218.509C219.698 218.517 219.71 218.527 219.72 218.54C219.73 218.552 219.737 218.567 219.742 218.582C219.746 218.597 219.747 218.613 219.745 218.629C219.743 218.645 219.739 218.66 219.731 218.674C219.723 218.688 219.713 218.7 219.7 218.71C217.2 221.01 214.38 223.01 211.7 225.1C209.02 227.19 206.43 229.24 203.79 231.29C201.15 233.34 189.15 242.29 187.71 243.08C187.59 243.14 187.52 243 187.6 242.88Z" fill="#263238"/>
<path d="M228 227.87C229 230.11 230 232.41 230.84 234.71C231.68 237.01 232.52 239.36 233.27 241.71C234.02 244.06 234.7 246.44 235.27 248.85C235.867 251.252 236.324 253.686 236.64 256.14C236.27 254.95 235.97 253.76 235.64 252.59C235.31 251.42 234.94 250.23 234.57 249.05L232.37 242.05L230.17 235.05L229 231.43C228.66 230.24 228.29 229.06 228 227.87Z" fill="#263238"/>
<path d="M228.14 306.11C229.78 307.74 330.63 302.4 331.14 301.75C332.47 299.97 296.4 192.64 272.76 175.66C267.68 172.01 254.02 176.9 250.51 180.42C248.31 182.63 243.51 196.58 240.39 208.11C234.09 231.21 226.71 304.68 228.14 306.11Z" fill="white"/>
<path d="M252.56 175.89C248.56 178.89 245.5 194.2 254.64 196.27C263.78 198.34 272.26 183.91 273.51 179.27C274.76 174.63 261.21 169.47 252.56 175.89Z" fill="url(#paint13_linear_289_21)"/>
<path d="M255.3 194.17C260.97 194.9 269.58 185.45 272.61 178.17C272.82 177.67 271.61 172.8 270.35 166.8C269.62 163.16 268.9 159.09 268.5 155.32L245.5 163.53C245.5 163.53 248.65 171.18 249.3 177.75C249.35 178.269 249.35 178.791 249.3 179.31C249.3 179.38 249.3 179.47 249.3 179.57C249.11 182.58 249.82 193.47 255.3 194.17Z" fill="#AD6359"/>
<path d="M267.41 155.74C267.17 160.52 265.36 177.74 251.72 179.48C250.911 179.582 250.095 179.622 249.28 179.6C249.264 179.514 249.264 179.426 249.28 179.34C249.32 178.821 249.32 178.299 249.28 177.78C248.62 171.22 245.47 163.57 245.47 163.57L267.41 155.74Z" fill="#263238"/>
<path d="M268.89 127.14C272.24 135.28 270.12 159.9 264.68 165.87C256.78 174.52 242.68 176.61 235.07 166.87C227.67 157.42 231 125.37 237.19 119.87C246.3 111.66 263.93 115.12 268.89 127.14Z" fill="#AD6359"/>
<path d="M247.14 144.15C247.14 144.09 247.27 144.24 247.26 144.31C247.07 145.97 247.14 147.89 248.59 148.56C248.59 148.56 248.59 148.67 248.59 148.66C246.76 148.25 246.7 145.69 247.14 144.15Z" fill="#263238"/>
<path d="M248.77 142.54C251.45 142.54 251.23 147.92 248.77 147.91C246.31 147.9 246.52 142.53 248.77 142.54Z" fill="#263238"/>
<path d="M237.83 143.81C237.83 143.75 237.7 143.89 237.7 143.95C237.7 145.62 237.38 147.52 235.85 148.01V148.11C237.71 147.93 238.08 145.39 237.83 143.81Z" fill="#263238"/>
<path d="M236.42 142C233.75 141.69 233.32 147 235.79 147.34C238.26 147.68 238.65 142.28 236.42 142Z" fill="#263238"/>
<path d="M251 140.17C250.302 139.937 249.617 139.663 248.95 139.35C248.189 139.163 247.511 138.731 247.02 138.12C246.904 137.897 246.864 137.642 246.907 137.394C246.951 137.146 247.075 136.92 247.26 136.75C247.677 136.471 248.161 136.308 248.662 136.278C249.163 136.248 249.663 136.352 250.11 136.58C251.088 136.903 251.911 137.576 252.42 138.47C252.525 138.68 252.566 138.917 252.538 139.15C252.51 139.383 252.416 139.603 252.265 139.783C252.114 139.964 251.915 140.096 251.69 140.165C251.466 140.233 251.226 140.235 251 140.17Z" fill="#263238"/>
<path d="M234.46 139.22C235.2 139.13 235.88 138.92 236.61 138.76C237.394 138.705 238.137 138.388 238.72 137.86C238.873 137.662 238.955 137.42 238.955 137.17C238.955 136.92 238.873 136.678 238.72 136.48C238.356 136.132 237.904 135.889 237.414 135.774C236.923 135.66 236.411 135.679 235.93 135.83C234.915 135.983 233.992 136.507 233.34 137.3C233.204 137.491 233.126 137.717 233.116 137.952C233.105 138.186 233.163 138.418 233.281 138.621C233.399 138.824 233.573 138.988 233.782 139.094C233.991 139.2 234.227 139.244 234.46 139.22Z" fill="#263238"/>
<path d="M249.27 159.73C248.86 160.1 248.44 160.62 247.83 160.64C247.212 160.607 246.608 160.44 246.06 160.15C246.05 160.147 246.039 160.148 246.028 160.151C246.018 160.154 246.008 160.161 246.001 160.169C245.994 160.177 245.989 160.187 245.987 160.198C245.985 160.209 245.986 160.22 245.99 160.23C246.21 160.571 246.519 160.845 246.884 161.022C247.25 161.198 247.657 161.27 248.06 161.23C248.403 161.158 248.717 160.985 248.961 160.734C249.205 160.483 249.368 160.165 249.43 159.82C249.46 159.71 249.33 159.67 249.27 159.73Z" fill="#263238"/>
<path d="M247.73 154.67C247.283 155.312 246.707 155.853 246.039 156.259C245.371 156.666 244.626 156.928 243.85 157.03C243.187 157.126 242.514 157.126 241.85 157.03C241.719 157.021 241.588 157.001 241.46 156.97L241.1 156.9C241.011 156.88 240.931 156.831 240.873 156.76C240.815 156.689 240.783 156.601 240.78 156.51C240.775 156.453 240.775 156.397 240.78 156.34V156.19C240.78 154.91 241.01 152.97 241.01 152.97C240.53 153.18 238.1 154.16 238.16 153.49C238.73 147.96 239.35 141.82 241.08 136.49C241.13 136.31 241.41 136.36 241.38 136.49C241.05 141.83 239.78 147.06 239.38 152.41C240.243 152.052 241.152 151.82 242.08 151.72C242.26 151.78 241.62 155.46 241.66 156.04C241.658 156.06 241.658 156.08 241.66 156.1C243.8 156.47 245.45 155.88 247.59 154.53C247.71 154.43 247.84 154.54 247.73 154.67Z" fill="#263238"/>
<path d="M242.76 156.72C243.497 157.597 244.447 158.269 245.52 158.67C246.115 158.861 246.755 158.861 247.35 158.67C248.65 158.26 248.62 157.05 248.35 156.03C248.187 155.486 247.963 154.963 247.68 154.47C246.324 155.729 244.599 156.517 242.76 156.72Z" fill="#263238"/>
<path d="M245.52 158.67C246.115 158.861 246.755 158.861 247.35 158.67C248.65 158.26 248.62 157.05 248.35 156.03C247.649 156.084 246.987 156.374 246.472 156.854C245.958 157.334 245.622 157.974 245.52 158.67Z" fill="#F392B9"/>
<path d="M269.42 147.56C270.02 145.41 275.57 122.23 274.96 119.7C274.4 117.4 271.88 118.34 271.85 118.21C271.82 118.08 271.73 115.98 270.43 115.21C269.987 115.018 269.509 114.918 269.025 114.918C268.542 114.918 268.064 115.018 267.62 115.21C267.62 115.21 267.23 113 265.84 112.4C265.375 112.253 264.879 112.23 264.402 112.333C263.925 112.436 263.483 112.663 263.12 112.99C262.992 112.403 262.723 111.855 262.337 111.395C261.95 110.935 261.457 110.577 260.9 110.35C260.404 110.206 259.874 110.226 259.39 110.406C258.906 110.586 258.492 110.917 258.21 111.35C258.21 111.35 257.62 109.24 256.21 108.83C254.8 108.42 253.51 109.99 253.51 109.99C253.302 109.458 252.954 108.991 252.504 108.64C252.053 108.288 251.517 108.063 250.95 107.99C250.399 108.027 249.872 108.228 249.436 108.567C248.999 108.905 248.674 109.366 248.5 109.89C248.5 109.89 247.5 108.03 245.8 107.98C244.1 107.93 243.58 109.98 243.58 109.98C243.58 109.98 242.9 108.14 241.34 108.26C239.78 108.38 239.42 110.56 239.42 110.56C239.42 110.56 238.55 108.56 236.71 109.13C233.9 110.04 233.55 123.48 232.91 129.32C232.91 129.32 233.69 126.53 234.91 126.43C236.13 126.33 236.99 128.22 239.22 128.72C242.39 129.42 247.67 125.72 252.04 126.63C256.41 127.54 259.43 132 260.96 138.63C262.63 146.32 268 152.66 269.42 147.56Z" fill="#263238"/>
<path d="M248.18 152.38C246.387 152.052 244.797 151.025 243.76 149.525C242.723 148.024 242.324 146.174 242.65 144.38C242.88 143.119 243.459 141.948 244.321 141C245.182 140.052 246.293 139.364 247.526 139.016C248.759 138.667 250.065 138.672 251.296 139.028C252.527 139.385 253.633 140.08 254.489 141.034C255.344 141.987 255.915 143.162 256.137 144.424C256.358 145.686 256.221 146.985 255.741 148.173C255.261 149.362 254.457 150.391 253.421 151.145C252.385 151.9 251.158 152.348 249.88 152.44C249.313 152.489 248.742 152.469 248.18 152.38ZM243.55 144.58C243.342 145.736 243.48 146.928 243.949 148.006C244.418 149.083 245.196 149.997 246.184 150.632C247.172 151.268 248.327 151.596 249.501 151.575C250.676 151.554 251.818 151.185 252.783 150.515C253.748 149.845 254.493 148.904 254.923 147.811C255.353 146.717 255.45 145.521 255.2 144.373C254.95 143.225 254.366 142.177 253.52 141.361C252.675 140.545 251.607 139.999 250.45 139.79C249.966 139.699 249.472 139.672 248.98 139.71C247.662 139.801 246.412 140.329 245.428 141.211C244.444 142.094 243.783 143.279 243.55 144.58Z" fill="url(#paint14_linear_289_21)"/>
<path d="M233.72 151.66C230.91 151.53 228.77 148.35 228.94 144.58C228.99 142.871 229.574 141.22 230.61 139.86C231.019 139.25 231.579 138.755 232.235 138.424C232.891 138.093 233.622 137.937 234.356 137.972C235.09 138.006 235.803 138.229 236.426 138.619C237.048 139.01 237.56 139.554 237.91 140.2C238.814 141.649 239.241 143.346 239.13 145.05C238.97 148.63 236.78 151.47 234.13 151.66H233.72ZM231.32 140.43C230.408 141.64 229.897 143.105 229.86 144.62C229.71 147.89 231.46 150.62 233.76 150.75C236.06 150.88 238.07 148.28 238.22 145.01C238.315 143.498 237.941 141.992 237.15 140.7C236.856 140.193 236.445 139.764 235.951 139.449C235.456 139.134 234.894 138.942 234.31 138.89H234C233.471 138.946 232.959 139.112 232.497 139.377C232.036 139.642 231.635 140.001 231.32 140.43Z" fill="url(#paint15_linear_289_21)"/>
<path d="M242.84 145.22L243.46 144.54C242.46 143.62 240.12 142.34 238.36 144.05L239 144.7C240.57 143.17 242.75 145.13 242.84 145.22Z" fill="url(#paint16_linear_289_21)"/>
<path d="M273.26 148.39L274.1 148.01C273.92 147.62 272.29 144.2 270.27 143.78C268.25 143.36 256.05 143.96 255.52 143.99V144.9C259.05 144.73 268.52 144.37 270.03 144.67C271.54 144.97 272.83 147.45 273.26 148.39Z" fill="url(#paint17_linear_289_21)"/>
<path d="M264 146.71C264 146.71 268.9 138.46 272.6 140.15C276.3 141.84 273.03 153.51 268.97 155.38C268.466 155.656 267.912 155.827 267.34 155.883C266.768 155.939 266.19 155.878 265.642 155.704C265.095 155.53 264.588 155.247 264.153 154.871C263.717 154.496 263.363 154.036 263.11 153.52L264 146.71Z" fill="#AD6359"/>
<path d="M271.54 143.47C271.551 143.475 271.56 143.482 271.567 143.492C271.573 143.502 271.576 143.513 271.576 143.525C271.576 143.537 271.573 143.548 271.567 143.558C271.56 143.568 271.551 143.575 271.54 143.58C268.7 144.99 267.36 147.82 266.49 150.72C267.28 149.57 268.42 148.88 269.95 149.81C269.965 149.822 269.976 149.838 269.981 149.856C269.986 149.875 269.985 149.894 269.978 149.912C269.972 149.929 269.959 149.945 269.944 149.955C269.928 149.965 269.909 149.971 269.89 149.97C269.363 149.847 268.81 149.89 268.307 150.092C267.805 150.294 267.376 150.646 267.08 151.1C266.593 151.864 266.191 152.679 265.88 153.53C265.76 153.8 265.28 153.7 265.35 153.39C265.355 153.367 265.355 153.343 265.35 153.32C265.05 149.59 267.56 144.15 271.54 143.47Z" fill="#263238"/>
<path d="M287 182.68C319.63 205.12 343.18 240.3 345.45 247.68C350.94 265.68 359.13 297.38 360.39 311.62C360.86 316.89 320.28 315.91 319.6 310.3C317.49 292.72 309.93 254.48 309.74 253.83C308.39 249.2 296.87 229.17 285.03 207.38C273.19 185.59 273.24 173.23 287 182.68Z" fill="#AD6359"/>
<path d="M322.82 365.84C326.96 367.26 329.65 363.6 329.65 363.6C331.03 365.291 332.958 366.444 335.1 366.86C338.91 367.42 341.45 361.69 341.45 361.69C343.251 363.141 345.445 364.019 347.75 364.21C351.45 364.37 354.83 358.96 354.83 358.96C357.222 359.37 359.682 358.916 361.77 357.68C365.28 355.42 367.01 344.23 366.95 337.93C366.89 331.63 360.82 313.83 360.01 310.31H319.58C319.58 310.31 311.81 338.62 312.94 346.02C313.88 352.29 318.17 364.25 322.82 365.84Z" fill="#AD6359"/>
<path d="M329 363.33C326.41 356.94 325.84 350.14 324.89 343.38C324.89 343.348 324.903 343.318 324.925 343.295C324.948 343.273 324.978 343.26 325.01 343.26C325.042 343.26 325.072 343.273 325.095 343.295C325.117 343.318 325.13 343.348 325.13 343.38C325.99 350.11 328.18 356.59 329.32 363.27C329.316 363.306 329.301 363.34 329.276 363.367C329.251 363.394 329.218 363.412 329.182 363.419C329.147 363.426 329.109 363.421 329.077 363.405C329.044 363.389 329.017 363.362 329 363.33Z" fill="#263238"/>
<path d="M340.92 361.56C340.473 360.052 340.224 358.492 340.18 356.92C340.027 355.26 339.907 353.593 339.82 351.92C339.63 348.59 339.51 345.26 339.5 341.92C339.5 341.77 339.72 341.73 339.73 341.92C339.93 345.24 340.17 348.55 340.5 351.85C340.67 353.51 340.85 355.16 341.04 356.85C341.324 358.396 341.435 359.969 341.37 361.54C341.355 361.587 341.326 361.628 341.287 361.658C341.248 361.687 341.201 361.705 341.152 361.707C341.103 361.709 341.054 361.696 341.013 361.67C340.971 361.644 340.939 361.605 340.92 361.56Z" fill="#263238"/>
<path d="M354.82 358.82C354.433 357.449 354.285 356.022 354.38 354.6C354.32 353.09 354.26 351.6 354.19 350.05C354.05 347.05 353.9 343.99 353.65 340.96C353.65 340.928 353.663 340.898 353.686 340.875C353.708 340.853 353.739 340.84 353.77 340.84C353.802 340.84 353.833 340.853 353.855 340.875C353.878 340.898 353.89 340.928 353.89 340.96C354.15 344.03 354.46 347.1 354.71 350.18L355.04 354.71C355.263 356.08 355.239 357.479 354.97 358.84C354.963 358.855 354.951 358.867 354.936 358.875C354.922 358.883 354.905 358.886 354.888 358.884C354.872 358.881 354.856 358.874 354.844 358.863C354.832 358.851 354.824 358.836 354.82 358.82Z" fill="#263238"/>
<path d="M317.65 310.79L362 307.21C362 307.21 352.23 259.44 346.93 246.53C341.63 233.62 315.24 201.77 287.72 182.89C269 170.06 270.16 181 278.81 198C287.46 215 307.81 253.91 308.81 257C309.81 260.09 317.65 310.79 317.65 310.79Z" fill="url(#paint18_linear_289_21)"/>
<path d="M318.43 301.64C320.09 301.25 335.14 299.87 338.43 299.64L348.26 298.96C351.65 298.73 355.09 298.34 358.49 298.38C358.508 298.375 358.527 298.374 358.545 298.377C358.564 298.38 358.581 298.388 358.596 298.399C358.611 298.41 358.623 298.424 358.632 298.441C358.64 298.458 358.644 298.476 358.644 298.495C358.644 298.514 358.64 298.532 358.632 298.549C358.623 298.566 358.611 298.58 358.596 298.591C358.581 298.602 358.564 298.61 358.545 298.613C358.527 298.616 358.508 298.615 358.49 298.61C355.15 299.2 351.69 299.37 348.32 299.69L338.32 300.63C334.98 300.93 320.07 301.97 318.42 301.86C318.29 301.85 318.32 301.67 318.43 301.64Z" fill="#263238"/>
<defs>
<linearGradient id="paint0_linear_289_21" x1="249.97" y1="72.96" x2="249.97" y2="116.71" gradientUnits="userSpaceOnUse">
<stop stop-color="#09B35C"/>
<stop offset="1" stop-color="#30AADD"/>
</linearGradient>
<linearGradient id="paint1_linear_289_21" x1="189.744" y1="293.327" x2="189.744" y2="305.327" gradientUnits="userSpaceOnUse">
<stop stop-color="#09B35C"/>
<stop offset="1" stop-color="#30AADD"/>
</linearGradient>
<linearGradient id="paint2_linear_289_21" x1="394.971" y1="325.889" x2="388.692" y2="389.248" gradientUnits="userSpaceOnUse">
<stop stop-color="#09B35C"/>
<stop offset="1" stop-color="#30AADD"/>
</linearGradient>
<linearGradient id="paint3_linear_289_21" x1="376.729" y1="106.153" x2="389.745" y2="145.19" gradientUnits="userSpaceOnUse">
<stop stop-color="#09B35C"/>
<stop offset="1" stop-color="#30AADD"/>
</linearGradient>
<linearGradient id="paint4_linear_289_21" x1="193.825" y1="178.91" x2="193.825" y2="216.3" gradientUnits="userSpaceOnUse">
<stop stop-color="#09B35C"/>
<stop offset="1" stop-color="#30AADD"/>
</linearGradient>
<linearGradient id="paint5_linear_289_21" x1="193.82" y1="178.91" x2="193.82" y2="216.31" gradientUnits="userSpaceOnUse">
<stop stop-color="#09B35C"/>
<stop offset="1" stop-color="#30AADD"/>
</linearGradient>
<linearGradient id="paint6_linear_289_21" x1="198.114" y1="170.849" x2="195.548" y2="185.404" gradientUnits="userSpaceOnUse">
<stop stop-color="#09B35C"/>
<stop offset="1" stop-color="#30AADD"/>
</linearGradient>
<linearGradient id="paint7_linear_289_21" x1="215.725" y1="144.76" x2="215.725" y2="169.46" gradientUnits="userSpaceOnUse">
<stop stop-color="#09B35C"/>
<stop offset="1" stop-color="#30AADD"/>
</linearGradient>
<linearGradient id="paint8_linear_289_21" x1="156.91" y1="99.74" x2="156.91" y2="183.24" gradientUnits="userSpaceOnUse">
<stop stop-color="#09B35C"/>
<stop offset="1" stop-color="#30AADD"/>
</linearGradient>
<linearGradient id="paint9_linear_289_21" x1="102.695" y1="138.895" x2="129.659" y2="143.65" gradientUnits="userSpaceOnUse">
<stop stop-color="#09B35C"/>
<stop offset="1" stop-color="#30AADD"/>
</linearGradient>
<linearGradient id="paint10_linear_289_21" x1="118.356" y1="130.13" x2="118.356" y2="150.994" gradientUnits="userSpaceOnUse">
<stop stop-color="#09B35C"/>
<stop offset="1" stop-color="#30AADD"/>
</linearGradient>
<linearGradient id="paint11_linear_289_21" x1="199.52" y1="130.06" x2="199.52" y2="177.82" gradientUnits="userSpaceOnUse">
<stop stop-color="#09B35C"/>
<stop offset="1" stop-color="#30AADD"/>
</linearGradient>
<linearGradient id="paint12_linear_289_21" x1="217.885" y1="180.618" x2="217.885" y2="295.064" gradientUnits="userSpaceOnUse">
<stop stop-color="#09B35C"/>
<stop offset="1" stop-color="#30AADD"/>
</linearGradient>
<linearGradient id="paint13_linear_289_21" x1="261.129" y1="172.882" x2="261.129" y2="196.472" gradientUnits="userSpaceOnUse">
<stop stop-color="#09B35C"/>
<stop offset="1" stop-color="#30AADD"/>
</linearGradient>
<linearGradient id="paint14_linear_289_21" x1="249.389" y1="138.758" x2="249.389" y2="152.466" gradientUnits="userSpaceOnUse">
<stop stop-color="#09B35C"/>
<stop offset="1" stop-color="#30AADD"/>
</linearGradient>
<linearGradient id="paint15_linear_289_21" x1="234.039" y1="137.967" x2="234.039" y2="151.66" gradientUnits="userSpaceOnUse">
<stop stop-color="#09B35C"/>
<stop offset="1" stop-color="#30AADD"/>
</linearGradient>
<linearGradient id="paint16_linear_289_21" x1="240.91" y1="143.209" x2="240.91" y2="145.22" gradientUnits="userSpaceOnUse">
<stop stop-color="#09B35C"/>
<stop offset="1" stop-color="#30AADD"/>
</linearGradient>
<linearGradient id="paint17_linear_289_21" x1="264.81" y1="143.631" x2="264.81" y2="148.39" gradientUnits="userSpaceOnUse">
<stop stop-color="#09B35C"/>
<stop offset="1" stop-color="#30AADD"/>
</linearGradient>
<linearGradient id="paint18_linear_289_21" x1="317.396" y1="177.282" x2="317.396" y2="310.79" gradientUnits="userSpaceOnUse">
<stop stop-color="#09B35C"/>
<stop offset="1" stop-color="#30AADD"/>
</linearGradient>
</defs>
</svg>
