<svg width="698" height="101" viewBox="0 0 698 101" fill="none" xmlns="http://www.w3.org/2000/svg">
<path d="M22.9125 55.3288H55.3591L68.5837 68.5534V101L22.9125 55.3288ZM22.9125 0.123501V20.1143L0 43.1805V0.123501H22.9125ZM45.5174 0.123501H77.964L22.9125 55.3288V78.0875L0 101V45.7947L45.5174 0.123501ZM148.091 0.123501V32.5701L79.8153 101V68.5534L148.091 0.123501ZM173.003 23.1898V52.4071L147.476 77.9337H115.03L150.091 42.873V0.123501L173.003 23.1898ZM150.091 101V77.9337L173.003 55.0212V101H150.091ZM239.319 45.7947V23.036H208.717V0.123501H259.002V26.1115L239.319 45.7947ZM239.319 45.7947L261.924 68.3997V101L206.872 45.7947H239.319ZM183.96 23.036L206.872 0.123501V45.7947V77.9337L183.96 101V23.036ZM271.209 77.9337V2.73767L294.275 25.6502V101L271.209 77.9337ZM354.863 23.036L377.775 0.123501V101L354.863 77.9337V23.036ZM326.722 23.036H354.863L324.569 53.3297L307.961 36.8758L271.209 0.123501H303.655L326.722 23.036ZM453.539 0.123501V32.5701L385.263 101V68.5534L453.539 0.123501ZM478.451 23.1898V52.4071L452.924 77.9337H420.478L455.538 42.873V0.123501L478.451 23.1898ZM455.538 101V77.9337L478.451 55.0212V101H455.538ZM584.97 0.123501V23.036H540.375L563.288 0.123501H584.97ZM609.728 44.8721L599.579 55.0212H567.132L586.816 35.338V0.123501L609.728 23.036V44.8721ZM544.22 101V77.9337L567.132 55.0212V78.0875H616.648L593.735 101H544.22ZM665.912 0.123501V23.036H621.318L644.23 0.123501H665.912ZM690.67 44.8721L680.521 55.0212H648.075L667.758 35.338V0.123501L690.67 23.036V44.8721ZM625.162 101V77.9337L648.075 55.0212V78.0875H697.59L674.678 101H625.162Z" fill="url(#paint0_linear_9_135)"/>
<defs>
<linearGradient id="paint0_linear_9_135" x1="353.5" y1="-17" x2="353.5" y2="129" gradientUnits="userSpaceOnUse">
<stop stop-color="#09B326"/>
<stop offset="0.971875" stop-color="#32B4ED"/>
</linearGradient>
</defs>
</svg>
