<svg width="330" height="94" viewBox="0 0 330 94" fill="none" xmlns="http://www.w3.org/2000/svg">
<path d="M129.747 55.8595H139.199L143.052 59.712V69.1641L129.747 55.8595ZM129.747 39.7775V45.601L123.073 52.3205V39.7775H129.747ZM136.332 39.7775H145.784L129.747 55.8595V62.4894L123.073 69.1641V53.0821L136.332 39.7775ZM166.213 39.7775V49.2296L146.324 69.1641V59.712L166.213 39.7775ZM173.47 46.497V55.0083L166.034 62.4446H156.582L166.796 52.2309V39.7775L173.47 46.497ZM166.796 69.1641V62.4446L173.47 55.7699V69.1641H166.796ZM192.789 53.0821V46.4522H183.875V39.7775H198.523V47.3481L192.789 53.0821ZM192.789 53.0821L199.374 59.6672V69.1641L183.337 53.0821H192.789ZM176.662 46.4522L183.337 39.7775V53.0821V62.4446L176.662 69.1641V46.4522ZM202.079 62.4446V40.539L208.799 47.2137V69.1641L202.079 62.4446ZM226.448 46.4522L233.123 39.7775V69.1641L226.448 62.4446V46.4522ZM218.251 46.4522H226.448L217.624 55.2771L212.785 50.4839L202.079 39.7775H211.531L218.251 46.4522ZM255.194 39.7775V49.2296L235.305 69.1641V59.712L255.194 39.7775ZM262.451 46.497V55.0083L255.015 62.4446H245.563L255.777 52.2309V39.7775L262.451 46.497ZM255.777 69.1641V62.4446L262.451 55.7699V69.1641H255.777ZM293.482 39.7775V46.4522H280.491L287.165 39.7775H293.482ZM300.694 52.8133L297.737 55.7699H288.285L294.019 50.0359V39.7775L300.694 46.4522V52.8133ZM281.611 69.1641V62.4446L288.285 55.7699V62.4894H302.71L296.035 69.1641H281.611ZM317.061 39.7775V46.4522H304.07L310.745 39.7775H317.061ZM324.273 52.8133L321.317 55.7699H311.865L317.599 50.0359V39.7775L324.273 46.4522V52.8133ZM305.19 69.1641V62.4446L311.865 55.7699V62.4894H326.289L319.615 69.1641H305.19Z" fill="white"/>
<path d="M97.0996 93.2637L49.7657 70.9064L49.7657 35.7334L97.0996 93.2637Z" fill="url(#paint0_linear_228_2)"/>
<path d="M110.663 0L49.7654 71.375V29.4668L110.663 0Z" fill="url(#paint1_linear_228_2)"/>
<path d="M9.52759 93.1711L42.776 77.1151L42.776 51.8555L9.52759 93.1711Z" fill="url(#paint2_linear_228_2)"/>
<path d="M3.8147e-05 26.1924L42.7761 77.4507V47.3541L3.8147e-05 26.1924Z" fill="url(#paint3_linear_228_2)"/>
<defs>
<linearGradient id="paint0_linear_228_2" x1="101.403" y1="96.2572" x2="44.0594" y2="50.42" gradientUnits="userSpaceOnUse">
<stop offset="0.619733" stop-color="#2AB2E1"/>
<stop offset="0.741124" stop-color="#1C789E"/>
</linearGradient>
<linearGradient id="paint1_linear_228_2" x1="108.699" y1="48.8306" x2="44.1527" y2="48.8306" gradientUnits="userSpaceOnUse">
<stop offset="0.715625" stop-color="#32B3EC"/>
<stop offset="0.902183" stop-color="#288EB2"/>
</linearGradient>
<linearGradient id="paint2_linear_228_2" x1="6.54806" y1="96.1646" x2="42.8436" y2="65.2947" gradientUnits="userSpaceOnUse">
<stop offset="0.690193" stop-color="#05B45B"/>
<stop offset="0.87118" stop-color="#097746"/>
</linearGradient>
<linearGradient id="paint3_linear_228_2" x1="-4.49014" y1="62.4879" x2="46.8369" y2="61.164" gradientUnits="userSpaceOnUse">
<stop offset="0.806692" stop-color="#09B25C"/>
<stop offset="0.953864" stop-color="#428E6F"/>
</linearGradient>
</defs>
</svg>
