<svg width="1440" height="267" viewBox="0 0 1440 267" fill="none" xmlns="http://www.w3.org/2000/svg">
<g filter="url(#filter0_b_136_70)">
<rect width="1440" height="267" fill="black" fill-opacity="0.3"/>
</g>
<path d="M187 49H1090" stroke="white" stroke-width="4" stroke-linecap="round"/>
<path d="M1149.51 32.651L1157.96 49.0454L1147.97 65.6264L1129.53 65.813L1121.08 49.4186L1131.07 32.8376L1149.51 32.651Z" fill="#8EFF09"/>
<path d="M1196.99 32.651L1205.44 49.0454L1195.45 65.6264L1177.01 65.813L1168.56 49.4186L1178.55 32.8376L1196.99 32.651Z" fill="white"/>
<path d="M1244.47 32.651L1252.92 49.0454L1242.93 65.6264L1224.49 65.813L1216.04 49.4186L1226.03 32.8376L1244.47 32.651Z" fill="#B57BFF"/>
<path d="M1100.98 202.2C1100.98 200.277 1101.41 198.56 1102.27 197.048C1103.15 195.517 1104.33 194.332 1105.82 193.492C1107.34 192.633 1109.03 192.204 1110.89 192.204C1113.08 192.204 1114.99 192.764 1116.63 193.884C1118.27 195.004 1119.42 196.553 1120.08 198.532H1115.57C1115.12 197.599 1114.49 196.899 1113.66 196.432C1112.86 195.965 1111.93 195.732 1110.86 195.732C1109.73 195.732 1108.71 196.003 1107.81 196.544C1106.93 197.067 1106.24 197.813 1105.74 198.784C1105.25 199.755 1105.01 200.893 1105.01 202.2C1105.01 203.488 1105.25 204.627 1105.74 205.616C1106.24 206.587 1106.93 207.343 1107.81 207.884C1108.71 208.407 1109.73 208.668 1110.86 208.668C1111.93 208.668 1112.86 208.435 1113.66 207.968C1114.49 207.483 1115.12 206.773 1115.57 205.84H1120.08C1119.42 207.837 1118.27 209.396 1116.63 210.516C1115.01 211.617 1113.09 212.168 1110.89 212.168C1109.03 212.168 1107.34 211.748 1105.82 210.908C1104.33 210.049 1103.15 208.864 1102.27 207.352C1101.41 205.84 1100.98 204.123 1100.98 202.2ZM1130.31 212.252C1128.82 212.252 1127.47 211.925 1126.28 211.272C1125.09 210.6 1124.14 209.657 1123.45 208.444C1122.78 207.231 1122.44 205.831 1122.44 204.244C1122.44 202.657 1122.79 201.257 1123.48 200.044C1124.19 198.831 1125.15 197.897 1126.36 197.244C1127.58 196.572 1128.93 196.236 1130.42 196.236C1131.92 196.236 1133.27 196.572 1134.48 197.244C1135.7 197.897 1136.65 198.831 1137.34 200.044C1138.05 201.257 1138.4 202.657 1138.4 204.244C1138.4 205.831 1138.04 207.231 1137.31 208.444C1136.6 209.657 1135.63 210.6 1134.4 211.272C1133.19 211.925 1131.82 212.252 1130.31 212.252ZM1130.31 208.836C1131.02 208.836 1131.68 208.668 1132.3 208.332C1132.93 207.977 1133.44 207.455 1133.81 206.764C1134.19 206.073 1134.37 205.233 1134.37 204.244C1134.37 202.769 1133.98 201.64 1133.2 200.856C1132.43 200.053 1131.49 199.652 1130.37 199.652C1129.25 199.652 1128.31 200.053 1127.54 200.856C1126.79 201.64 1126.42 202.769 1126.42 204.244C1126.42 205.719 1126.78 206.857 1127.51 207.66C1128.26 208.444 1129.19 208.836 1130.31 208.836ZM1149.88 196.264C1151.72 196.264 1153.22 196.852 1154.36 198.028C1155.49 199.185 1156.06 200.809 1156.06 202.9V212H1152.14V203.432C1152.14 202.2 1151.84 201.257 1151.22 200.604C1150.6 199.932 1149.76 199.596 1148.7 199.596C1147.62 199.596 1146.76 199.932 1146.12 200.604C1145.51 201.257 1145.2 202.2 1145.2 203.432V212H1141.28V196.488H1145.2V198.42C1145.72 197.748 1146.38 197.225 1147.19 196.852C1148.01 196.46 1148.9 196.264 1149.88 196.264ZM1164.36 199.708V207.212C1164.36 207.735 1164.48 208.117 1164.72 208.36C1164.98 208.584 1165.41 208.696 1166.01 208.696H1167.83V212H1165.36C1162.06 212 1160.41 210.395 1160.41 207.184V199.708H1158.56V196.488H1160.41V192.652H1164.36V196.488H1167.83V199.708H1164.36ZM1169.64 204.188C1169.64 202.62 1169.95 201.229 1170.56 200.016C1171.2 198.803 1172.05 197.869 1173.11 197.216C1174.19 196.563 1175.4 196.236 1176.72 196.236C1177.88 196.236 1178.89 196.469 1179.75 196.936C1180.62 197.403 1181.32 197.991 1181.85 198.7V196.488H1185.79V212H1181.85V209.732C1181.34 210.46 1180.64 211.067 1179.75 211.552C1178.87 212.019 1177.85 212.252 1176.69 212.252C1175.39 212.252 1174.19 211.916 1173.11 211.244C1172.05 210.572 1171.2 209.629 1170.56 208.416C1169.95 207.184 1169.64 205.775 1169.64 204.188ZM1181.85 204.244C1181.85 203.292 1181.66 202.48 1181.29 201.808C1180.91 201.117 1180.41 200.595 1179.77 200.24C1179.14 199.867 1178.46 199.68 1177.73 199.68C1177 199.68 1176.33 199.857 1175.71 200.212C1175.1 200.567 1174.59 201.089 1174.2 201.78C1173.83 202.452 1173.64 203.255 1173.64 204.188C1173.64 205.121 1173.83 205.943 1174.2 206.652C1174.59 207.343 1175.1 207.875 1175.71 208.248C1176.35 208.621 1177.02 208.808 1177.73 208.808C1178.46 208.808 1179.14 208.631 1179.77 208.276C1180.41 207.903 1180.91 207.38 1181.29 206.708C1181.66 206.017 1181.85 205.196 1181.85 204.244ZM1188.62 204.244C1188.62 202.639 1188.94 201.239 1189.6 200.044C1190.25 198.831 1191.15 197.897 1192.31 197.244C1193.47 196.572 1194.79 196.236 1196.29 196.236C1198.21 196.236 1199.8 196.721 1201.05 197.692C1202.32 198.644 1203.17 199.988 1203.6 201.724H1199.37C1199.14 201.052 1198.76 200.529 1198.22 200.156C1197.7 199.764 1197.04 199.568 1196.26 199.568C1195.14 199.568 1194.25 199.979 1193.6 200.8C1192.95 201.603 1192.62 202.751 1192.62 204.244C1192.62 205.719 1192.95 206.867 1193.6 207.688C1194.25 208.491 1195.14 208.892 1196.26 208.892C1197.85 208.892 1198.88 208.183 1199.37 206.764H1203.6C1203.17 208.444 1202.32 209.779 1201.05 210.768C1199.78 211.757 1198.19 212.252 1196.29 212.252C1194.79 212.252 1193.47 211.925 1192.31 211.272C1191.15 210.6 1190.25 209.667 1189.6 208.472C1188.94 207.259 1188.62 205.849 1188.62 204.244ZM1211.03 199.708V207.212C1211.03 207.735 1211.15 208.117 1211.4 208.36C1211.66 208.584 1212.09 208.696 1212.68 208.696H1214.5V212H1212.04C1208.74 212 1207.08 210.395 1207.08 207.184V199.708H1205.24V196.488H1207.08V192.652H1211.03V196.488H1214.5V199.708H1211.03ZM1238.64 196.488V212H1234.69V210.04C1234.19 210.712 1233.52 211.244 1232.7 211.636C1231.9 212.009 1231.02 212.196 1230.07 212.196C1228.86 212.196 1227.78 211.944 1226.85 211.44C1225.92 210.917 1225.18 210.161 1224.64 209.172C1224.12 208.164 1223.85 206.969 1223.85 205.588V196.488H1227.77V205.028C1227.77 206.26 1228.08 207.212 1228.7 207.884C1229.31 208.537 1230.15 208.864 1231.22 208.864C1232.3 208.864 1233.15 208.537 1233.77 207.884C1234.38 207.212 1234.69 206.26 1234.69 205.028V196.488H1238.64ZM1248.44 212.252C1247.17 212.252 1246.03 212.028 1245.03 211.58C1244.02 211.113 1243.22 210.488 1242.62 209.704C1242.04 208.92 1241.72 208.052 1241.67 207.1H1245.61C1245.69 207.697 1245.98 208.192 1246.48 208.584C1247 208.976 1247.65 209.172 1248.41 209.172C1249.16 209.172 1249.74 209.023 1250.15 208.724C1250.58 208.425 1250.79 208.043 1250.79 207.576C1250.79 207.072 1250.53 206.699 1250.01 206.456C1249.51 206.195 1248.69 205.915 1247.57 205.616C1246.42 205.336 1245.46 205.047 1244.72 204.748C1243.99 204.449 1243.36 203.992 1242.81 203.376C1242.29 202.76 1242.03 201.929 1242.03 200.884C1242.03 200.025 1242.27 199.241 1242.76 198.532C1243.26 197.823 1243.97 197.263 1244.89 196.852C1245.82 196.441 1246.91 196.236 1248.16 196.236C1250.01 196.236 1251.48 196.703 1252.59 197.636C1253.69 198.551 1254.29 199.792 1254.41 201.36H1250.65C1250.6 200.744 1250.34 200.259 1249.87 199.904C1249.42 199.531 1248.82 199.344 1248.05 199.344C1247.34 199.344 1246.79 199.475 1246.4 199.736C1246.02 199.997 1245.84 200.361 1245.84 200.828C1245.84 201.351 1246.1 201.752 1246.62 202.032C1247.14 202.293 1247.96 202.564 1249.06 202.844C1250.18 203.124 1251.1 203.413 1251.83 203.712C1252.56 204.011 1253.18 204.477 1253.71 205.112C1254.25 205.728 1254.53 206.549 1254.55 207.576C1254.55 208.472 1254.29 209.275 1253.79 209.984C1253.3 210.693 1252.6 211.253 1251.66 211.664C1250.75 212.056 1249.67 212.252 1248.44 212.252Z" fill="white"/>
<path d="M203.156 194.052C205.228 194.052 207.029 194.444 208.56 195.228C210.091 196.012 211.267 197.113 212.088 198.532C212.909 199.932 213.32 201.556 213.32 203.404C213.32 204.879 213.077 206.297 212.592 207.66C212.107 209.004 211.397 210.096 210.464 210.936C209.549 211.776 208.476 212.196 207.244 212.196C206.311 212.196 205.592 211.963 205.088 211.496C204.584 211.029 204.295 210.395 204.22 209.592C203.641 210.395 202.904 211.029 202.008 211.496C201.131 211.963 200.197 212.196 199.208 212.196C197.789 212.196 196.669 211.767 195.848 210.908C195.045 210.031 194.644 208.855 194.644 207.38C194.644 205.98 194.933 204.673 195.512 203.46C196.109 202.247 196.931 201.276 197.976 200.548C199.021 199.801 200.207 199.428 201.532 199.428C203.305 199.428 204.5 200.1 205.116 201.444L205.424 199.708H207.636L206.236 207.8C206.18 208.155 206.152 208.481 206.152 208.78C206.152 209.9 206.647 210.46 207.636 210.46C208.383 210.46 209.027 210.105 209.568 209.396C210.128 208.687 210.548 207.8 210.828 206.736C211.108 205.653 211.248 204.589 211.248 203.544C211.248 201.099 210.511 199.204 209.036 197.86C207.58 196.516 205.517 195.844 202.848 195.844C200.627 195.844 198.62 196.385 196.828 197.468C195.055 198.532 193.664 199.997 192.656 201.864C191.648 203.731 191.144 205.793 191.144 208.052C191.125 210.516 191.863 212.411 193.356 213.736C194.849 215.08 196.921 215.752 199.572 215.752C201.327 215.752 202.876 215.435 204.22 214.8L204.556 216.536C202.895 217.227 201.065 217.572 199.068 217.572C197.071 217.572 195.307 217.189 193.776 216.424C192.264 215.677 191.088 214.595 190.248 213.176C189.427 211.776 189.016 210.143 189.016 208.276C189.016 205.644 189.623 203.245 190.836 201.08C192.049 198.896 193.729 197.179 195.876 195.928C198.041 194.677 200.468 194.052 203.156 194.052ZM199.964 210.208C200.804 210.208 201.579 209.965 202.288 209.48C202.997 208.976 203.557 208.304 203.968 207.464C204.379 206.605 204.584 205.672 204.584 204.664C204.584 203.693 204.313 202.909 203.772 202.312C203.249 201.696 202.503 201.388 201.532 201.388C200.636 201.388 199.843 201.659 199.152 202.2C198.48 202.723 197.957 203.423 197.584 204.3C197.211 205.159 197.024 206.055 197.024 206.988C197.024 207.977 197.276 208.761 197.78 209.34C198.284 209.919 199.012 210.208 199.964 210.208ZM216.783 209.956C219.154 208.052 221.011 206.493 222.355 205.28C223.699 204.048 224.829 202.769 225.743 201.444C226.677 200.1 227.143 198.784 227.143 197.496C227.143 196.283 226.845 195.331 226.247 194.64C225.669 193.931 224.726 193.576 223.419 193.576C222.15 193.576 221.161 193.977 220.451 194.78C219.761 195.564 219.387 196.619 219.331 197.944H216.867C216.942 195.853 217.577 194.239 218.771 193.1C219.966 191.961 221.506 191.392 223.391 191.392C225.314 191.392 226.835 191.924 227.955 192.988C229.094 194.052 229.663 195.517 229.663 197.384C229.663 198.933 229.197 200.445 228.263 201.92C227.349 203.376 226.303 204.664 225.127 205.784C223.951 206.885 222.449 208.173 220.619 209.648H230.251V211.776H216.783V209.956ZM233.197 201.668C233.197 198.457 233.72 195.956 234.765 194.164C235.81 192.353 237.64 191.448 240.253 191.448C242.848 191.448 244.668 192.353 245.713 194.164C246.758 195.956 247.281 198.457 247.281 201.668C247.281 204.935 246.758 207.473 245.713 209.284C244.668 211.095 242.848 212 240.253 212C237.64 212 235.81 211.095 234.765 209.284C233.72 207.473 233.197 204.935 233.197 201.668ZM244.761 201.668C244.761 200.044 244.649 198.672 244.425 197.552C244.22 196.413 243.781 195.499 243.109 194.808C242.456 194.117 241.504 193.772 240.253 193.772C238.984 193.772 238.013 194.117 237.341 194.808C236.688 195.499 236.249 196.413 236.025 197.552C235.82 198.672 235.717 200.044 235.717 201.668C235.717 203.348 235.82 204.757 236.025 205.896C236.249 207.035 236.688 207.949 237.341 208.64C238.013 209.331 238.984 209.676 240.253 209.676C241.504 209.676 242.456 209.331 243.109 208.64C243.781 207.949 244.22 207.035 244.425 205.896C244.649 204.757 244.761 203.348 244.761 201.668ZM250.471 209.956C252.842 208.052 254.699 206.493 256.043 205.28C257.387 204.048 258.516 202.769 259.431 201.444C260.364 200.1 260.831 198.784 260.831 197.496C260.831 196.283 260.532 195.331 259.935 194.64C259.356 193.931 258.414 193.576 257.107 193.576C255.838 193.576 254.848 193.977 254.139 194.78C253.448 195.564 253.075 196.619 253.019 197.944H250.555C250.63 195.853 251.264 194.239 252.459 193.1C253.654 191.961 255.194 191.392 257.079 191.392C259.002 191.392 260.523 191.924 261.643 192.988C262.782 194.052 263.351 195.517 263.351 197.384C263.351 198.933 262.884 200.445 261.951 201.92C261.036 203.376 259.991 204.664 258.815 205.784C257.639 206.885 256.136 208.173 254.307 209.648H263.939V211.776H250.471V209.956ZM266.268 207.492V205.56L276.096 191.952H279.148V205.28H281.948V207.492H279.148V212H276.628V207.492H266.268ZM276.74 194.612L269.208 205.28H276.74V194.612ZM302.963 212L294.927 203.096V212H292.379V192.484H294.927V201.528L302.991 192.484H306.211L297.363 202.256L306.295 212H302.963ZM308.188 204.272C308.188 202.704 308.506 201.332 309.14 200.156C309.775 198.961 310.643 198.037 311.744 197.384C312.864 196.731 314.106 196.404 315.468 196.404C316.812 196.404 317.979 196.693 318.968 197.272C319.958 197.851 320.695 198.579 321.18 199.456V196.656H323.756V212H321.18V209.144C320.676 210.04 319.92 210.787 318.912 211.384C317.923 211.963 316.766 212.252 315.44 212.252C314.078 212.252 312.846 211.916 311.744 211.244C310.643 210.572 309.775 209.629 309.14 208.416C308.506 207.203 308.188 205.821 308.188 204.272ZM321.18 204.3C321.18 203.143 320.947 202.135 320.48 201.276C320.014 200.417 319.379 199.764 318.576 199.316C317.792 198.849 316.924 198.616 315.972 198.616C315.02 198.616 314.152 198.84 313.368 199.288C312.584 199.736 311.959 200.389 311.492 201.248C311.026 202.107 310.792 203.115 310.792 204.272C310.792 205.448 311.026 206.475 311.492 207.352C311.959 208.211 312.584 208.873 313.368 209.34C314.152 209.788 315.02 210.012 315.972 210.012C316.924 210.012 317.792 209.788 318.576 209.34C319.379 208.873 320.014 208.211 320.48 207.352C320.947 206.475 321.18 205.457 321.18 204.3ZM330.61 199.148C331.058 198.271 331.693 197.589 332.514 197.104C333.354 196.619 334.372 196.376 335.566 196.376V199.008H334.894C332.038 199.008 330.61 200.557 330.61 203.656V212H328.062V196.656H330.61V199.148ZM356.96 196.376C358.154 196.376 359.218 196.628 360.152 197.132C361.085 197.617 361.822 198.355 362.364 199.344C362.905 200.333 363.176 201.537 363.176 202.956V212H360.656V203.32C360.656 201.789 360.273 200.623 359.508 199.82C358.761 198.999 357.744 198.588 356.456 198.588C355.13 198.588 354.076 199.017 353.292 199.876C352.508 200.716 352.116 201.939 352.116 203.544V212H349.596V203.32C349.596 201.789 349.213 200.623 348.448 199.82C347.701 198.999 346.684 198.588 345.396 198.588C344.07 198.588 343.016 199.017 342.232 199.876C341.448 200.716 341.056 201.939 341.056 203.544V212H338.508V196.656H341.056V198.868C341.56 198.065 342.232 197.449 343.072 197.02C343.93 196.591 344.873 196.376 345.9 196.376C347.188 196.376 348.326 196.665 349.316 197.244C350.305 197.823 351.042 198.672 351.528 199.792C351.957 198.709 352.666 197.869 353.656 197.272C354.645 196.675 355.746 196.376 356.96 196.376ZM366.403 204.272C366.403 202.704 366.721 201.332 367.355 200.156C367.99 198.961 368.858 198.037 369.959 197.384C371.079 196.731 372.321 196.404 373.683 196.404C375.027 196.404 376.194 196.693 377.183 197.272C378.173 197.851 378.91 198.579 379.395 199.456V196.656H381.971V212H379.395V209.144C378.891 210.04 378.135 210.787 377.127 211.384C376.138 211.963 374.981 212.252 373.655 212.252C372.293 212.252 371.061 211.916 369.959 211.244C368.858 210.572 367.99 209.629 367.355 208.416C366.721 207.203 366.403 205.821 366.403 204.272ZM379.395 204.3C379.395 203.143 379.162 202.135 378.695 201.276C378.229 200.417 377.594 199.764 376.791 199.316C376.007 198.849 375.139 198.616 374.187 198.616C373.235 198.616 372.367 198.84 371.583 199.288C370.799 199.736 370.174 200.389 369.707 201.248C369.241 202.107 369.007 203.115 369.007 204.272C369.007 205.448 369.241 206.475 369.707 207.352C370.174 208.211 370.799 208.873 371.583 209.34C372.367 209.788 373.235 210.012 374.187 210.012C375.139 210.012 376.007 209.788 376.791 209.34C377.594 208.873 378.229 208.211 378.695 207.352C379.162 206.475 379.395 205.457 379.395 204.3Z" fill="white"/>
<path d="M203.156 194.052C205.228 194.052 207.029 194.444 208.56 195.228C210.091 196.012 211.267 197.113 212.088 198.532C212.909 199.932 213.32 201.556 213.32 203.404C213.32 204.879 213.077 206.297 212.592 207.66C212.107 209.004 211.397 210.096 210.464 210.936C209.549 211.776 208.476 212.196 207.244 212.196C206.311 212.196 205.592 211.963 205.088 211.496C204.584 211.029 204.295 210.395 204.22 209.592C203.641 210.395 202.904 211.029 202.008 211.496C201.131 211.963 200.197 212.196 199.208 212.196C197.789 212.196 196.669 211.767 195.848 210.908C195.045 210.031 194.644 208.855 194.644 207.38C194.644 205.98 194.933 204.673 195.512 203.46C196.109 202.247 196.931 201.276 197.976 200.548C199.021 199.801 200.207 199.428 201.532 199.428C203.305 199.428 204.5 200.1 205.116 201.444L205.424 199.708H207.636L206.236 207.8C206.18 208.155 206.152 208.481 206.152 208.78C206.152 209.9 206.647 210.46 207.636 210.46C208.383 210.46 209.027 210.105 209.568 209.396C210.128 208.687 210.548 207.8 210.828 206.736C211.108 205.653 211.248 204.589 211.248 203.544C211.248 201.099 210.511 199.204 209.036 197.86C207.58 196.516 205.517 195.844 202.848 195.844C200.627 195.844 198.62 196.385 196.828 197.468C195.055 198.532 193.664 199.997 192.656 201.864C191.648 203.731 191.144 205.793 191.144 208.052C191.125 210.516 191.863 212.411 193.356 213.736C194.849 215.08 196.921 215.752 199.572 215.752C201.327 215.752 202.876 215.435 204.22 214.8L204.556 216.536C202.895 217.227 201.065 217.572 199.068 217.572C197.071 217.572 195.307 217.189 193.776 216.424C192.264 215.677 191.088 214.595 190.248 213.176C189.427 211.776 189.016 210.143 189.016 208.276C189.016 205.644 189.623 203.245 190.836 201.08C192.049 198.896 193.729 197.179 195.876 195.928C198.041 194.677 200.468 194.052 203.156 194.052ZM199.964 210.208C200.804 210.208 201.579 209.965 202.288 209.48C202.997 208.976 203.557 208.304 203.968 207.464C204.379 206.605 204.584 205.672 204.584 204.664C204.584 203.693 204.313 202.909 203.772 202.312C203.249 201.696 202.503 201.388 201.532 201.388C200.636 201.388 199.843 201.659 199.152 202.2C198.48 202.723 197.957 203.423 197.584 204.3C197.211 205.159 197.024 206.055 197.024 206.988C197.024 207.977 197.276 208.761 197.78 209.34C198.284 209.919 199.012 210.208 199.964 210.208ZM216.783 209.956C219.154 208.052 221.011 206.493 222.355 205.28C223.699 204.048 224.829 202.769 225.743 201.444C226.677 200.1 227.143 198.784 227.143 197.496C227.143 196.283 226.845 195.331 226.247 194.64C225.669 193.931 224.726 193.576 223.419 193.576C222.15 193.576 221.161 193.977 220.451 194.78C219.761 195.564 219.387 196.619 219.331 197.944H216.867C216.942 195.853 217.577 194.239 218.771 193.1C219.966 191.961 221.506 191.392 223.391 191.392C225.314 191.392 226.835 191.924 227.955 192.988C229.094 194.052 229.663 195.517 229.663 197.384C229.663 198.933 229.197 200.445 228.263 201.92C227.349 203.376 226.303 204.664 225.127 205.784C223.951 206.885 222.449 208.173 220.619 209.648H230.251V211.776H216.783V209.956ZM233.197 201.668C233.197 198.457 233.72 195.956 234.765 194.164C235.81 192.353 237.64 191.448 240.253 191.448C242.848 191.448 244.668 192.353 245.713 194.164C246.758 195.956 247.281 198.457 247.281 201.668C247.281 204.935 246.758 207.473 245.713 209.284C244.668 211.095 242.848 212 240.253 212C237.64 212 235.81 211.095 234.765 209.284C233.72 207.473 233.197 204.935 233.197 201.668ZM244.761 201.668C244.761 200.044 244.649 198.672 244.425 197.552C244.22 196.413 243.781 195.499 243.109 194.808C242.456 194.117 241.504 193.772 240.253 193.772C238.984 193.772 238.013 194.117 237.341 194.808C236.688 195.499 236.249 196.413 236.025 197.552C235.82 198.672 235.717 200.044 235.717 201.668C235.717 203.348 235.82 204.757 236.025 205.896C236.249 207.035 236.688 207.949 237.341 208.64C238.013 209.331 238.984 209.676 240.253 209.676C241.504 209.676 242.456 209.331 243.109 208.64C243.781 207.949 244.22 207.035 244.425 205.896C244.649 204.757 244.761 203.348 244.761 201.668ZM250.471 209.956C252.842 208.052 254.699 206.493 256.043 205.28C257.387 204.048 258.516 202.769 259.431 201.444C260.364 200.1 260.831 198.784 260.831 197.496C260.831 196.283 260.532 195.331 259.935 194.64C259.356 193.931 258.414 193.576 257.107 193.576C255.838 193.576 254.848 193.977 254.139 194.78C253.448 195.564 253.075 196.619 253.019 197.944H250.555C250.63 195.853 251.264 194.239 252.459 193.1C253.654 191.961 255.194 191.392 257.079 191.392C259.002 191.392 260.523 191.924 261.643 192.988C262.782 194.052 263.351 195.517 263.351 197.384C263.351 198.933 262.884 200.445 261.951 201.92C261.036 203.376 259.991 204.664 258.815 205.784C257.639 206.885 256.136 208.173 254.307 209.648H263.939V211.776H250.471V209.956ZM266.268 207.492V205.56L276.096 191.952H279.148V205.28H281.948V207.492H279.148V212H276.628V207.492H266.268ZM276.74 194.612L269.208 205.28H276.74V194.612ZM302.963 212L294.927 203.096V212H292.379V192.484H294.927V201.528L302.991 192.484H306.211L297.363 202.256L306.295 212H302.963ZM308.188 204.272C308.188 202.704 308.506 201.332 309.14 200.156C309.775 198.961 310.643 198.037 311.744 197.384C312.864 196.731 314.106 196.404 315.468 196.404C316.812 196.404 317.979 196.693 318.968 197.272C319.958 197.851 320.695 198.579 321.18 199.456V196.656H323.756V212H321.18V209.144C320.676 210.04 319.92 210.787 318.912 211.384C317.923 211.963 316.766 212.252 315.44 212.252C314.078 212.252 312.846 211.916 311.744 211.244C310.643 210.572 309.775 209.629 309.14 208.416C308.506 207.203 308.188 205.821 308.188 204.272ZM321.18 204.3C321.18 203.143 320.947 202.135 320.48 201.276C320.014 200.417 319.379 199.764 318.576 199.316C317.792 198.849 316.924 198.616 315.972 198.616C315.02 198.616 314.152 198.84 313.368 199.288C312.584 199.736 311.959 200.389 311.492 201.248C311.026 202.107 310.792 203.115 310.792 204.272C310.792 205.448 311.026 206.475 311.492 207.352C311.959 208.211 312.584 208.873 313.368 209.34C314.152 209.788 315.02 210.012 315.972 210.012C316.924 210.012 317.792 209.788 318.576 209.34C319.379 208.873 320.014 208.211 320.48 207.352C320.947 206.475 321.18 205.457 321.18 204.3ZM330.61 199.148C331.058 198.271 331.693 197.589 332.514 197.104C333.354 196.619 334.372 196.376 335.566 196.376V199.008H334.894C332.038 199.008 330.61 200.557 330.61 203.656V212H328.062V196.656H330.61V199.148ZM356.96 196.376C358.154 196.376 359.218 196.628 360.152 197.132C361.085 197.617 361.822 198.355 362.364 199.344C362.905 200.333 363.176 201.537 363.176 202.956V212H360.656V203.32C360.656 201.789 360.273 200.623 359.508 199.82C358.761 198.999 357.744 198.588 356.456 198.588C355.13 198.588 354.076 199.017 353.292 199.876C352.508 200.716 352.116 201.939 352.116 203.544V212H349.596V203.32C349.596 201.789 349.213 200.623 348.448 199.82C347.701 198.999 346.684 198.588 345.396 198.588C344.07 198.588 343.016 199.017 342.232 199.876C341.448 200.716 341.056 201.939 341.056 203.544V212H338.508V196.656H341.056V198.868C341.56 198.065 342.232 197.449 343.072 197.02C343.93 196.591 344.873 196.376 345.9 196.376C347.188 196.376 348.326 196.665 349.316 197.244C350.305 197.823 351.042 198.672 351.528 199.792C351.957 198.709 352.666 197.869 353.656 197.272C354.645 196.675 355.746 196.376 356.96 196.376ZM366.403 204.272C366.403 202.704 366.721 201.332 367.355 200.156C367.99 198.961 368.858 198.037 369.959 197.384C371.079 196.731 372.321 196.404 373.683 196.404C375.027 196.404 376.194 196.693 377.183 197.272C378.173 197.851 378.91 198.579 379.395 199.456V196.656H381.971V212H379.395V209.144C378.891 210.04 378.135 210.787 377.127 211.384C376.138 211.963 374.981 212.252 373.655 212.252C372.293 212.252 371.061 211.916 369.959 211.244C368.858 210.572 367.99 209.629 367.355 208.416C366.721 207.203 366.403 205.821 366.403 204.272ZM379.395 204.3C379.395 203.143 379.162 202.135 378.695 201.276C378.229 200.417 377.594 199.764 376.791 199.316C376.007 198.849 375.139 198.616 374.187 198.616C373.235 198.616 372.367 198.84 371.583 199.288C370.799 199.736 370.174 200.389 369.707 201.248C369.241 202.107 369.007 203.115 369.007 204.272C369.007 205.448 369.241 206.475 369.707 207.352C370.174 208.211 370.799 208.873 371.583 209.34C372.367 209.788 373.235 210.012 374.187 210.012C375.139 210.012 376.007 209.788 376.791 209.34C377.594 208.873 378.229 208.211 378.695 207.352C379.162 206.475 379.395 205.457 379.395 204.3Z" fill="white"/>
<path d="M578.596 196.656L573.808 212H571.176L567.48 199.82L563.784 212H561.152L556.336 196.656H558.94L562.468 209.536L566.276 196.656H568.88L572.604 209.564L576.076 196.656H578.596ZM601.565 196.656L596.777 212H594.145L590.449 199.82L586.753 212H584.121L579.305 196.656H581.909L585.437 209.536L589.245 196.656H591.849L595.573 209.564L599.045 196.656H601.565ZM624.534 196.656L619.746 212H617.114L613.418 199.82L609.722 212H607.09L602.274 196.656H604.878L608.406 209.536L612.214 196.656H614.818L618.542 209.564L622.014 196.656H624.534ZM627.874 212.168C627.389 212.168 626.978 212 626.642 211.664C626.306 211.328 626.138 210.917 626.138 210.432C626.138 209.947 626.306 209.536 626.642 209.2C626.978 208.864 627.389 208.696 627.874 208.696C628.341 208.696 628.733 208.864 629.05 209.2C629.386 209.536 629.554 209.947 629.554 210.432C629.554 210.917 629.386 211.328 629.05 211.664C628.733 212 628.341 212.168 627.874 212.168ZM641.509 212L635.489 205.224V212H632.941V191.28H635.489V203.46L641.397 196.656H644.953L637.729 204.3L644.981 212H641.509ZM646.399 204.272C646.399 202.704 646.717 201.332 647.351 200.156C647.986 198.961 648.854 198.037 649.955 197.384C651.075 196.731 652.317 196.404 653.679 196.404C655.023 196.404 656.19 196.693 657.179 197.272C658.169 197.851 658.906 198.579 659.391 199.456V196.656H661.967V212H659.391V209.144C658.887 210.04 658.131 210.787 657.123 211.384C656.134 211.963 654.977 212.252 653.651 212.252C652.289 212.252 651.057 211.916 649.955 211.244C648.854 210.572 647.986 209.629 647.351 208.416C646.717 207.203 646.399 205.821 646.399 204.272ZM659.391 204.3C659.391 203.143 659.158 202.135 658.691 201.276C658.225 200.417 657.59 199.764 656.787 199.316C656.003 198.849 655.135 198.616 654.183 198.616C653.231 198.616 652.363 198.84 651.579 199.288C650.795 199.736 650.17 200.389 649.703 201.248C649.237 202.107 649.003 203.115 649.003 204.272C649.003 205.448 649.237 206.475 649.703 207.352C650.17 208.211 650.795 208.873 651.579 209.34C652.363 209.788 653.231 210.012 654.183 210.012C655.135 210.012 656.003 209.788 656.787 209.34C657.59 208.873 658.225 208.211 658.691 207.352C659.158 206.475 659.391 205.457 659.391 204.3ZM668.821 199.148C669.269 198.271 669.904 197.589 670.725 197.104C671.565 196.619 672.583 196.376 673.777 196.376V199.008H673.105C670.249 199.008 668.821 200.557 668.821 203.656V212H666.273V196.656H668.821V199.148ZM695.171 196.376C696.365 196.376 697.429 196.628 698.363 197.132C699.296 197.617 700.033 198.355 700.575 199.344C701.116 200.333 701.387 201.537 701.387 202.956V212H698.867V203.32C698.867 201.789 698.484 200.623 697.719 199.82C696.972 198.999 695.955 198.588 694.667 198.588C693.341 198.588 692.287 199.017 691.503 199.876C690.719 200.716 690.327 201.939 690.327 203.544V212H687.807V203.32C687.807 201.789 687.424 200.623 686.659 199.82C685.912 198.999 684.895 198.588 683.607 198.588C682.281 198.588 681.227 199.017 680.443 199.876C679.659 200.716 679.267 201.939 679.267 203.544V212H676.719V196.656H679.267V198.868C679.771 198.065 680.443 197.449 681.283 197.02C682.141 196.591 683.084 196.376 684.111 196.376C685.399 196.376 686.537 196.665 687.527 197.244C688.516 197.823 689.253 198.672 689.739 199.792C690.168 198.709 690.877 197.869 691.867 197.272C692.856 196.675 693.957 196.376 695.171 196.376ZM704.614 204.272C704.614 202.704 704.931 201.332 705.566 200.156C706.201 198.961 707.069 198.037 708.17 197.384C709.29 196.731 710.531 196.404 711.894 196.404C713.238 196.404 714.405 196.693 715.394 197.272C716.383 197.851 717.121 198.579 717.606 199.456V196.656H720.182V212H717.606V209.144C717.102 210.04 716.346 210.787 715.338 211.384C714.349 211.963 713.191 212.252 711.866 212.252C710.503 212.252 709.271 211.916 708.17 211.244C707.069 210.572 706.201 209.629 705.566 208.416C704.931 207.203 704.614 205.821 704.614 204.272ZM717.606 204.3C717.606 203.143 717.373 202.135 716.906 201.276C716.439 200.417 715.805 199.764 715.002 199.316C714.218 198.849 713.35 198.616 712.398 198.616C711.446 198.616 710.578 198.84 709.794 199.288C709.01 199.736 708.385 200.389 707.918 201.248C707.451 202.107 707.218 203.115 707.218 204.272C707.218 205.448 707.451 206.475 707.918 207.352C708.385 208.211 709.01 208.873 709.794 209.34C710.578 209.788 711.446 210.012 712.398 210.012C713.35 210.012 714.218 209.788 715.002 209.34C715.805 208.873 716.439 208.211 716.906 207.352C717.373 206.475 717.606 205.457 717.606 204.3ZM733.056 212L727.036 205.224V212H724.488V191.28H727.036V203.46L732.944 196.656H736.5L729.276 204.3L736.528 212H733.056ZM757.35 196.376C758.545 196.376 759.609 196.628 760.542 197.132C761.476 197.617 762.213 198.355 762.754 199.344C763.296 200.333 763.566 201.537 763.566 202.956V212H761.046V203.32C761.046 201.789 760.664 200.623 759.898 199.82C759.152 198.999 758.134 198.588 756.846 198.588C755.521 198.588 754.466 199.017 753.682 199.876C752.898 200.716 752.506 201.939 752.506 203.544V212H749.986V203.32C749.986 201.789 749.604 200.623 748.838 199.82C748.092 198.999 747.074 198.588 745.786 198.588C744.461 198.588 743.406 199.017 742.622 199.876C741.838 200.716 741.446 201.939 741.446 203.544V212H738.898V196.656H741.446V198.868C741.95 198.065 742.622 197.449 743.462 197.02C744.321 196.591 745.264 196.376 746.29 196.376C747.578 196.376 748.717 196.665 749.706 197.244C750.696 197.823 751.433 198.672 751.918 199.792C752.348 198.709 753.057 197.869 754.046 197.272C755.036 196.675 756.137 196.376 757.35 196.376ZM766.794 204.3C766.794 202.713 767.111 201.332 767.746 200.156C768.381 198.961 769.258 198.037 770.378 197.384C771.517 196.731 772.814 196.404 774.27 196.404C776.155 196.404 777.705 196.861 778.918 197.776C780.15 198.691 780.962 199.96 781.354 201.584H778.61C778.349 200.651 777.835 199.913 777.07 199.372C776.323 198.831 775.39 198.56 774.27 198.56C772.814 198.56 771.638 199.064 770.742 200.072C769.846 201.061 769.398 202.471 769.398 204.3C769.398 206.148 769.846 207.576 770.742 208.584C771.638 209.592 772.814 210.096 774.27 210.096C775.39 210.096 776.323 209.835 777.07 209.312C777.817 208.789 778.33 208.043 778.61 207.072H781.354C780.943 208.64 780.122 209.9 778.89 210.852C777.658 211.785 776.118 212.252 774.27 212.252C772.814 212.252 771.517 211.925 770.378 211.272C769.258 210.619 768.381 209.695 767.746 208.5C767.111 207.305 766.794 205.905 766.794 204.3ZM787.862 198.756V207.8C787.862 208.547 788.02 209.079 788.338 209.396C788.655 209.695 789.206 209.844 789.99 209.844H791.866V212H789.57C788.151 212 787.087 211.673 786.378 211.02C785.668 210.367 785.314 209.293 785.314 207.8V198.756H783.326V196.656H785.314V192.792H787.862V196.656H791.866V198.756H787.862ZM795.765 212.168C795.28 212.168 794.869 212 794.533 211.664C794.197 211.328 794.029 210.917 794.029 210.432C794.029 209.947 794.197 209.536 794.533 209.2C794.869 208.864 795.28 208.696 795.765 208.696C796.232 208.696 796.624 208.864 796.941 209.2C797.277 209.536 797.445 209.947 797.445 210.432C797.445 210.917 797.277 211.328 796.941 211.664C796.624 212 796.232 212.168 795.765 212.168ZM799.88 204.3C799.88 202.713 800.197 201.332 800.832 200.156C801.466 198.961 802.344 198.037 803.464 197.384C804.602 196.731 805.9 196.404 807.356 196.404C809.241 196.404 810.79 196.861 812.004 197.776C813.236 198.691 814.048 199.96 814.44 201.584H811.696C811.434 200.651 810.921 199.913 810.156 199.372C809.409 198.831 808.476 198.56 807.356 198.56C805.9 198.56 804.724 199.064 803.828 200.072C802.932 201.061 802.484 202.471 802.484 204.3C802.484 206.148 802.932 207.576 803.828 208.584C804.724 209.592 805.9 210.096 807.356 210.096C808.476 210.096 809.409 209.835 810.156 209.312C810.902 208.789 811.416 208.043 811.696 207.072H814.44C814.029 208.64 813.208 209.9 811.976 210.852C810.744 211.785 809.204 212.252 807.356 212.252C805.9 212.252 804.602 211.925 803.464 211.272C802.344 210.619 801.466 209.695 800.832 208.5C800.197 207.305 799.88 205.905 799.88 204.3ZM824.532 212.252C823.094 212.252 821.788 211.925 820.612 211.272C819.454 210.619 818.54 209.695 817.868 208.5C817.214 207.287 816.888 205.887 816.888 204.3C816.888 202.732 817.224 201.351 817.896 200.156C818.586 198.943 819.52 198.019 820.696 197.384C821.872 196.731 823.188 196.404 824.644 196.404C826.1 196.404 827.416 196.731 828.592 197.384C829.768 198.019 830.692 198.933 831.364 200.128C832.054 201.323 832.4 202.713 832.4 204.3C832.4 205.887 832.045 207.287 831.336 208.5C830.645 209.695 829.702 210.619 828.508 211.272C827.313 211.925 825.988 212.252 824.532 212.252ZM824.532 210.012C825.446 210.012 826.305 209.797 827.108 209.368C827.91 208.939 828.554 208.295 829.04 207.436C829.544 206.577 829.796 205.532 829.796 204.3C829.796 203.068 829.553 202.023 829.068 201.164C828.582 200.305 827.948 199.671 827.164 199.26C826.38 198.831 825.53 198.616 824.616 198.616C823.682 198.616 822.824 198.831 822.04 199.26C821.274 199.671 820.658 200.305 820.192 201.164C819.725 202.023 819.492 203.068 819.492 204.3C819.492 205.551 819.716 206.605 820.164 207.464C820.63 208.323 821.246 208.967 822.012 209.396C822.777 209.807 823.617 210.012 824.532 210.012ZM854.202 196.376C855.396 196.376 856.46 196.628 857.394 197.132C858.327 197.617 859.064 198.355 859.606 199.344C860.147 200.333 860.418 201.537 860.418 202.956V212H857.898V203.32C857.898 201.789 857.515 200.623 856.75 199.82C856.003 198.999 854.986 198.588 853.698 198.588C852.372 198.588 851.318 199.017 850.534 199.876C849.75 200.716 849.358 201.939 849.358 203.544V212H846.838V203.32C846.838 201.789 846.455 200.623 845.69 199.82C844.943 198.999 843.926 198.588 842.638 198.588C841.312 198.588 840.258 199.017 839.474 199.876C838.69 200.716 838.298 201.939 838.298 203.544V212H835.75V196.656H838.298V198.868C838.802 198.065 839.474 197.449 840.314 197.02C841.172 196.591 842.115 196.376 843.142 196.376C844.43 196.376 845.568 196.665 846.558 197.244C847.547 197.823 848.284 198.672 848.77 199.792C849.199 198.709 849.908 197.869 850.898 197.272C851.887 196.675 852.988 196.376 854.202 196.376Z" fill="white"/>
<path d="M193.165 147.264H201.894L205.452 150.823V159.552L193.165 147.264ZM193.165 132.411V137.79L187 143.996V132.411H193.165ZM199.246 132.411H207.976L193.165 147.264V153.388L187 159.552V144.699L199.246 132.411ZM226.844 132.411V141.141L208.474 159.552V150.823L226.844 132.411ZM233.546 138.617V146.478L226.678 153.346H217.949L227.382 143.913V132.411L233.546 138.617ZM227.382 159.552V153.346L233.546 147.182V159.552H227.382ZM251.389 144.699V138.576H243.155V132.411H256.684V139.404L251.389 144.699ZM251.389 144.699L257.47 150.781V159.552L242.659 144.699H251.389ZM236.494 138.576L242.659 132.411V144.699V153.346L236.494 159.552V138.576ZM259.969 153.346V133.115L266.175 139.279V159.552L259.969 153.346ZM282.476 138.576L288.64 132.411V159.552L282.476 153.346V138.576ZM274.904 138.576H282.476L274.325 146.727L269.857 142.3L259.969 132.411H268.698L274.904 138.576ZM309.025 132.411V141.141L290.655 159.552V150.823L309.025 132.411ZM315.727 138.617V146.478L308.859 153.346H300.129L309.562 143.913V132.411L315.727 138.617ZM309.562 159.552V153.346L315.727 147.182V159.552H309.562ZM334.167 140.148L333.919 139.693C334.305 138.259 334.829 136.659 335.491 134.894C336.153 133.101 336.815 131.474 337.477 130.012H340.166C339.918 131.06 339.656 132.191 339.38 133.404C339.104 134.59 338.856 135.776 338.635 136.963C338.414 138.121 338.235 139.183 338.097 140.148H334.167ZM351.618 132.411V138.576H339.62L345.785 132.411H351.618ZM358.279 144.451L355.549 147.182H346.819L352.115 141.886V132.411L358.279 138.576V144.451ZM340.654 159.552V153.346L346.819 147.182V153.388H360.141L353.976 159.552H340.654ZM381.67 138.576V149.292L375.464 143.127V132.411L381.67 138.576ZM375.464 143.83L381.67 149.995V159.552L375.464 153.346V149.995H368.596L362.432 143.83V132.411L368.596 138.576V143.83H375.464Z" fill="white"/>
<path d="M1238.51 97.9165C1240.72 97.9224 1241.83 97.9341 1242.8 97.9615L1243.18 97.9753C1243.62 97.9909 1244.05 98.0105 1244.57 98.034C1246.66 98.1319 1248.08 98.4609 1249.33 98.9446C1250.62 99.442 1251.71 100.116 1252.8 101.203C1253.79 102.182 1254.56 103.366 1255.06 104.673C1255.54 105.92 1255.87 107.342 1255.97 109.428C1255.99 109.949 1256.01 110.381 1256.03 110.822L1256.04 111.202C1256.07 112.165 1256.08 113.284 1256.08 115.487L1256.08 116.948V119.513C1256.09 120.941 1256.07 122.37 1256.04 123.798L1256.03 124.178C1256.01 124.618 1255.99 125.051 1255.97 125.572C1255.87 127.658 1255.54 129.078 1255.06 130.327C1254.57 131.635 1253.79 132.819 1252.8 133.797C1251.82 134.793 1250.63 135.563 1249.33 136.055C1248.08 136.539 1246.66 136.868 1244.57 136.966C1244.11 136.988 1243.65 137.007 1243.18 137.024L1242.8 137.036C1241.83 137.064 1240.72 137.077 1238.51 137.081L1237.05 137.083H1234.49C1233.06 137.088 1231.63 137.073 1230.2 137.038L1229.82 137.026C1229.36 137.009 1228.89 136.989 1228.43 136.966C1226.34 136.868 1224.92 136.539 1223.67 136.055C1222.37 135.564 1221.18 134.794 1220.21 133.797C1219.21 132.818 1218.44 131.634 1217.95 130.327C1217.46 129.079 1217.13 127.658 1217.03 125.572C1217.01 125.107 1216.99 124.643 1216.98 124.178L1216.97 123.798C1216.93 122.37 1216.91 120.941 1216.92 119.513V115.487C1216.91 114.058 1216.93 112.63 1216.96 111.202L1216.97 110.822C1216.99 110.381 1217.01 109.949 1217.03 109.428C1217.13 107.342 1217.46 105.922 1217.94 104.673C1218.44 103.364 1219.21 102.18 1220.21 101.203C1221.18 100.207 1222.37 99.4361 1223.67 98.9446C1224.92 98.4609 1226.34 98.1319 1228.43 98.034C1228.95 98.0105 1229.38 97.9909 1229.82 97.9753L1230.2 97.9635C1231.63 97.9287 1233.06 97.9137 1234.49 97.9185L1238.51 97.9165ZM1236.5 107.708C1233.9 107.708 1231.41 108.74 1229.58 110.576C1227.74 112.412 1226.71 114.903 1226.71 117.5C1226.71 120.097 1227.74 122.587 1229.58 124.424C1231.41 126.26 1233.9 127.292 1236.5 127.292C1239.1 127.292 1241.59 126.26 1243.42 124.424C1245.26 122.587 1246.29 120.097 1246.29 117.5C1246.29 114.903 1245.26 112.412 1243.42 110.576C1241.59 108.74 1239.1 107.708 1236.5 107.708ZM1236.5 111.625C1237.27 111.625 1238.04 111.777 1238.75 112.072C1239.46 112.367 1240.11 112.799 1240.66 113.345C1241.2 113.89 1241.63 114.538 1241.93 115.251C1242.22 115.963 1242.38 116.727 1242.38 117.499C1242.38 118.27 1242.22 119.034 1241.93 119.747C1241.63 120.46 1241.2 121.108 1240.66 121.653C1240.11 122.199 1239.46 122.632 1238.75 122.927C1238.04 123.223 1237.27 123.375 1236.5 123.375C1234.94 123.375 1233.45 122.756 1232.35 121.654C1231.25 120.552 1230.63 119.058 1230.63 117.5C1230.63 115.942 1231.25 114.447 1232.35 113.346C1233.45 112.244 1234.94 111.625 1236.5 111.625M1246.78 104.771C1246.13 104.771 1245.51 105.029 1245.05 105.488C1244.59 105.947 1244.34 106.569 1244.34 107.219C1244.34 107.868 1244.59 108.49 1245.05 108.95C1245.51 109.409 1246.13 109.667 1246.78 109.667C1247.43 109.667 1248.06 109.409 1248.51 108.95C1248.97 108.49 1249.23 107.868 1249.23 107.219C1249.23 106.569 1248.97 105.947 1248.51 105.488C1248.06 105.029 1247.43 104.771 1246.78 104.771Z" fill="white"/>
<defs>
<filter id="filter0_b_136_70" x="-8" y="-8" width="1456" height="283" filterUnits="userSpaceOnUse" color-interpolation-filters="sRGB">
<feFlood flood-opacity="0" result="BackgroundImageFix"/>
<feGaussianBlur in="BackgroundImageFix" stdDeviation="4"/>
<feComposite in2="SourceAlpha" operator="in" result="effect1_backgroundBlur_136_70"/>
<feBlend mode="normal" in="SourceGraphic" in2="effect1_backgroundBlur_136_70" result="shape"/>
</filter>
</defs>
</svg>
