<svg xmlns="http://www.w3.org/2000/svg" viewBox="0 0 500 500"><g id="freepik--background-simple--inject-40"><path d="M420,139.72l-2.12-3.45C400,107.21,367.68,89.69,333.64,91.82a89.49,89.49,0,0,0-13,1.77c-31,6.54-57.89,29.65-69.05,59.25-6.57,17.41-8.4,37.46-20.86,51.28-16.22,18-43.75,18.55-67.95,17.8s-51.75-.11-67.89,18c-10.1,11.3-13.31,27.38-12.5,42.53,2.16,40.09,30.45,75.94,66.43,93.76s78.34,19.41,117.72,11.57c55.16-11,107.62-41.13,139.16-87.71S445.18,190,420,139.72Z" style="fill:#ebebeb"></path></g><g id="freepik--Floor--inject-40"><path d="M460.6,472.1c0,.14-96.33.26-215.13.26s-215.15-.12-215.15-.26,96.31-.26,215.15-.26S460.6,472,460.6,472.1Z" style="fill:#263238"></path></g><g id="freepik--Character--inject-40"><path d="M84,222.5c-3.3-5.56-4.24-13-5.07-19.38-.39-3-1.08-7.31,1-9.19,2.27-2,2.49-5.14,5.1-6.7a8,8,0,0,1,8.62.1" style="fill:#263238"></path><path d="M93.06,242.2h0a8.92,8.92,0,0,0,9.63-8.53c.2-4.85.38-9.76.38-9.76s7.36-.67,7.92-8,.36-24.1.36-24.1h0a25.39,25.39,0,0,0-25.66,1.57l.38,25.65,0,13.79C86.06,237.49,88.45,241.84,93.06,242.2Z" style="fill:#b78876"></path><path d="M103.75,207a3.72,3.72,0,0,0-5-1.1,4.23,4.23,0,0,0-1.43,5.29,5.56,5.56,0,0,0,3.57,2.71,2.8,2.8,0,0,1,2.18,3c-.22,1.83-3.26,2.51-4.64,4-2.14,2.34-6.83,3.33-10,3.69s-2.73.39-4.52-2.17a9.76,9.76,0,0,1-1.76-5.92q-.15-8.06-.29-16.11a23.25,23.25,0,0,1,.39-5.78,7.76,7.76,0,0,1,3.06-4.78c1.78-1.16,4-1.25,6-1.9,2.53-.81,4.68-2.47,7-3.67s5.26-1.92,7.63-.72c1.7.86,2.83,2.56,4.48,3.5,2.36,1.35,5.56,1.06,6.7,4.52a6,6,0,0,1,0,3.71c-1.61,4.71-7.46,6.59-11.66,4.54-.08.8.7,2.58-.15,5.1-.27.8-.37,2-1.63,2" style="fill:#263238"></path><path d="M102.44,211.58s0,.14-.11.32a1.06,1.06,0,0,1-.81.4,2,2,0,0,1-1.88-2,2.08,2.08,0,0,1,.54-1.54,2.27,2.27,0,0,1,1.14-.65c.75-.15,1.18.12,1.15.17s-.45,0-1,.19a1.82,1.82,0,0,0-1.26,1.81,1.69,1.69,0,0,0,1.36,1.67C102.13,212,102.38,211.54,102.44,211.58Z" style="fill:#aa6550"></path><path d="M84.61,192.47A12.57,12.57,0,0,0,62.44,198c-.5,2.68-.23,5.75-2.07,7.77-.61.67-1.49,1.27-1.55,2.19s.84,1.72,1.71,2.15a9.64,9.64,0,0,0,6.92.58c.11,1.16.21,2.33.31,3.49,1.37-1,3.26-.11,4.76.68s3.58,1.41,4.69.13a3.54,3.54,0,0,0,.59-2.53,69,69,0,0,0-1.24-6.81c-.36-2.28-.32-4.76,1-6.69s4.06-3,6-1.7" style="fill:#263238"></path><path d="M84.53,190.45s.7.41,1.22,1.58a5.11,5.11,0,0,1-4.44,7.2,3.05,3.05,0,0,1-2-.37,16.36,16.36,0,0,0,1.92,0A5.23,5.23,0,0,0,85,196.54a5.3,5.3,0,0,0,.4-4.38A13.12,13.12,0,0,0,84.53,190.45Z" style="fill:#FF725E"></path><path d="M85.61,197.92a7.91,7.91,0,0,0,2.78,1.63,10.57,10.57,0,0,0,3.47.46c1.33,0,2.81-.17,4.38-.2a11.1,11.1,0,0,1,4.42.68,5.52,5.52,0,0,1,2.77,2.38,4.13,4.13,0,0,1,.56,2.41,1.66,1.66,0,0,1-.25.86s.05-.32.05-.87a4.2,4.2,0,0,0-.67-2.21,5.32,5.32,0,0,0-2.64-2.12,11.14,11.14,0,0,0-4.23-.61c-1.54,0-3,.18-4.39.16a10.29,10.29,0,0,1-3.59-.59,6,6,0,0,1-2.11-1.27A2.2,2.2,0,0,1,85.61,197.92Z" style="fill:#455a64"></path><path d="M101.24,204.53a8.19,8.19,0,0,0-2.56-1.18,10.93,10.93,0,0,0-3-.24c-1.16.06-2.44.24-3.82.32A10.37,10.37,0,0,1,88,203a9.6,9.6,0,0,1-2.83-1.47,8.71,8.71,0,0,1-1.53-1.5,1.94,1.94,0,0,1-.41-.67,23.22,23.22,0,0,0,2.15,1.87,9.85,9.85,0,0,0,2.76,1.31,10.75,10.75,0,0,0,3.7.35c1.34-.07,2.64-.25,3.83-.28a10.41,10.41,0,0,1,3.16.36,5.75,5.75,0,0,1,1.92,1C101.1,204.28,101.26,204.51,101.24,204.53Z" style="fill:#455a64"></path><path d="M64.72,209.82a5.27,5.27,0,0,0,1.2-.42,4.64,4.64,0,0,0,2-2.71c.48-1.39.27-3.17.14-5.15a10.71,10.71,0,0,1,.2-3.16,8.14,8.14,0,0,1,1.5-3.07,8.23,8.23,0,0,1,5.65-3.16,8.13,8.13,0,0,1,5.13,1.35A8,8,0,0,1,83,196.09a6.11,6.11,0,0,1,.41.88q.12.32.09.33s-.22-.41-.67-1.1a8.41,8.41,0,0,0-2.51-2.39,7.94,7.94,0,0,0-4.89-1.18,7.81,7.81,0,0,0-5.28,3,7.65,7.65,0,0,0-1.42,2.87,10.62,10.62,0,0,0-.21,3c.1,2,.29,3.82-.27,5.3A4.67,4.67,0,0,1,66,209.58a2.67,2.67,0,0,1-1,.26C64.83,209.85,64.72,209.84,64.72,209.82Z" style="fill:#455a64"></path><path d="M68.3,210.66s.35-.19.86-.64a5.09,5.09,0,0,0,1.45-2.42,11.36,11.36,0,0,0,.21-4.25,13.65,13.65,0,0,1,.24-5.39,5.14,5.14,0,0,1,1.56-2.42,4.62,4.62,0,0,1,2.48-1,6.24,6.24,0,0,1,4.25,1.22,10,10,0,0,1,2.1,2.1,3.78,3.78,0,0,1,.58.93,5,5,0,0,1-.73-.8,11.48,11.48,0,0,0-2.16-1.92,5.94,5.94,0,0,0-4-1,4.17,4.17,0,0,0-2.22.91,4.66,4.66,0,0,0-1.38,2.19,13.73,13.73,0,0,0-.26,5.2,11.19,11.19,0,0,1-.34,4.39,5,5,0,0,1-1.67,2.47,3.58,3.58,0,0,1-.71.41A.82.82,0,0,1,68.3,210.66Z" style="fill:#455a64"></path><polygon points="103.89 369.89 124.76 466.11 140.5 465.74 126.79 373.73 103.89 369.89" style="fill:#b78876"></polygon><path d="M142.65,467.35l-.07-1.76-17.82.52.15,5.8,1.1,0c4.91.13,25,.3,28.19-.71C157.82,470.1,142.65,467.35,142.65,467.35Z" style="fill:#FF725E"></path><g style="opacity:0.6000000000000001"><path d="M131.34,471.61a5.72,5.72,0,0,0-2.37-3.46,6.32,6.32,0,0,0-4.19-1.09l.14,4.61Z" style="fill:#fff"></path></g><g style="opacity:0.6000000000000001"><path d="M150.07,468.94s5.33,1.27,4.69,2.1-20.89,1.36-29.85.87l0-.37,23.63-.44S149,469,150.07,468.94Z" style="fill:#fff"></path></g><path d="M124.65,471.54l.3,0,.88,0,3.23.05c2.73,0,6.5,0,10.65-.11s7.93-.28,10.65-.44l3.22-.21.88-.07.3,0h-.31l-.87,0-3.23.14c-2.72.13-6.48.28-10.64.38s-7.92.15-10.65.17l-3.23,0H125A1,1,0,0,0,124.65,471.54Z" style="fill:#263238"></path><path d="M148.57,471.36a6,6,0,0,1,.56-1.45,7,7,0,0,1,1.06-1.17,2.34,2.34,0,0,0-1.25,1.07A2,2,0,0,0,148.57,471.36Z" style="fill:#263238"></path><path d="M143.26,469c.05,0,.29-.26.54-.65s.4-.72.35-.75-.29.26-.54.65S143.21,469,143.26,469Z" style="fill:#263238"></path><path d="M141.8,468.36s.31-.14.61-.4.51-.51.47-.55-.32.14-.62.4S141.76,468.32,141.8,468.36Z" style="fill:#263238"></path><path d="M140.84,466.83a2.37,2.37,0,0,0,.93.08,2.49,2.49,0,0,0,.93-.11,2.08,2.08,0,0,0-.93-.09A2.17,2.17,0,0,0,140.84,466.83Z" style="fill:#263238"></path><path d="M140.5,465.74a1.85,1.85,0,0,0,1,.25,1.91,1.91,0,0,0,1.06-.16,6,6,0,0,0-1,0A5.81,5.81,0,0,0,140.5,465.74Z" style="fill:#263238"></path><path d="M143.81,467.57a3.39,3.39,0,0,0,1.14,0,7.61,7.61,0,0,0,1.21-.28,3.29,3.29,0,0,0,.69-.29.56.56,0,0,0,.27-.33.4.4,0,0,0-.19-.42,2.17,2.17,0,0,0-2.56.63,1.79,1.79,0,0,0-.35.72.54.54,0,0,0,0,.29,3,3,0,0,1,.5-.92,1.94,1.94,0,0,1,.95-.61,1.83,1.83,0,0,1,1.36.05c.19.12.12.32-.07.43a3.61,3.61,0,0,1-.64.27,8.62,8.62,0,0,1-1.16.32C144.25,467.53,143.81,467.54,143.81,467.57Z" style="fill:#263238"></path><path d="M144.11,467.62a1,1,0,0,0,.11-.74,1.74,1.74,0,0,0-.33-.77,1.17,1.17,0,0,0-1-.51.43.43,0,0,0-.34.5,1.19,1.19,0,0,0,.21.47,3.47,3.47,0,0,0,.56.62,1.55,1.55,0,0,0,.67.41s-.24-.18-.56-.51a3.74,3.74,0,0,1-.5-.62c-.16-.22-.28-.62,0-.68a1.07,1.07,0,0,1,.77.43,1.81,1.81,0,0,1,.34.68A3.83,3.83,0,0,1,144.11,467.62Z" style="fill:#263238"></path><path d="M124.87,467s.51-.06,1.31,0a6,6,0,0,1,2.9,1,5.47,5.47,0,0,1,1.86,2.3c.29.7.33,1.18.37,1.17a.84.84,0,0,0,0-.33,4,4,0,0,0-.22-.89,5.15,5.15,0,0,0-1.87-2.41,5.85,5.85,0,0,0-3-1,4.53,4.53,0,0,0-1,.05A1.5,1.5,0,0,0,124.87,467Z" style="fill:#263238"></path><path d="M133.52,469.94a15.77,15.77,0,0,0,5.19-.09c0-.06-1.16,0-2.59.06S133.53,469.88,133.52,469.94Z" style="fill:#263238"></path><path d="M130.05,470c-.05.05.1.23.22.48s.2.46.26.45.09-.26-.06-.54S130.08,470,130.05,470Z" style="fill:#263238"></path><path d="M128.69,468.54s.08.21.27.38.37.27.41.23-.08-.21-.26-.37S128.73,468.5,128.69,468.54Z" style="fill:#263238"></path><path d="M126.79,467.9c0,.06.25.05.52.13s.45.2.5.16-.11-.26-.44-.36S126.77,467.85,126.79,467.9Z" style="fill:#263238"></path><path d="M125.45,467.61c0,.05.08.13.23.18s.29,0,.31,0-.09-.14-.24-.19S125.47,467.56,125.45,467.61Z" style="fill:#263238"></path><polygon points="65.37 366.63 60.3 460.59 75.8 464.33 87.41 368.61 65.37 366.63" style="fill:#b78876"></polygon><polygon points="59.84 460.23 57.21 471.83 75.03 471.83 75.8 464.28 59.84 460.23" style="fill:#FF725E"></polygon><path d="M75.4,470.15a13.44,13.44,0,0,1-2.6.15c-1.6,0-3.82,0-6.26-.12l-6.26-.26a14.89,14.89,0,0,1-2.59-.21,12.18,12.18,0,0,1,2.6-.14c1.6,0,3.82,0,6.26.12l6.26.26A14.42,14.42,0,0,1,75.4,470.15Z" style="fill:#263238"></path><path d="M67.85,462.49a14.88,14.88,0,0,1,0,3.76,14.15,14.15,0,0,1-.5,3.72,14.88,14.88,0,0,1,0-3.76A14.24,14.24,0,0,1,67.85,462.49Z" style="fill:#263238"></path><g style="opacity:0.6000000000000001"><polyline points="57.21 471.83 75.03 471.83 75.2 470.15 57.53 469.71 57.21 471.63" style="fill:#fff"></polyline></g><path d="M73.86,295.16S63,313.33,63,324.2L55.6,441l29.46,3.4L92.22,330s24.09,116.16,25.1,116.16,26.84-1.7,26.84-1.7L116.31,295.74Z" style="fill:#FF725E"></path><path d="M104.2,332.89c0,.14-5.76-1.14-12.78-2.86s-12.7-3.22-12.67-3.36,5.76,1.14,12.79,2.86S104.24,332.75,104.2,332.89Z" style="fill:#263238"></path><path d="M85.57,424.33a4.11,4.11,0,0,1-1.16.15,15.77,15.77,0,0,1-3.16-.17c-2.67-.34-6.17-1.62-10-2.92A22.94,22.94,0,0,0,61.16,420a15.78,15.78,0,0,0-4,1.26,3.56,3.56,0,0,1,1-.63,10.29,10.29,0,0,1,3-1,16.21,16.21,0,0,1,4.71-.07,30.9,30.9,0,0,1,5.61,1.31c3.85,1.31,7.27,2.62,9.88,3A31.69,31.69,0,0,0,85.57,424.33Z" style="fill:#fafafa"></path><path d="M85.68,414.63c0,.09-1.65-.15-4.28.1a97.12,97.12,0,0,0-10.19,1.88,26.59,26.59,0,0,1-10.4.4,12.38,12.38,0,0,1-3-1,4,4,0,0,1-1-.58,22.27,22.27,0,0,0,4.09,1.2,28.71,28.71,0,0,0,10.23-.55,73.64,73.64,0,0,1,10.26-1.74,19.24,19.24,0,0,1,3.17.06A3.69,3.69,0,0,1,85.68,414.63Z" style="fill:#fafafa"></path><path d="M136.05,403.39s0,.1-.15.26a3.7,3.7,0,0,1-.55.66,6.92,6.92,0,0,1-2.73,1.62,11.74,11.74,0,0,1-4.67.5c-1.76-.13-3.66-.55-5.63-.87a18,18,0,0,0-10,1,34.29,34.29,0,0,0-3.77,1.95,4.29,4.29,0,0,1,.89-.74,15.49,15.49,0,0,1,2.74-1.55,17.18,17.18,0,0,1,4.5-1.3,18.56,18.56,0,0,1,5.74.12c2,.33,3.87.76,5.59.91a11.92,11.92,0,0,0,4.52-.37,7.58,7.58,0,0,0,2.7-1.41C135.76,403.69,136,403.36,136.05,403.39Z" style="fill:#fafafa"></path><path d="M140.31,424.59a3.86,3.86,0,0,1-.72.9,18.49,18.49,0,0,1-2.34,2.12,22.27,22.27,0,0,1-9.49,4.15,22.59,22.59,0,0,1-10.35-.57,18.61,18.61,0,0,1-2.94-1.12,4.48,4.48,0,0,1-1-.58c0-.09,1.5.68,4.05,1.35a24,24,0,0,0,10.16.41,23.28,23.28,0,0,0,9.36-3.94C139.17,425.78,140.24,424.52,140.31,424.59Z" style="fill:#fafafa"></path><path d="M133.31,394.56a8.85,8.85,0,0,0-4,.69,16.28,16.28,0,0,0-3.79,2.37c-1.33,1.06-2.7,2.36-4.34,3.52a11.61,11.61,0,0,1-5.2,2.14,17,17,0,0,1-4.59,0c-1.3-.17-2.32-.39-3-.54a4.06,4.06,0,0,1-1.09-.31c0-.09,1.6.22,4.16.48a17.86,17.86,0,0,0,4.47-.08,11.39,11.39,0,0,0,5-2.09c1.6-1.12,3-2.41,4.34-3.46a15.63,15.63,0,0,1,3.95-2.34,7.68,7.68,0,0,1,3.05-.55A2.73,2.73,0,0,1,133.31,394.56Z" style="fill:#fafafa"></path><path d="M88.08,390a4.13,4.13,0,0,1-1,.59,10.25,10.25,0,0,1-3.15.83,17.27,17.27,0,0,1-4.83-.21,45.92,45.92,0,0,1-5.71-1.44,51.29,51.29,0,0,0-5.65-1.49,18.52,18.52,0,0,0-4.71-.33,15.57,15.57,0,0,0-4.23,1,4.35,4.35,0,0,1,1-.58,10.28,10.28,0,0,1,3.16-.81,17.73,17.73,0,0,1,4.83.23,46.16,46.16,0,0,1,5.71,1.46,51.41,51.41,0,0,0,5.64,1.47,18.13,18.13,0,0,0,4.72.32A15.29,15.29,0,0,0,88.08,390Z" style="fill:#fafafa"></path><path d="M129.53,370.28a.92.92,0,0,1-.07.3,5.84,5.84,0,0,1-.34.83,8.87,8.87,0,0,1-2,2.6,13.45,13.45,0,0,1-4.16,2.52,25.36,25.36,0,0,1-5.78,1.37c-2.09.27-4.07.44-5.85.71a39.1,39.1,0,0,0-4.72.83,8.23,8.23,0,0,0-2.81,1.45c-.6.48-.89.79-.92.76s0-.1.17-.26a6.34,6.34,0,0,1,.61-.65,7.67,7.67,0,0,1,2.84-1.65,33.15,33.15,0,0,1,4.75-.95c1.8-.3,3.79-.48,5.86-.76a26.48,26.48,0,0,0,5.68-1.29,14.12,14.12,0,0,0,4.09-2.36A11.57,11.57,0,0,0,129.53,370.28Z" style="fill:#fafafa"></path><path d="M60.5,368a17.39,17.39,0,0,0,4,1.85,12.67,12.67,0,0,0,4.74.39,14.79,14.79,0,0,0,5.5-1.89c1.85-1,3.56-2.08,5.26-2.84a12.85,12.85,0,0,1,4.77-1.18,7.17,7.17,0,0,1,3.27.59,5.11,5.11,0,0,1,.78.45q.25.18.24.21s-.39-.2-1.1-.47a7.64,7.64,0,0,0-3.17-.42,13.3,13.3,0,0,0-4.59,1.26c-1.64.76-3.33,1.85-5.21,2.86a14.73,14.73,0,0,1-5.71,1.91,12.43,12.43,0,0,1-4.89-.52,11.67,11.67,0,0,1-3-1.43,7.3,7.3,0,0,1-.72-.54C60.57,368.05,60.49,368,60.5,368Z" style="fill:#fafafa"></path><path d="M125,346.91a4.73,4.73,0,0,1-.61,1A17.71,17.71,0,0,1,112.66,355a22.81,22.81,0,0,1-5.89,0,18.83,18.83,0,0,0-4.72,0,8.55,8.55,0,0,0-3.94,1.7,2.9,2.9,0,0,1,.86-.83,7.94,7.94,0,0,1,3-1.24,17.86,17.86,0,0,1,4.81-.14,24.42,24.42,0,0,0,5.78-.07,19,19,0,0,0,9.39-4.38A34.93,34.93,0,0,0,125,346.91Z" style="fill:#fafafa"></path><path d="M89.24,344.89a17.63,17.63,0,0,0-4.06-.72,11.9,11.9,0,0,0-4.37.73c-.79.27-1.56.72-2.44,1.08a4,4,0,0,1-3,.18,13.32,13.32,0,0,1-2.53-1.46,11.25,11.25,0,0,0-2.37-1.11,11.92,11.92,0,0,0-4.39-.6,17.5,17.5,0,0,0-4,.86,3.56,3.56,0,0,1,1-.52,11.08,11.08,0,0,1,3-.71,11.85,11.85,0,0,1,4.56.51,11,11,0,0,1,2.48,1.14,14.59,14.59,0,0,0,2.45,1.4,3.55,3.55,0,0,0,2.62-.16c.84-.34,1.63-.78,2.46-1.07a11.67,11.67,0,0,1,4.55-.63,10.83,10.83,0,0,1,3,.6A3.62,3.62,0,0,1,89.24,344.89Z" style="fill:#fafafa"></path><path d="M125,342a5.79,5.79,0,0,1-.85.89,25.48,25.48,0,0,1-2.57,2.16,27.91,27.91,0,0,1-10,4.72,27.16,27.16,0,0,1-6.08.68,26,26,0,0,1-5-.5,24.26,24.26,0,0,1-3.25-.85,6.25,6.25,0,0,1-1.15-.45c0-.1,1.69.47,4.46.94a30.35,30.35,0,0,0,4.91.38,28.66,28.66,0,0,0,6-.71,29.52,29.52,0,0,0,9.9-4.51C123.64,343.16,124.91,341.94,125,342Z" style="fill:#fafafa"></path><path d="M120.12,319.1a2.37,2.37,0,0,1-.52.33c-.35.19-.86.48-1.53.83-1.35.71-3.29,1.72-5.8,2.79a33.53,33.53,0,0,1-9.19,2.56,21.64,21.64,0,0,1-5.67-.1,32.13,32.13,0,0,1-5.87-1.57c-3.9-1.42-7.47-3.11-10.92-4a26.21,26.21,0,0,0-9.36-.75A28.16,28.16,0,0,0,65,320.55c-1.42.5-2.18.86-2.2.81a3.2,3.2,0,0,1,.53-.29c.36-.19.9-.43,1.6-.71a25.56,25.56,0,0,1,6.25-1.54,26.19,26.19,0,0,1,9.52.65c3.52.88,7.11,2.57,11,4A32.14,32.14,0,0,0,97.49,325a22,22,0,0,0,5.54.13,34.59,34.59,0,0,0,9.1-2.43c2.51-1,4.48-2,5.85-2.63l1.57-.75A3.67,3.67,0,0,1,120.12,319.1Z" style="fill:#fafafa"></path><path d="M118.45,307.16a8.74,8.74,0,0,0-1.52-1.39,9.7,9.7,0,0,0-5.35-1.39,11.18,11.18,0,0,0-3.78.67c-1.32.48-2.7,1.08-4.14,1.74A49.12,49.12,0,0,1,94,310.46a37.85,37.85,0,0,1-18.7-.27,36.53,36.53,0,0,1-5.36-1.95c-.61-.29-1.07-.54-1.38-.7a2.62,2.62,0,0,1-.47-.28,2.38,2.38,0,0,1,.51.19l1.42.61a45.36,45.36,0,0,0,5.38,1.78,38.82,38.82,0,0,0,18.48.11,50.25,50.25,0,0,0,9.61-3.6c1.45-.65,2.85-1.24,4.2-1.7a11.47,11.47,0,0,1,3.92-.64,9.63,9.63,0,0,1,5.47,1.59,5.7,5.7,0,0,1,1.11,1.1A2.05,2.05,0,0,1,118.45,307.16Z" style="fill:#fafafa"></path><path d="M73.86,295.16l5.07-14.73-3.52-17.89-2.76,7.89L55.6,264.17s11-22.08,11.59-23.24c5-10.6,18.5-10.6,18.5-10.6l17.12.45s9.77.73,14.7,8.9c3,5,9.39,24.54,9.39,24.54l-16.31,6.13-1.07-8.56L113,276l3.55,21.42Z" style="fill:#263238"></path><path d="M104.82,267.31a4.22,4.22,0,0,1,0,1.24,11.45,11.45,0,0,1-.82,3.26,15.89,15.89,0,0,1-7.49,8A22.06,22.06,0,0,1,85.71,282a25.53,25.53,0,0,1-3.34-.34,5.59,5.59,0,0,1-1.2-.28c0-.1,1.74.22,4.54.25a23,23,0,0,0,10.56-2.26,16.12,16.12,0,0,0,7.38-7.66A18.29,18.29,0,0,0,104.82,267.31Z" style="fill:#455a64"></path><path d="M104.67,233.7s-.49.25-1.23.88a7.72,7.72,0,0,0-2.24,3.35,10.72,10.72,0,0,0-.55,2.75,13.4,13.4,0,0,0,.26,3.22,41.21,41.21,0,0,0,2.39,7.1c2,5,3.73,9.49,5,12.77l1.46,3.9a7.66,7.66,0,0,1,.46,1.45,9.63,9.63,0,0,1-.65-1.38l-1.61-3.83c-1.34-3.25-3.15-7.74-5.13-12.72a39,39,0,0,1-2.37-7.2,13.28,13.28,0,0,1-.22-3.34,10.55,10.55,0,0,1,.64-2.85,7.55,7.55,0,0,1,2.45-3.38,4.81,4.81,0,0,1,1-.59C104.53,233.73,104.66,233.68,104.67,233.7Z" style="fill:#455a64"></path><path d="M78.37,245a17.39,17.39,0,0,1,2.2-3.61,17.13,17.13,0,0,1,2.63-3.31A17.39,17.39,0,0,1,81,241.7,17.58,17.58,0,0,1,78.37,245Z" style="fill:#fafafa"></path><path d="M93.73,256.11a8.66,8.66,0,0,1-2.59-1.5,8.68,8.68,0,0,1-2.28-1.92,8.55,8.55,0,0,1,2.58,1.5A8.63,8.63,0,0,1,93.73,256.11Z" style="fill:#fafafa"></path><path d="M95.49,242.94a14,14,0,0,1,.89-3,13.28,13.28,0,0,1,1.1-3,7.56,7.56,0,0,1-.61,3.11A7.48,7.48,0,0,1,95.49,242.94Z" style="fill:#fafafa"></path><path d="M111.7,246.4a10,10,0,0,1-3-1.36,10.55,10.55,0,0,1-2.7-1.82,10,10,0,0,1,3,1.36A10.55,10.55,0,0,1,111.7,246.4Z" style="fill:#fafafa"></path><path d="M114.74,257a8.11,8.11,0,0,1,.89-3.47,8.5,8.5,0,0,1,1.86-3.06,24.29,24.29,0,0,1-1.38,3.26A26.66,26.66,0,0,1,114.74,257Z" style="fill:#fafafa"></path><path d="M118.08,264.93a8.38,8.38,0,0,1-2.83-.53,7.87,7.87,0,0,1-2.69-1,7.94,7.94,0,0,1,2.83.52A8.12,8.12,0,0,1,118.08,264.93Z" style="fill:#fafafa"></path><path d="M96.91,274.67a21,21,0,0,1,2-6.39,11,11,0,0,1-.75,3.27A11.48,11.48,0,0,1,96.91,274.67Z" style="fill:#fafafa"></path><path d="M86.9,272.94A7.46,7.46,0,0,1,84,271a7.62,7.62,0,0,1-2.15-2.74,26.63,26.63,0,0,1,2.5,2.36A28.2,28.2,0,0,1,86.9,272.94Z" style="fill:#fafafa"></path><path d="M77.64,254.67A17.51,17.51,0,0,1,74,256.8a17.21,17.21,0,0,1-3.87,1.67,16.93,16.93,0,0,1,3.64-2.13A17.17,17.17,0,0,1,77.64,254.67Z" style="fill:#fafafa"></path><path d="M65.46,255.25a17.23,17.23,0,0,1-.58-5.95,8.94,8.94,0,0,1,.55,2.95A8.61,8.61,0,0,1,65.46,255.25Z" style="fill:#fafafa"></path><path d="M66.32,266a6.83,6.83,0,0,1-3.07-1.33,6.84,6.84,0,0,1-2.43-2.31,26.86,26.86,0,0,1,2.72,1.87A27,27,0,0,1,66.32,266Z" style="fill:#fafafa"></path><path d="M86.92,290.6a5.52,5.52,0,0,1-1.76-2.29,5.8,5.8,0,0,1-.89-2.76,13.65,13.65,0,0,1,1.35,2.51A14.64,14.64,0,0,1,86.92,290.6Z" style="fill:#fafafa"></path><path d="M99.92,287.53a13.18,13.18,0,0,1-2.28,2.92A13.63,13.63,0,0,1,95,293a13.43,13.43,0,0,1,2.29-2.92A13.75,13.75,0,0,1,99.92,287.53Z" style="fill:#fafafa"></path><path d="M109.18,282.7a9.55,9.55,0,0,1-2.68-1.6,9.58,9.58,0,0,1-2.38-2,9.86,9.86,0,0,1,2.69,1.61A9.74,9.74,0,0,1,109.18,282.7Z" style="fill:#fafafa"></path><path d="M79.1,281.23c-.14,0-2.19-9.25-4.58-20.72s-4.21-20.8-4.07-20.83,2.19,9.25,4.58,20.72S79.24,281.2,79.1,281.23Z" style="fill:#455a64"></path><path d="M57.54,264.84l-6,14.25a8.07,8.07,0,0,0,5.22,10.13h0a8.07,8.07,0,0,0,10.13-5.09l4.78-14.05Z" style="fill:#b78876"></path><path d="M62.45,276.54S81.93,294,91.22,308.12l-8.09,6.07c.18,0-30.93-28.26-30.93-28.26Z" style="fill:#b78876"></path><path d="M83.13,314.19c2.71,2.68,8.62,9,10.46,10.36,3.8,2.88,4.06,2.55,4.31,2.05.67-1.34-6.5-5.33-4.48-5.36s8.23,5.9,8.88,4.47c.84-1.86-6.75-5.9-7.36-6.29s-.1-1.29.44-.91c.78.55,9.06,6.1,9.91,4.28.46-1-1.43-1.71-1.43-1.71s-8.12-4.64-7.69-5.48,5.29,1.7,6.87,2.68,2.64.62,2.48-.43c-.11-.71-4.87-3.82-6.46-4.75s-6-3.41-2.85-3.94,5.3-2.13,5.59-3a1,1,0,0,0-1.6-1,11.45,11.45,0,0,1-3,1.13,7.3,7.3,0,0,1-2.55.23c-1-.08-5.38-1-6-1.56" style="fill:#b78876"></path><path d="M125.05,264.84l6,14.25a8.07,8.07,0,0,1-5.22,10.13h0a8.07,8.07,0,0,1-10.13-5.09l-4.78-14.05Z" style="fill:#b78876"></path><path d="M120.53,275.07a25.65,25.65,0,0,0-3.45,3.05,24.58,24.58,0,0,0-2.42,3.93,9.29,9.29,0,0,1,5.87-7Z" style="fill:#aa6550"></path><path d="M128.83,287.36l-8.69-10.82s-17.82,16.78-28.09,30.33h0c-.57,1-3.38,1.81-4.27,2.05a6.87,6.87,0,0,1-2.34.21,10.32,10.32,0,0,1-2.88-.54c-.81-.37-1.67.46-1.27,1.18s2.62,1.81,5.53,1.79-.65,2.92-1.93,4-5.07,4.68-5,5.34c0,1,1,1.11,2.3,0s5.23-4.24,5.76-3.54-6,6.2-6,6.2-1.59.95-1,1.78c1.07,1.51,7.63-4.86,8.24-5.48.43-.43,1,.31.55.75S83,326,84,327.49c.82,1.18,5.45-5.19,7.28-5.49s-4,4.48-3.17,5.57c.31.41.6.67,3.56-2.55,1.43-1.57,7.27-9.35,9.27-12.22h0Z" style="fill:#b78876"></path><path d="M95.34,316c0,.05-.35-.09-.74-.47a4.1,4.1,0,0,1-1.08-1.9l.38.16a5,5,0,0,1-.61.31,4,4,0,0,1-2.63.11c-.65-.2-1-.49-.94-.54s.41.09,1,.19a4.72,4.72,0,0,0,2.36-.25,4.49,4.49,0,0,0,.54-.26l.31-.16.07.32A7.93,7.93,0,0,0,95.34,316Z" style="fill:#aa6550"></path><path d="M101.13,312.67l-.16.24-.5.69c-.41.63-1,1.53-1.89,2.68s-1.88,2.54-3.11,4.15-2.59,3.45-4.34,5.33c-.43.47-.88.94-1.38,1.4a6.9,6.9,0,0,1-.82.65,1.09,1.09,0,0,1-.59.2.53.53,0,0,1-.35-.17,1,1,0,0,1-.2-.27,1.5,1.5,0,0,1,.27-1.17,8,8,0,0,1,.62-.9c.45-.58.93-1.14,1.42-1.7.24-.28.49-.57.72-.86s.23-.3.33-.45a2.52,2.52,0,0,0,.17-.33s.05.06.05,0,0,0-.07,0l-.22.05a2.69,2.69,0,0,0-.48.24,7.36,7.36,0,0,0-.91.7c-1.19,1-2.29,2.25-3.53,3.41a10.1,10.1,0,0,1-1,.83,2.7,2.7,0,0,1-.6.35.79.79,0,0,1-.42.08.55.55,0,0,1-.45-.26,1,1,0,0,1-.13-.8,2.2,2.2,0,0,1,.24-.68,6.72,6.72,0,0,1,.75-1.13,29.76,29.76,0,0,1,3.88-3.81l.52-.44a5.67,5.67,0,0,0,.45-.4.26.26,0,0,0-.06-.32c-.1-.06-.09-.09-.25.06-.66.66-1.35,1.3-2.06,1.93a24.59,24.59,0,0,1-4.65,3.47,3.09,3.09,0,0,1-1,.34,1.07,1.07,0,0,1-.65-.16,1,1,0,0,1-.34-.6A1.41,1.41,0,0,1,80.8,324a4.07,4.07,0,0,1,.8-.65l0,0c1.25-1.06,2.48-2.13,3.64-3.23.58-.55,1.15-1.1,1.66-1.68a5.1,5.1,0,0,0,.66-.89c0-.05,0-.15,0-.05s0,0,0,0a1.62,1.62,0,0,0-.47.12,19.91,19.91,0,0,0-3.75,2.5c-.6.45-1.09,1-1.75,1.42a2.15,2.15,0,0,1-1.16.39,1,1,0,0,1-.66-.27,1,1,0,0,1-.27-.64.79.79,0,0,1,.07-.38,1.61,1.61,0,0,1,.15-.26l.33-.45c.23-.29.48-.55.72-.81.48-.52,1-1,1.47-1.5,1-.95,2-1.87,3-2.71.49-.42,1-.85,1.4-1.29a4.13,4.13,0,0,0,1-1.41c.15-.45-.61-.48-1.16-.47a10.19,10.19,0,0,1-1.76-.17,7.9,7.9,0,0,1-3.12-1.17,1.78,1.78,0,0,1-.57-.64,1,1,0,0,1,.06-.87,1.14,1.14,0,0,1,1.48-.44,9.91,9.91,0,0,0,2.58.51,7,7,0,0,0,2.31-.11,13.91,13.91,0,0,0,3.44-1.25,4.63,4.63,0,0,0,1.64-1.38l.07,0-.48.46c-.1.1-.14.13-.15.13a.67.67,0,0,1,.12-.15l.45-.5.26-.28-.2.33a4.45,4.45,0,0,1-1.63,1.48,13.49,13.49,0,0,1-3.47,1.35,6.93,6.93,0,0,1-2.39.15,10.06,10.06,0,0,1-2.68-.5.81.81,0,0,0-1.06.32c-.23.37,0,.78.43,1.05a7.65,7.65,0,0,0,3,1.09,10.54,10.54,0,0,0,1.7.14,4.48,4.48,0,0,1,.94.07,1,1,0,0,1,.49.28.67.67,0,0,1,.13.6,4.13,4.13,0,0,1-1.1,1.62c-.44.47-.92.9-1.41,1.33-1,.84-2,1.75-2.94,2.71-.49.48-1,1-1.45,1.49-.24.25-.47.51-.69.79a3.91,3.91,0,0,0-.3.41,1.32,1.32,0,0,0-.12.2s0,0,0,.14a.45.45,0,0,0,.46.47,1.76,1.76,0,0,0,.89-.32c.56-.37,1.11-.95,1.7-1.39a20.41,20.41,0,0,1,3.87-2.59,1.89,1.89,0,0,1,.67-.15.52.52,0,0,1,.46.25.56.56,0,0,1,0,.51,5,5,0,0,1-.73,1c-.54.6-1.11,1.16-1.7,1.72-1.17,1.1-2.4,2.18-3.66,3.25h0c-.46.29-1,.8-1,1.22s.73.31,1.29,0a24.91,24.91,0,0,0,4.54-3.38c.7-.63,1.38-1.27,2-1.91a.71.71,0,0,1,.44-.25.65.65,0,0,1,.52.17.77.77,0,0,1,.15,1,1.81,1.81,0,0,1-.29.31l-.27.22-.52.44A31.37,31.37,0,0,0,85,325.3a7.67,7.67,0,0,0-.7,1.05c-.19.35-.3.77-.15,1s.49,0,.79-.29a11.69,11.69,0,0,0,1-.79c1.22-1.14,2.33-2.35,3.55-3.41a8.78,8.78,0,0,1,1-.73,2.75,2.75,0,0,1,.57-.28,1.28,1.28,0,0,1,.35-.07.53.53,0,0,1,.21,0,.35.35,0,0,1,.26.23.6.6,0,0,1-.07.44c-.05.11-.11.19-.16.28s-.24.32-.36.47c-.24.3-.49.59-.73.87-.5.56-1,1.11-1.42,1.67a7.85,7.85,0,0,0-.6.86c-.17.27-.32.63-.25.8a.92.92,0,0,0,.11.15s.06.05.1.05a.75.75,0,0,0,.36-.14,5.26,5.26,0,0,0,.76-.6c.49-.44.94-.9,1.38-1.36,1.73-1.84,3.11-3.69,4.37-5.26l3.18-4.09,2-2.62.54-.66C101.05,312.73,101.12,312.66,101.13,312.67Z" style="fill:#aa6550"></path></g><g id="freepik--Plant--inject-40"><rect x="387.09" y="418.88" width="63.29" height="8.7" style="fill:#263238"></rect><path d="M450.49,427.69H387v-8.91h63.51Zm-63.29-.22h63.07V419H387.2Z" style="fill:#263238"></path><polygon points="392.96 424.69 402.07 469.63 435.78 469.63 444.58 427.58 392.96 424.69" style="fill:#263238"></polygon><polygon points="392.96 465.38 397.82 472.06 438.79 472.06 444.58 465.38 392.96 465.38" style="fill:#455a64"></polygon><path d="M416.36,426c-.13,0-.29-20.82-.36-46.5s0-46.51.1-46.51.28,20.82.35,46.5S416.48,426,416.36,426Z" style="fill:#263238"></path><path d="M430.46,373.89a3,3,0,0,1-.17.48l-.57,1.35c-.12.3-.26.62-.41,1l-.42,1.18c-.15.43-.32.88-.49,1.36s-.3,1-.47,1.55a62.8,62.8,0,0,0-1.77,7.75,96.07,96.07,0,0,0-1,9.69,131.58,131.58,0,0,0,.5,17.7c.21,2.26.41,4.09.56,5.35.07.59.12,1.07.16,1.45a3.24,3.24,0,0,1,0,.51,1.79,1.79,0,0,1-.12-.5q-.09-.56-.24-1.44c-.21-1.25-.46-3.08-.7-5.34a116.25,116.25,0,0,1-.64-17.75,91.17,91.17,0,0,1,1-9.74,58.64,58.64,0,0,1,1.88-7.78c.17-.54.32-1.06.5-1.54s.36-.93.52-1.35.32-.81.46-1.18.32-.67.45-1l.65-1.31A1.84,1.84,0,0,1,430.46,373.89Z" style="fill:#263238"></path><path d="M428.84,357.05a6.11,6.11,0,0,1-.2.69c-.17.48-.38,1.12-.66,1.93-.15.43-.31.89-.48,1.4l-.51,1.68c-.37,1.2-.8,2.57-1.18,4.11-.21.77-.42,1.57-.64,2.41s-.39,1.72-.59,2.63c-.44,1.82-.76,3.78-1.17,5.84-.7,4.14-1.31,8.71-1.74,13.53s-.57,9.44-.63,13.64,0,8,.21,11.14c.06,1.59.16,3,.24,4.28s.15,2.34.23,3.22.12,1.54.16,2a3.57,3.57,0,0,1,0,.72,4,4,0,0,1-.11-.71l-.24-2c-.11-.88-.22-2-.31-3.22s-.23-2.69-.31-4.28c-.21-3.18-.3-7-.31-11.17s.2-8.83.6-13.67,1.06-9.42,1.78-13.56c.42-2.06.75-4,1.21-5.85.22-.91.42-1.79.62-2.63s.46-1.64.67-2.41c.4-1.54.85-2.91,1.25-4.11.19-.6.37-1.15.54-1.67s.37-1,.52-1.39c.31-.8.56-1.43.74-1.91A5.3,5.3,0,0,1,428.84,357.05Z" style="fill:#263238"></path><path d="M412.36,429.68a.92.92,0,0,1,0-.24c0-.19,0-.42-.06-.72,0-.66-.11-1.58-.19-2.75-.15-2.43-.36-5.89-.63-10.15-.55-8.56-1.34-20.39-2.79-33.4-.73-6.5-1.59-12.68-2.47-18.28-.48-2.79-.9-5.46-1.39-7.93s-.92-4.78-1.37-6.88-.87-4-1.25-5.65-.72-3.09-1-4.25-.49-2-.65-2.68c-.07-.29-.12-.52-.16-.7a.66.66,0,0,1,0-.25l.08.23.2.69c.18.64.43,1.54.74,2.67s.71,2.57,1.1,4.23.88,3.54,1.32,5.64,1,4.4,1.42,6.88.94,5.14,1.43,7.93c.91,5.61,1.78,11.79,2.51,18.3,1.44,13,2.19,24.86,2.66,33.43.23,4.29.39,7.76.49,10.16,0,1.17.08,2.09.1,2.76,0,.29,0,.53,0,.72A2.17,2.17,0,0,1,412.36,429.68Z" style="fill:#263238"></path><path d="M415.84,343c-.27-2.95-3.25-5.18-6.22-5.21a9.79,9.79,0,0,0-7.53,4.09,23.72,23.72,0,0,0-3.63,8.06,54.48,54.48,0,0,0-2.23,21.43c.85,7.18,3.76,14.25,8.92,19.32.83.82,1.92,1.65,3.07,1.4a3.68,3.68,0,0,0,1.62-1,48,48,0,0,0,15.56-36.47c-.08-2.73-.43-5.57-1.95-7.85s-5-4.69-7.61-3.77" style="fill:#FF725E"></path><path d="M393.72,319.37l-4.17,7.56c-.1.17-.23.37-.43.39s-.38-.19-.5-.38q-5.52-8.46-11-16.93l2.54-1.44Z" style="fill:#FF725E"></path><g style="opacity:0.2"><path d="M393.72,319.37l-4.17,7.56c-.1.17-.23.37-.43.39s-.38-.19-.5-.38q-5.52-8.46-11-16.93l2.54-1.44Z"></path></g><path d="M416.1,333l-37.63-22.21a1.73,1.73,0,0,1-.92-.92c-.15-.56.27-1.1.67-1.51a25.91,25.91,0,0,1,20.11-7.9,23,23,0,0,1,18.18,11.31c3.63,6.49,3.75,15.07-.41,21.23" style="fill:#FF725E"></path><path d="M383.89,303.69l.49-.06c.33,0,.81-.07,1.42-.07A28,28,0,0,1,391,304a30.51,30.51,0,0,1,24.35,22,29.06,29.06,0,0,1,.94,5.15,10.56,10.56,0,0,1,.05,1.1,1.78,1.78,0,0,1-.29.82,6.29,6.29,0,0,0,.06-1.9,31.29,31.29,0,0,0-30.34-27.45C384.57,303.71,383.89,303.73,383.89,303.69Z" style="fill:#263238"></path><path d="M411,317.66a8.81,8.81,0,0,1-1.9.87c-1.2.47-2.87,1.07-4.75,1.67s-3.59,1.07-4.84,1.37a8.7,8.7,0,0,1-2.05.39,10.73,10.73,0,0,1,2-.7l4.8-1.49,4.77-1.55A10.52,10.52,0,0,1,411,317.66Z" style="fill:#263238"></path><path d="M405.08,301.74a15.83,15.83,0,0,1,.44,4.2,16.22,16.22,0,0,1-.23,4.22,25.93,25.93,0,0,1-.22-4.21A26.56,26.56,0,0,1,405.08,301.74Z" style="fill:#263238"></path><path d="M378.14,310.36a16.83,16.83,0,0,1,2.73-1c1.71-.53,4.09-1.2,6.75-1.84s5.08-1.13,6.84-1.43a16.83,16.83,0,0,1,2.87-.39,21.46,21.46,0,0,1-2.81.7c-1.74.39-4.15.93-6.8,1.56s-5,1.26-6.76,1.71A21.34,21.34,0,0,1,378.14,310.36Z" style="fill:#263238"></path><path d="M400.22,336.6c-3.23-2.46-6.65-2.94-10.71-2.78a32.72,32.72,0,0,0-11.73,3c-6.35,2.78-12.31,6.87-16.1,12.67s-5.12,13.47-2.28,19.79a2.83,2.83,0,0,0,1.29,1.56,3.07,3.07,0,0,0,2.12-.16c7.22-2.36,14.49-4.73,21.12-8.42s12.68-8.81,16.24-15.51a13.46,13.46,0,0,0,1.71-5.15,6.37,6.37,0,0,0-1.66-5" style="fill:#FF725E"></path><path d="M400.29,335.84a5,5,0,0,1-.52.21l-1.51.52-1.1.36c-.4.14-.82.32-1.28.5-.91.37-2,.74-3.09,1.28l-1.77.81c-.61.28-1.22.63-1.87,1-1.31.64-2.63,1.46-4,2.29a63.68,63.68,0,0,0-15.92,14c-1,1.29-2,2.5-2.8,3.72-.41.6-.83,1.16-1.19,1.73l-1,1.66c-.68,1-1.18,2-1.67,2.9-.23.43-.46.83-.65,1.2s-.35.73-.51,1l-.7,1.44a4.15,4.15,0,0,1-.28.49,2.73,2.73,0,0,1,.19-.53c.17-.38.38-.87.64-1.47.14-.32.29-.68.46-1.06s.4-.79.63-1.23c.46-.87.95-1.89,1.61-2.95l1-1.67c.35-.58.77-1.16,1.18-1.77.79-1.23,1.77-2.45,2.77-3.76a68.83,68.83,0,0,1,7.4-7.75,67.08,67.08,0,0,1,8.63-6.35c1.42-.83,2.76-1.64,4.09-2.27.65-.33,1.27-.67,1.89-.95l1.8-.78c1.13-.53,2.2-.88,3.12-1.23.47-.16.9-.33,1.3-.46l1.11-.33,1.54-.44A1.9,1.9,0,0,1,400.29,335.84Z" style="fill:#263238"></path><path d="M375,349.53a76.06,76.06,0,0,1-7.87,2.53,76.74,76.74,0,0,1-8,2.11,75.53,75.53,0,0,1,7.87-2.54A76.48,76.48,0,0,1,375,349.53Z" style="fill:#263238"></path><path d="M374.68,366.9a12.78,12.78,0,0,1-.17-2.45c-.05-1.52-.05-3.62,0-5.93s.19-4.41.32-5.92a12.21,12.21,0,0,1,.31-2.44,15,15,0,0,1,0,2.46c-.06,1.66-.12,3.68-.19,5.91s-.1,4.25-.14,5.92A15.51,15.51,0,0,1,374.68,366.9Z" style="fill:#263238"></path><path d="M389.56,359.32c-.12,0-.52-4.25-.88-9.52s-.56-9.53-.44-9.54.52,4.25.89,9.51S389.69,359.31,389.56,359.32Z" style="fill:#263238"></path><path d="M371,339.85a12.9,12.9,0,0,1,2.52-.08c1.56,0,3.7.06,6.08.13s4.51.18,6.07.27a14.24,14.24,0,0,1,2.51.24,12.9,12.9,0,0,1-2.52.08c-1.56,0-3.71-.06-6.08-.14s-4.52-.17-6.07-.26A13.91,13.91,0,0,1,371,339.85Z" style="fill:#263238"></path><path d="M406.76,391.68a2,2,0,0,1-.05-.5c0-.38,0-.86-.07-1.45-.06-1.26-.07-3.08,0-5.33s.19-4.93.46-7.89.72-6.22,1.33-9.6,1.37-6.58,2.14-9.46,1.59-5.44,2.35-7.56,1.4-3.84,1.9-5l.57-1.33a1.71,1.71,0,0,1,.23-.46,2.54,2.54,0,0,1-.15.49L415,345c-.45,1.18-1,2.9-1.76,5s-1.48,4.7-2.25,7.57-1.48,6.06-2.1,9.43-1,6.6-1.35,9.55-.48,5.63-.56,7.87-.13,4.06-.13,5.32c0,.59,0,1.06,0,1.44A2.6,2.6,0,0,1,406.76,391.68Z" style="fill:#263238"></path><path d="M408.74,367a9.56,9.56,0,0,1-1.5,1.65c-1,1-2.35,2.27-3.93,3.66s-3.05,2.58-4.14,3.42a9.86,9.86,0,0,1-1.83,1.27,11.38,11.38,0,0,1,1.63-1.52l4-3.51,4-3.55A11.88,11.88,0,0,1,408.74,367Z" style="fill:#263238"></path><path d="M420.66,376.64a17,17,0,0,1-1.6-2.22c-1-1.5-2.31-3.36-3.72-5.43l-3.8-5.37a18.29,18.29,0,0,1-1.52-2.27,15,15,0,0,1,1.78,2.08c1,1.33,2.44,3.19,3.91,5.31s2.73,4.07,3.61,5.51A14.62,14.62,0,0,1,420.66,376.64Z" style="fill:#263238"></path><path d="M414.42,346.46c.06.11-3.89,2.77-8.84,6s-9,5.67-9.08,5.57,3.89-2.77,8.84-6S414.35,346.36,414.42,346.46Z" style="fill:#263238"></path><path d="M425.57,358.5a76.54,76.54,0,0,1-6-5.53,72.24,72.24,0,0,1-5.67-5.85,76.54,76.54,0,0,1,6,5.53A72.24,72.24,0,0,1,425.57,358.5Z" style="fill:#263238"></path><path d="M428.38,358.26l3.39-.28a16.69,16.69,0,0,0,6.86-2.1,28.16,28.16,0,0,1,3.2-1.61c4.2-1.68,8.89-1.38,13.4-1.61a55.47,55.47,0,0,0,21.33-5.45,2.16,2.16,0,0,0,.93-.84c.7-1.27-.6-2.41-1.72-3.09-5.72-3.53-11.54-7.1-18-8.85s-13.86-1.45-19.4,2.36c-6.5,4.47-8.86,13.66-10,21.47" style="fill:#FF725E"></path><path d="M477.56,346a4.46,4.46,0,0,1-.57-.27l-1.61-.84c-1.4-.74-3.41-1.82-5.95-3a55.81,55.81,0,0,0-9.2-3.54,30.13,30.13,0,0,0-11.93-1A20.42,20.42,0,0,0,437.42,342a24.31,24.31,0,0,0-5.66,8,65.41,65.41,0,0,0-2.46,6.2c-.26.71-.46,1.28-.61,1.71a2.92,2.92,0,0,1-.24.59,4.2,4.2,0,0,1,.15-.62c.14-.44.31-1,.53-1.74a54.49,54.49,0,0,1,2.34-6.27,23.94,23.94,0,0,1,5.68-8.13,20.61,20.61,0,0,1,11.09-4.81,30.52,30.52,0,0,1,12.1,1,53.53,53.53,0,0,1,9.23,3.67c2.53,1.26,4.52,2.38,5.89,3.16l1.57.92A3.52,3.52,0,0,1,477.56,346Z" style="fill:#263238"></path><path d="M469.41,350.33c-.07.11-4.52-2.77-9.92-6.42s-9.74-6.68-9.67-6.79,4.51,2.77,9.92,6.42S469.48,350.23,469.41,350.33Z" style="fill:#263238"></path><path d="M464.67,336.89a11,11,0,0,1-3.24.58,11.06,11.06,0,0,1-3.29,0,20.3,20.3,0,0,1,3.26-.34A21.12,21.12,0,0,1,464.67,336.89Z" style="fill:#263238"></path><path d="M445.22,334.35a8.35,8.35,0,0,1-1.46,2.28,9.64,9.64,0,0,1-1.84,2.1,8.35,8.35,0,0,1,1.46-2.28A9.64,9.64,0,0,1,445.22,334.35Z" style="fill:#263238"></path><path d="M449.2,353a12,12,0,0,1-2.14-1.16c-1.28-.78-3-1.92-4.87-3.27s-3.48-2.61-4.66-3.54a13.21,13.21,0,0,1-1.84-1.59,13.17,13.17,0,0,1,2,1.33l4.74,3.44c1.85,1.34,3.54,2.52,4.78,3.36A14,14,0,0,1,449.2,353Z" style="fill:#263238"></path><path d="M433.38,372.69c-3.24-.85-7.1,2.3-7.77,5.58s.56,6.64,2,9.67A49.41,49.41,0,0,0,441,405.47,33.14,33.14,0,0,0,461.5,413c-1.37-6.36.36-13-.4-19.47a25.34,25.34,0,0,0-22.43-22.21c-2.07-.22-4.47-.55-5.29,1.36" style="fill:#FF725E"></path><path d="M461.5,413a2.06,2.06,0,0,1-.46-.22,7.83,7.83,0,0,1-1.22-.81,12.61,12.61,0,0,1-3.19-4.28c-.52-1-1.1-2.09-1.66-3.3s-1.13-2.49-1.74-3.85a37,37,0,0,0-2.15-4.12,33.65,33.65,0,0,0-2.94-4c-2.22-2.6-4.6-4.86-6.67-7a45.76,45.76,0,0,1-5.07-6.09,22.48,22.48,0,0,1-2.49-4.74c-.2-.6-.35-1.07-.43-1.39a1.81,1.81,0,0,1-.1-.5s.22.66.7,1.82a24.15,24.15,0,0,0,2.58,4.63,48.22,48.22,0,0,0,5.11,6c2.07,2.13,4.47,4.38,6.71,7a32.76,32.76,0,0,1,3,4.07,37.63,37.63,0,0,1,2.14,4.18l1.71,3.87c.54,1.2,1.1,2.3,1.6,3.31a13.19,13.19,0,0,0,3,4.29C460.88,412.66,461.52,413,461.5,413Z" style="fill:#263238"></path><path d="M444.74,407.72a10.89,10.89,0,0,1,.3-2.18c.26-1.33.67-3.17,1.23-5.16s1.17-3.78,1.65-5.05a10.25,10.25,0,0,1,.88-2,12,12,0,0,1-.58,2.12c-.4,1.29-1,3.08-1.51,5.06s-1,3.8-1.36,5.11A10.91,10.91,0,0,1,444.74,407.72Z" style="fill:#263238"></path><path d="M460.88,392.11a13.54,13.54,0,0,1-2.28-.53c-1.39-.36-3.32-.86-5.47-1.35s-4.1-.85-5.52-1.12a12.55,12.55,0,0,1-2.28-.51,10.87,10.87,0,0,1,2.34.19c1.43.19,3.41.52,5.56,1s4.08,1,5.46,1.48A10.54,10.54,0,0,1,460.88,392.11Z" style="fill:#263238"></path><path d="M432.72,396.64a13.6,13.6,0,0,1,.35-2.52c.29-1.55.74-3.67,1.35-6s1.25-4.4,1.76-5.89a13.8,13.8,0,0,1,.92-2.37,15.17,15.17,0,0,1-.62,2.47c-.43,1.51-1,3.59-1.63,5.91s-1.1,4.42-1.47,5.94A14.36,14.36,0,0,1,432.72,396.64Z" style="fill:#263238"></path><path d="M453.45,378.5c0,.12-4.06-.21-9-.73s-9-1.06-9-1.18a88,88,0,0,1,9,.73A90,90,0,0,1,453.45,378.5Z" style="fill:#263238"></path><path d="M450.49,427.54c0,.13-14.22.23-31.75.23s-31.76-.1-31.76-.23,14.22-.22,31.76-.22S450.49,427.42,450.49,427.54Z" style="fill:#455a64"></path><path d="M440.6,445.84c0,.12-9.58.23-21.4.23s-21.39-.11-21.39-.23,9.58-.23,21.39-.23S440.6,445.72,440.6,445.84Z" style="fill:#455a64"></path><path d="M440.23,448.46c0,.12-9.42.22-21,.22s-21-.1-21-.22,9.41-.23,21-.23S440.23,448.33,440.23,448.46Z" style="fill:#455a64"></path><path d="M441,443.68c0,.13-9.91.23-22.13.23s-22.13-.1-22.13-.23,9.91-.22,22.13-.22S441,443.56,441,443.68Z" style="fill:#455a64"></path></g><g id="freepik--Picture--inject-40"><path d="M264.32,328.67l0,.05v-.05H225.91s-1.48,5.84-6.81,5.84c0,0,6.81,1,6.81,5.84h38.38v0l0,0c0-4.81,6.81-5.84,6.81-5.84C265.8,334.51,264.32,328.67,264.32,328.67Z" style="fill:#263238"></path><rect x="228.61" y="330.3" width="33.02" height="8.42" style="fill:#455a64"></rect><path d="M257.19,334.09c0,.15-5.41.26-12.07.26s-12.08-.11-12.08-.26,5.41-.26,12.08-.26S257.19,334,257.19,334.09Z" style="fill:#fafafa"></path><path d="M251.26,336.49a37,37,0,0,1-6.14.26,37,37,0,0,1-6.15-.26,35.77,35.77,0,0,1,6.15-.26A35.7,35.7,0,0,1,251.26,336.49Z" style="fill:#fafafa"></path><rect x="167.03" y="111.77" width="158.74" height="205.85" style="fill:#FF725E"></rect><g style="opacity:0.2"><path d="M177.86,268a1.35,1.35,0,0,1,.79.12,2.55,2.55,0,0,1,1.38,1.8,2.33,2.33,0,0,1-.22,1.67,2.89,2.89,0,0,1-1.53,1.31,3,3,0,0,1-2.31-.07,4,4,0,0,1-1.82-1.85,5.9,5.9,0,0,1,.61-5.7,6.08,6.08,0,0,1,2.43-2.25,3.66,3.66,0,0,1,1.74-.37,3.43,3.43,0,0,1,1.74.57,6.12,6.12,0,0,1,2.19,3,12.63,12.63,0,0,1,.76,3.74,13.89,13.89,0,0,1-1.83,7.7A48.72,48.72,0,0,1,177,284a18.85,18.85,0,0,0-3.6,6.24,8.73,8.73,0,0,0,.41,6.3,5,5,0,0,0,4.5,2.76,4,4,0,0,0,2.26-.72,3.14,3.14,0,0,0,1.21-1.72,4.23,4.23,0,0,0-.61-3.34,2.84,2.84,0,0,0-1.74-1.27,1.94,1.94,0,0,0-.58-.06h-.2l.2,0a2,2,0,0,1,.6,0,2.85,2.85,0,0,1,1.88,1.27,4.38,4.38,0,0,1,.73,3.52,3.47,3.47,0,0,1-1.29,1.92,4.44,4.44,0,0,1-2.46.82,5.48,5.48,0,0,1-2.76-.7,5.26,5.26,0,0,1-2.12-2.23,9.08,9.08,0,0,1-.49-6.64,19,19,0,0,1,3.66-6.42,49.4,49.4,0,0,0,4.7-6.26,13.32,13.32,0,0,0,1.77-7.41,12.44,12.44,0,0,0-.71-3.59,5.65,5.65,0,0,0-2-2.74,3,3,0,0,0-3-.18,6.09,6.09,0,0,0-2.9,7.37,3.66,3.66,0,0,0,1.63,1.71,2.67,2.67,0,0,0,2.07.1,2.61,2.61,0,0,0,1.41-1.16,2.16,2.16,0,0,0,.24-1.51,2.45,2.45,0,0,0-1.23-1.74A3.94,3.94,0,0,0,177.86,268Z"></path></g><g style="opacity:0.2"><path d="M179.25,249.27a1.26,1.26,0,0,1-.79-.12,2.51,2.51,0,0,1-1.38-1.79,2.36,2.36,0,0,1,.22-1.68,2.84,2.84,0,0,1,1.53-1.3,2.91,2.91,0,0,1,2.31.07A4,4,0,0,1,183,246.3a5.88,5.88,0,0,1-.61,5.7,6,6,0,0,1-2.42,2.24,3.69,3.69,0,0,1-1.74.38,3.43,3.43,0,0,1-1.75-.57,6.23,6.23,0,0,1-2.19-3,12.62,12.62,0,0,1-.75-3.73,13.88,13.88,0,0,1,1.82-7.7,49.58,49.58,0,0,1,4.76-6.33,18.51,18.51,0,0,0,3.59-6.23,8.68,8.68,0,0,0-.4-6.3,5,5,0,0,0-4.5-2.76,4.1,4.1,0,0,0-2.27.71,3.19,3.19,0,0,0-1.2,1.73,4.2,4.2,0,0,0,.61,3.33,2.77,2.77,0,0,0,1.74,1.28,1.84,1.84,0,0,0,.58,0c.13,0,.2,0,.2,0l-.2,0a1.74,1.74,0,0,1-.6,0,2.86,2.86,0,0,1-1.89-1.26,4.41,4.41,0,0,1-.72-3.53,3.38,3.38,0,0,1,1.29-1.91,4.33,4.33,0,0,1,2.45-.82,5.43,5.43,0,0,1,2.76.7,5.28,5.28,0,0,1,2.13,2.23,9.11,9.11,0,0,1,.48,6.63,18.75,18.75,0,0,1-3.66,6.42,50.18,50.18,0,0,0-4.69,6.27,13.32,13.32,0,0,0-1.77,7.41,12.11,12.11,0,0,0,.71,3.58,5.72,5.72,0,0,0,2,2.75,3,3,0,0,0,3,.18,5.63,5.63,0,0,0,2.26-2.06,5.52,5.52,0,0,0,.64-5.31,3.53,3.53,0,0,0-1.63-1.71,2.71,2.71,0,0,0-3.47,1.05,2.2,2.2,0,0,0-.25,1.52,2.45,2.45,0,0,0,1.23,1.74A2.67,2.67,0,0,0,179.25,249.27Z"></path></g><circle cx="178.55" cy="258.27" r="1.61" style="opacity:0.2"></circle><circle cx="179.25" cy="215.26" r="1.61" style="opacity:0.2"></circle><g style="opacity:0.2"><path d="M178.56,162.35a2.67,2.67,0,0,0,.75-.21,2.48,2.48,0,0,0,1.23-1.75,2.2,2.2,0,0,0-.25-1.52,2.6,2.6,0,0,0-1.41-1.15,2.63,2.63,0,0,0-2.07.1,3.58,3.58,0,0,0-1.62,1.72,6.09,6.09,0,0,0,2.9,7.38,3,3,0,0,0,3-.19,5.67,5.67,0,0,0,2-2.75,12.18,12.18,0,0,0,.71-3.59A13.38,13.38,0,0,0,182,153a50.29,50.29,0,0,0-4.69-6.28,19,19,0,0,1-3.66-6.43,9.16,9.16,0,0,1,.48-6.65,5.22,5.22,0,0,1,2.12-2.24,5.33,5.33,0,0,1,2.76-.7,4.27,4.27,0,0,1,2.46.82,3.37,3.37,0,0,1,1.29,1.92,4.41,4.41,0,0,1-.72,3.53,2.86,2.86,0,0,1-1.89,1.27,1.68,1.68,0,0,1-.6,0c-.14,0-.2,0-.2,0h.2a1.91,1.91,0,0,0,.58-.06,2.77,2.77,0,0,0,1.74-1.28,4.23,4.23,0,0,0,.61-3.34,3.19,3.19,0,0,0-1.2-1.73A4.06,4.06,0,0,0,179,131a5,5,0,0,0-4.49,2.78,8.74,8.74,0,0,0-.4,6.32,18.65,18.65,0,0,0,3.59,6.24,49.82,49.82,0,0,1,4.76,6.35,13.89,13.89,0,0,1,1.82,7.71,12.69,12.69,0,0,1-.75,3.74,6.17,6.17,0,0,1-2.19,3,3.43,3.43,0,0,1-1.74.57,3.63,3.63,0,0,1-1.74-.37,6,6,0,0,1-2.43-2.25,5.93,5.93,0,0,1-.62-5.71,3.92,3.92,0,0,1,1.82-1.86,3,3,0,0,1,2.31-.08,2.89,2.89,0,0,1,1.53,1.31,2.36,2.36,0,0,1,.22,1.68,2.48,2.48,0,0,1-1.38,1.8A1.26,1.26,0,0,1,178.56,162.35Z"></path></g><g style="opacity:0.2"><path d="M179,181.13a3.94,3.94,0,0,0-.74.22,2.45,2.45,0,0,0-1.23,1.75,2.17,2.17,0,0,0,.24,1.51,2.71,2.71,0,0,0,3.48,1.06,3.6,3.6,0,0,0,1.63-1.72,5.52,5.52,0,0,0-.65-5.32,5.59,5.59,0,0,0-2.26-2.07,3,3,0,0,0-3,.19,5.75,5.75,0,0,0-2,2.76,12.44,12.44,0,0,0-.71,3.59,13.55,13.55,0,0,0,1.77,7.43,51.1,51.1,0,0,0,4.7,6.28,19,19,0,0,1,3.66,6.43,9.16,9.16,0,0,1-.48,6.65,5.3,5.3,0,0,1-2.13,2.24,5.43,5.43,0,0,1-2.76.7,4.39,4.39,0,0,1-2.46-.82,3.47,3.47,0,0,1-1.29-1.92,4.41,4.41,0,0,1,.73-3.53,2.85,2.85,0,0,1,1.88-1.27,1.79,1.79,0,0,1,.61,0l.2,0a.58.58,0,0,1-.21,0,1.86,1.86,0,0,0-.58,0,2.86,2.86,0,0,0-1.74,1.28,4.21,4.21,0,0,0-.6,3.35,3.07,3.07,0,0,0,1.2,1.72,4,4,0,0,0,2.27.72,5,5,0,0,0,4.5-2.77,8.79,8.79,0,0,0,.4-6.32,19,19,0,0,0-3.6-6.25,49,49,0,0,1-4.75-6.34,13.9,13.9,0,0,1-1.83-7.71,13,13,0,0,1,.76-3.74,6.17,6.17,0,0,1,2.18-3,3.54,3.54,0,0,1,1.75-.58,3.82,3.82,0,0,1,1.74.38,6.08,6.08,0,0,1,2.43,2.25,5.92,5.92,0,0,1,.61,5.71,3.94,3.94,0,0,1-1.81,1.86,2.93,2.93,0,0,1-2.32.07,2.8,2.8,0,0,1-1.52-1.31,2.39,2.39,0,0,1-.23-1.67,2.57,2.57,0,0,1,1.38-1.81A1.35,1.35,0,0,1,179,181.13Z"></path></g><ellipse cx="179.25" cy="172.11" rx="1.61" ry="1.62" style="opacity:0.2"></ellipse><g style="opacity:0.2"><path d="M313.84,162.22s-.07,0-.21,0a1.51,1.51,0,0,1-.57-.17,2.61,2.61,0,0,1-1.23-1.89,2.67,2.67,0,0,1,.21-1.66,2.71,2.71,0,0,1,1.45-1.37,2.44,2.44,0,0,1,2.27.21,4,4,0,0,1,1.57,2,6.8,6.8,0,0,1-.68,5.69,5.69,5.69,0,0,1-2.31,2.33,3,3,0,0,1-1.75.3,3.11,3.11,0,0,1-1.64-.81,7,7,0,0,1-1.82-3.16,14.82,14.82,0,0,1-.59-3.72,15.74,15.74,0,0,1,1.65-7.68,49.43,49.43,0,0,1,4.33-6.54,20.19,20.19,0,0,0,3.29-6.35,10.37,10.37,0,0,0-.18-6.33,5.24,5.24,0,0,0-1.65-2.31,4.16,4.16,0,0,0-2.43-.88,3.24,3.24,0,0,0-3.32,2.49,4.88,4.88,0,0,0,.48,3.37,2.7,2.7,0,0,0,1.6,1.42l.32.07h.25c.13,0,.2,0,.2,0a.69.69,0,0,1-.2,0l-.25,0-.35-.05a2.71,2.71,0,0,1-1.74-1.42,5,5,0,0,1-.59-3.54,3.62,3.62,0,0,1,1.18-2,3.71,3.71,0,0,1,2.43-.83,4.51,4.51,0,0,1,2.67.93A5.71,5.71,0,0,1,318,133a10.74,10.74,0,0,1,.24,6.61,20.73,20.73,0,0,1-3.33,6.53,48.66,48.66,0,0,0-4.28,6.47,15.19,15.19,0,0,0-1.61,7.43,14.7,14.7,0,0,0,.55,3.6,6.68,6.68,0,0,0,1.67,3,2.67,2.67,0,0,0,1.39.7,2.54,2.54,0,0,0,1.48-.25,5.31,5.31,0,0,0,2.14-2.14,6.49,6.49,0,0,0,.71-5.34,3.77,3.77,0,0,0-1.4-1.88,2.13,2.13,0,0,0-2-.22,2.47,2.47,0,0,0-1.34,1.21,2.52,2.52,0,0,0-.23,1.52,2.56,2.56,0,0,0,1.08,1.83A2.09,2.09,0,0,0,313.84,162.22Z"></path></g><g style="opacity:0.2"><path d="M312.92,181.12a1.35,1.35,0,0,1,.79.12,2.53,2.53,0,0,1,1.38,1.8,2.33,2.33,0,0,1-.22,1.67A3,3,0,0,1,311,186a3.94,3.94,0,0,1-1.82-1.85,5.9,5.9,0,0,1,.61-5.7,6.08,6.08,0,0,1,2.43-2.25,3.81,3.81,0,0,1,1.74-.37,3.43,3.43,0,0,1,1.74.57,6.12,6.12,0,0,1,2.19,3,12.63,12.63,0,0,1,.76,3.74,13.89,13.89,0,0,1-1.83,7.7,48.72,48.72,0,0,1-4.75,6.32,18.85,18.85,0,0,0-3.6,6.24,8.73,8.73,0,0,0,.41,6.3,5,5,0,0,0,4.5,2.76,4,4,0,0,0,2.26-.72,3.14,3.14,0,0,0,1.21-1.72,4.23,4.23,0,0,0-.61-3.34,2.84,2.84,0,0,0-1.74-1.27,2.34,2.34,0,0,0-.58-.06h-.2l.2,0a2,2,0,0,1,.6,0,2.92,2.92,0,0,1,1.89,1.27,4.38,4.38,0,0,1,.72,3.52,3.47,3.47,0,0,1-1.29,1.92,4.44,4.44,0,0,1-2.46.82,5.42,5.42,0,0,1-2.75-.7,5.22,5.22,0,0,1-2.13-2.23,9.08,9.08,0,0,1-.49-6.64,19,19,0,0,1,3.66-6.41,50.24,50.24,0,0,0,4.7-6.27,13.32,13.32,0,0,0,1.77-7.41,12.44,12.44,0,0,0-.71-3.59,5.65,5.65,0,0,0-2-2.74,3,3,0,0,0-3-.18,6.08,6.08,0,0,0-2.89,7.37,3.6,3.6,0,0,0,1.62,1.71,2.71,2.71,0,0,0,3.48-1.06,2.16,2.16,0,0,0,.24-1.51,2.47,2.47,0,0,0-1.22-1.74A3.88,3.88,0,0,0,312.92,181.12Z"></path></g><circle cx="313.62" cy="172.13" r="1.61" style="opacity:0.2"></circle><circle cx="312.91" cy="215.14" r="1.61" style="opacity:0.2"></circle><g style="opacity:0.2"><path d="M313.61,268a3.67,3.67,0,0,0-.75.22,2.48,2.48,0,0,0-1.23,1.75,2.17,2.17,0,0,0,.24,1.51,2.6,2.6,0,0,0,1.42,1.16,2.63,2.63,0,0,0,2.07-.1,3.58,3.58,0,0,0,1.62-1.72,6.1,6.1,0,0,0-2.9-7.38,3,3,0,0,0-3,.18,5.7,5.7,0,0,0-2,2.76,12.44,12.44,0,0,0-.71,3.59,13.55,13.55,0,0,0,1.77,7.43,51.1,51.1,0,0,0,4.7,6.28,19,19,0,0,1,3.66,6.43,9.16,9.16,0,0,1-.48,6.65,5.34,5.34,0,0,1-2.12,2.24,5.49,5.49,0,0,1-2.77.7,4.32,4.32,0,0,1-2.46-.82,3.4,3.4,0,0,1-1.28-1.92,4.41,4.41,0,0,1,.72-3.53A2.84,2.84,0,0,1,312,292.2a1.48,1.48,0,0,1,.6,0l.2,0s-.07,0-.21,0a1.79,1.79,0,0,0-.57.05,2.89,2.89,0,0,0-1.75,1.28,4.26,4.26,0,0,0-.6,3.35,3.07,3.07,0,0,0,1.2,1.72,4,4,0,0,0,2.27.72,5,5,0,0,0,4.5-2.77,8.79,8.79,0,0,0,.4-6.32,19,19,0,0,0-3.6-6.25,49.88,49.88,0,0,1-4.75-6.34,14,14,0,0,1-1.83-7.71,13,13,0,0,1,.76-3.74,6.17,6.17,0,0,1,2.18-3,3.54,3.54,0,0,1,1.75-.58,3.79,3.79,0,0,1,1.74.38,6,6,0,0,1,2.43,2.25,5.9,5.9,0,0,1,.61,5.71,3.9,3.9,0,0,1-1.81,1.86,2.91,2.91,0,0,1-2.31.07,2.78,2.78,0,0,1-1.53-1.31,2.39,2.39,0,0,1-.23-1.67,2.57,2.57,0,0,1,1.38-1.81A1.39,1.39,0,0,1,313.61,268Z"></path></g><g style="opacity:0.2"><path d="M313.12,249.26a2.67,2.67,0,0,0,.75-.21,2.48,2.48,0,0,0,1.23-1.75,2.2,2.2,0,0,0-.25-1.52,2.72,2.72,0,0,0-3.48-1.05,3.58,3.58,0,0,0-1.62,1.72,5.54,5.54,0,0,0,.64,5.32,5.62,5.62,0,0,0,2.26,2.06,3,3,0,0,0,3-.18,5.75,5.75,0,0,0,2-2.76,11.81,11.81,0,0,0,.71-3.59,13.38,13.38,0,0,0-1.77-7.43,51,51,0,0,0-4.69-6.28,19.05,19.05,0,0,1-3.66-6.43,9.16,9.16,0,0,1,.48-6.65,5.22,5.22,0,0,1,2.12-2.24,5.35,5.35,0,0,1,2.76-.7,4.27,4.27,0,0,1,2.46.82,3.37,3.37,0,0,1,1.29,1.92,4.41,4.41,0,0,1-.72,3.53,2.86,2.86,0,0,1-1.89,1.27,1.69,1.69,0,0,1-.6,0c-.13,0-.2,0-.2,0h.2a2.21,2.21,0,0,0,.58-.05,2.83,2.83,0,0,0,1.74-1.29,4.23,4.23,0,0,0,.61-3.34,3.23,3.23,0,0,0-1.2-1.73,4,4,0,0,0-2.27-.72,5,5,0,0,0-4.5,2.78,8.74,8.74,0,0,0-.4,6.32,18.51,18.51,0,0,0,3.6,6.24,50.72,50.72,0,0,1,4.75,6.35,13.89,13.89,0,0,1,1.82,7.71,12.62,12.62,0,0,1-.75,3.74,6.22,6.22,0,0,1-2.18,3,3.49,3.49,0,0,1-1.75.57,3.63,3.63,0,0,1-1.74-.37A6,6,0,0,1,310,252a5.9,5.9,0,0,1-.61-5.71,3.85,3.85,0,0,1,1.81-1.86,3,3,0,0,1,2.31-.08,2.82,2.82,0,0,1,1.53,1.31,2.43,2.43,0,0,1,.23,1.68,2.51,2.51,0,0,1-1.39,1.8A1.26,1.26,0,0,1,313.12,249.26Z"></path></g><ellipse cx="312.91" cy="258.28" rx="1.61" ry="1.62" style="opacity:0.2"></ellipse><g style="opacity:0.2"><path d="M234.35,123.41a3.94,3.94,0,0,0-.22-.74,2.48,2.48,0,0,0-1.75-1.23,2.17,2.17,0,0,0-1.51.24,2.71,2.71,0,0,0-1.06,3.48,3.6,3.6,0,0,0,1.72,1.63,5.57,5.57,0,0,0,5.32-.65,5.5,5.5,0,0,0,2.06-2.26,3,3,0,0,0-.18-3,5.75,5.75,0,0,0-2.76-2,12.44,12.44,0,0,0-3.59-.71,13.55,13.55,0,0,0-7.43,1.77,51.1,51.1,0,0,0-6.28,4.7,19,19,0,0,1-6.43,3.66,9.16,9.16,0,0,1-6.65-.48,5.36,5.36,0,0,1-2.24-2.13,5.43,5.43,0,0,1-.7-2.76,4.29,4.29,0,0,1,.82-2.46,3.47,3.47,0,0,1,1.92-1.29,4.45,4.45,0,0,1,3.53.72,2.89,2.89,0,0,1,1.27,1.89,1.53,1.53,0,0,1,0,.61,1.12,1.12,0,0,1,0,.2.58.58,0,0,1,0-.21,1.86,1.86,0,0,0,0-.58,2.9,2.9,0,0,0-1.28-1.74,4.22,4.22,0,0,0-3.35-.6,3.13,3.13,0,0,0-1.73,1.2,4,4,0,0,0-.71,2.27,5,5,0,0,0,2.77,4.5,8.79,8.79,0,0,0,6.32.4,18.85,18.85,0,0,0,6.24-3.6,49.76,49.76,0,0,1,6.35-4.75,13.9,13.9,0,0,1,7.71-1.83,13,13,0,0,1,3.74.76,6.17,6.17,0,0,1,3,2.18,3.54,3.54,0,0,1,.58,1.75,3.82,3.82,0,0,1-.38,1.74,6.08,6.08,0,0,1-2.25,2.43,5.92,5.92,0,0,1-5.71.61,4,4,0,0,1-1.86-1.81,3,3,0,0,1-.08-2.32,2.85,2.85,0,0,1,1.32-1.52,2.34,2.34,0,0,1,1.67-.23,2.57,2.57,0,0,1,1.81,1.38A1.35,1.35,0,0,1,234.35,123.41Z"></path></g><g style="opacity:0.2"><path d="M279.51,122.93a1.35,1.35,0,0,1-.12.79,2.51,2.51,0,0,1-1.8,1.38,2.36,2.36,0,0,1-1.68-.22,2.89,2.89,0,0,1-1.31-1.53,3,3,0,0,1,.08-2.31,3.94,3.94,0,0,1,1.85-1.82,6.5,6.5,0,0,1,8,3,3.64,3.64,0,0,1,.38,1.74,3.44,3.44,0,0,1-.58,1.74,6.21,6.21,0,0,1-3,2.19,12.75,12.75,0,0,1-3.74.75,14,14,0,0,1-7.72-1.82,49.7,49.7,0,0,1-6.34-4.76,18.59,18.59,0,0,0-6.25-3.59,8.71,8.71,0,0,0-6.31.4,5,5,0,0,0-2.78,4.49,4.06,4.06,0,0,0,.72,2.28,3.16,3.16,0,0,0,1.73,1.2,4.23,4.23,0,0,0,3.34-.61,2.77,2.77,0,0,0,1.28-1.74,2.3,2.3,0,0,0,.06-.58.63.63,0,0,1,0-.2s0,.06,0,.2a2,2,0,0,1,0,.6,2.9,2.9,0,0,1-1.27,1.89,4.43,4.43,0,0,1-3.54.72,3.48,3.48,0,0,1-1.92-1.29,4.34,4.34,0,0,1-.82-2.46,5.34,5.34,0,0,1,.71-2.76,5.22,5.22,0,0,1,2.24-2.12,9.09,9.09,0,0,1,6.64-.48,19.07,19.07,0,0,1,6.44,3.65,48.69,48.69,0,0,0,6.28,4.7,13.36,13.36,0,0,0,7.43,1.77,12.18,12.18,0,0,0,3.59-.71,5.72,5.72,0,0,0,2.75-2,3,3,0,0,0,.19-3,6.11,6.11,0,0,0-7.39-2.91,3.62,3.62,0,0,0-1.71,1.63,2.69,2.69,0,0,0,1,3.48,2.14,2.14,0,0,0,1.52.24,2.46,2.46,0,0,0,1.75-1.22A2.67,2.67,0,0,0,279.51,122.93Z"></path></g><path d="M244.11,121.11a1.62,1.62,0,1,0,1.61,1.61A1.61,1.61,0,0,0,244.11,121.11Z" style="opacity:0.2"></path><path d="M295.27,121.11a1.62,1.62,0,1,0,1.61,1.61A1.61,1.61,0,0,0,295.27,121.11Z" style="opacity:0.2"></path><path d="M195.48,121.11a1.62,1.62,0,1,0,1.62,1.61A1.61,1.61,0,0,0,195.48,121.11Z" style="opacity:0.2"></path><g style="opacity:0.2"><path d="M235.38,306.13a2.76,2.76,0,0,0-.21-.74,2.5,2.5,0,0,0-1.75-1.23,2.2,2.2,0,0,0-1.52.24,2.69,2.69,0,0,0-1.05,3.48,3.57,3.57,0,0,0,1.71,1.63A6.11,6.11,0,0,0,240,306.6a3,3,0,0,0-.19-3,5.72,5.72,0,0,0-2.75-2,12.51,12.51,0,0,0-3.59-.71,13.53,13.53,0,0,0-7.43,1.77,49.63,49.63,0,0,0-6.28,4.7,19.1,19.1,0,0,1-6.44,3.66,9.17,9.17,0,0,1-6.65-.48,5.35,5.35,0,0,1-2.94-4.89,4.37,4.37,0,0,1,.82-2.46,3.53,3.53,0,0,1,1.92-1.29,4.44,4.44,0,0,1,3.54.73,2.83,2.83,0,0,1,1.26,1.88,1.79,1.79,0,0,1,0,.61.69.69,0,0,1,0,.2.77.77,0,0,1,0-.21,2.34,2.34,0,0,0-.06-.58,2.82,2.82,0,0,0-1.28-1.74,4.19,4.19,0,0,0-3.34-.6,3.06,3.06,0,0,0-1.73,1.2,4,4,0,0,0-.72,2.27,5,5,0,0,0,2.78,4.5,8.76,8.76,0,0,0,6.31.4,18.8,18.8,0,0,0,6.25-3.6,49.65,49.65,0,0,1,6.34-4.75,14,14,0,0,1,7.72-1.83,13.1,13.1,0,0,1,3.74.76,6.19,6.19,0,0,1,3,2.18,3.54,3.54,0,0,1,.58,1.75,3.69,3.69,0,0,1-.38,1.74,6,6,0,0,1-2.25,2.43,5.92,5.92,0,0,1-5.71.61,4,4,0,0,1-1.85-1.81,2.94,2.94,0,0,1-.08-2.32,2.84,2.84,0,0,1,1.31-1.52,2.37,2.37,0,0,1,1.68-.23,2.57,2.57,0,0,1,1.8,1.38A1.35,1.35,0,0,1,235.38,306.13Z"></path></g><g style="opacity:0.2"><path d="M280.54,305.65a1.28,1.28,0,0,1-.11.79,2.55,2.55,0,0,1-1.81,1.38,2.33,2.33,0,0,1-1.67-.22,2.91,2.91,0,0,1-1.32-1.53,3,3,0,0,1,.08-2.31,4,4,0,0,1,1.86-1.82,5.93,5.93,0,0,1,5.71.62,6,6,0,0,1,2.25,2.43,3.76,3.76,0,0,1,.38,1.74,3.54,3.54,0,0,1-.58,1.74,6.13,6.13,0,0,1-3,2.19,12.62,12.62,0,0,1-3.74.75,13.89,13.89,0,0,1-7.71-1.82,49.82,49.82,0,0,1-6.35-4.76,18.65,18.65,0,0,0-6.24-3.59,8.74,8.74,0,0,0-6.32.4,5,5,0,0,0-2.77,4.49,4,4,0,0,0,.71,2.28,3.23,3.23,0,0,0,1.73,1.2A4.26,4.26,0,0,0,255,309a2.85,2.85,0,0,0,1.28-1.74,1.84,1.84,0,0,0,0-.58c0-.13,0-.2,0-.2a.92.92,0,0,1,0,.2,1.48,1.48,0,0,1,0,.6,2.86,2.86,0,0,1-1.27,1.89,4.41,4.41,0,0,1-3.53.72,3.41,3.41,0,0,1-1.92-1.29,4.27,4.27,0,0,1-.82-2.46,5.43,5.43,0,0,1,.7-2.76,5.28,5.28,0,0,1,2.24-2.12,9.11,9.11,0,0,1,6.65-.48,18.79,18.79,0,0,1,6.43,3.66,51,51,0,0,0,6.28,4.69,13.38,13.38,0,0,0,7.43,1.77,12.12,12.12,0,0,0,3.59-.71,5.75,5.75,0,0,0,2.76-2,3,3,0,0,0,.18-3,6.07,6.07,0,0,0-7.38-2.9A3.58,3.58,0,0,0,276,303.9a2.71,2.71,0,0,0,1.06,3.48,2.12,2.12,0,0,0,1.51.24,2.44,2.44,0,0,0,1.75-1.22A2.67,2.67,0,0,0,280.54,305.65Z"></path></g><ellipse cx="245.14" cy="305.44" rx="1.62" ry="1.61" style="opacity:0.2"></ellipse><ellipse cx="296.3" cy="305.44" rx="1.62" ry="1.61" style="opacity:0.2"></ellipse><path d="M196.51,303.83a1.62,1.62,0,1,0,1.62,1.61A1.62,1.62,0,0,0,196.51,303.83Z" style="opacity:0.2"></path><path d="M326.22,111.77c0,.14-35.61.26-79.53.26s-79.55-.12-79.55-.26,35.61-.26,79.55-.26S326.22,111.62,326.22,111.77Z" style="fill:#fff"></path><path d="M223,115.64c0,.14-6.08.26-13.56.26s-13.56-.12-13.56-.26,6.07-.26,13.56-.26S223,115.5,223,115.64Z" style="fill:#fff"></path><path d="M261.9,129.7c0,.14-5.18.26-11.55.26s-11.56-.12-11.56-.26,5.18-.26,11.56-.26S261.9,129.56,261.9,129.7Z" style="fill:#fff"></path><path d="M226.83,273.16a15.49,15.49,0,0,1-3.15.29,50.38,50.38,0,0,1-7.63-.28,60.81,60.81,0,0,1-7.52-1.35,17.23,17.23,0,0,1-3-.88,20,20,0,0,1,3.11.52c1.91.37,4.55.86,7.5,1.2a74.94,74.94,0,0,0,7.57.43A23.07,23.07,0,0,1,226.83,273.16Z" style="fill:#263238"></path><path d="M302.8,295.21s0-.27,0-.78,0-1.27,0-2.26c0-2,0-4.95,0-8.78,0-7.67,0-18.87-.06-33,0-28.31-.07-68.48-.12-115.92l.24.24-112.86,0h0l.26-.26c0,60.31,0,116-.05,160.77l-.21-.21,82.1.11,22.74.05,6,0,2.06,0s-.68,0-2,0l-5.93,0-22.69.05-82.23.11h-.21v-.21c0-44.73,0-100.46-.05-160.77v-.26h.27l112.86,0H303v.23c0,47.51-.09,87.72-.11,116.07,0,14.15-.05,25.33-.07,33,0,3.82,0,6.75,0,8.73,0,1,0,1.73,0,2.24S302.8,295.21,302.8,295.21Z" style="fill:#263238"></path><path d="M325.73,111.9a35.36,35.36,0,0,0-4.13,2.3,45.49,45.49,0,0,0-8.32,7.81c-2.95,3.38-5.39,6.63-7.26,8.92-.92,1.14-1.71,2-2.27,2.65a6,6,0,0,1-.95.86,6.18,6.18,0,0,1,.79-1c.52-.64,1.26-1.57,2.15-2.74,1.78-2.34,4.18-5.63,7.14-9a41.57,41.57,0,0,1,8.51-7.78,13.56,13.56,0,0,1,1.74-1l.73-.37c.23-.1.45-.17.65-.24A6.23,6.23,0,0,1,325.73,111.9Z" style="fill:#263238"></path><path d="M326.28,318.57a5.67,5.67,0,0,1-.88-1l-2.27-2.69c-1.93-2.26-4.66-5.33-7.87-8.53s-6.29-5.93-8.56-7.85l-2.7-2.26a7.17,7.17,0,0,1-1-.87,5.4,5.4,0,0,1,1.09.71c.68.48,1.64,1.21,2.81,2.13a107.41,107.41,0,0,1,16.49,16.44c.93,1.16,1.66,2.12,2.14,2.8A6.48,6.48,0,0,1,326.28,318.57Z" style="fill:#263238"></path><path d="M166.6,318.27a6.24,6.24,0,0,1,.64-1.11c.43-.71,1.11-1.7,2-2.89a70.67,70.67,0,0,1,16.53-16.09c1.22-.84,2.22-1.49,2.94-1.91a6.23,6.23,0,0,1,1.13-.61,6.23,6.23,0,0,1-1,.78c-.68.47-1.65,1.16-2.84,2a84.3,84.3,0,0,0-16.45,16c-.91,1.16-1.63,2.12-2.12,2.78A5.85,5.85,0,0,1,166.6,318.27Z" style="fill:#263238"></path><path d="M167,111.9a6.55,6.55,0,0,1,.95.84l2.48,2.4c2.1,2,5.05,4.76,8.32,7.77s6.2,5.8,8.24,7.89c1,1,1.82,1.91,2.36,2.52a6.24,6.24,0,0,1,.81,1,6,6,0,0,1-1-.84l-2.48-2.4c-2.1-2-5.05-4.76-8.33-7.77s-6.19-5.8-8.23-7.89c-1-1-1.83-1.91-2.37-2.52A5.74,5.74,0,0,1,167,111.9Z" style="fill:#263238"></path><path d="M319.49,116.65c.14,0,.26,43.64.26,97.46s-.12,97.47-.26,97.47-.26-43.63-.26-97.47S319.35,116.65,319.49,116.65Z" style="fill:#263238"></path><path d="M317.24,116.2c0,.14-32.58.26-72.76.26s-72.76-.12-72.76-.26,32.57-.26,72.76-.26S317.24,116.05,317.24,116.2Z" style="fill:#263238"></path><path d="M172.17,308.44c-.15,0-.26-42.94-.26-95.89s.11-95.9.26-95.9.26,42.92.26,95.9S172.31,308.44,172.17,308.44Z" style="fill:#263238"></path><path d="M319.49,312c0,.14-32.18.26-71.86.26s-71.87-.12-71.87-.26,32.17-.26,71.87-.26S319.49,311.88,319.49,312Z" style="fill:#263238"></path><path d="M307.24,298.75s0-.28,0-.81,0-1.33,0-2.37c0-2.09,0-5.17,0-9.18,0-8-.05-19.76-.09-34.6C307,222.13,307,180,306.87,130.2l.23.23L185,130l.26-.26v.18c.18,63.3.36,121.86.49,169.17l-.21-.21,88.48-.14h31l2.22,0-2.17,0-6.41,0-24.49.12-88.61.36h-.21v-.21c-.16-47.3-.37-105.87-.59-169.17v-.45H185l122.09.48h.23v.24c0,49.88,0,92,0,121.74,0,14.82,0,26.53,0,34.55,0,4,0,7.05,0,9.13,0,1,0,1.81,0,2.35S307.24,298.75,307.24,298.75Z" style="fill:#263238"></path><g style="opacity:0.2"><path d="M195.1,299.06c-.16,0-.3-.85-.26-1.88s.12-1.86.26-1.88.3.85.26,1.89A4.38,4.38,0,0,1,195.1,299.06Z"></path></g><g style="opacity:0.2"><path d="M191.13,299.11c-.15,0-.3-.85-.26-1.88a4.49,4.49,0,0,1,.26-1.88c.15,0,.3.85.26,1.89S191.27,299.1,191.13,299.11Z"></path></g><g style="opacity:0.2"><path d="M199.59,298.89c-.14,0-.29-.8-.32-1.8s0-1.82.19-1.82.29.8.33,1.8S199.73,298.89,199.59,298.89Z"></path></g><g style="opacity:0.2"><path d="M203.71,298.89c-.15,0-.29-.8-.33-1.8s.06-1.82.2-1.82.29.8.32,1.8S203.85,298.89,203.71,298.89Z"></path></g><g style="opacity:0.2"><path d="M207.82,298.89c-.14,0-.29-.8-.32-1.8s.05-1.82.19-1.82.29.8.33,1.8S208,298.89,207.82,298.89Z"></path></g><g style="opacity:0.2"><path d="M211.94,298.89c-.15,0-.29-.8-.33-1.8s.06-1.82.2-1.82.29.8.32,1.8S212.08,298.89,211.94,298.89Z"></path></g><g style="opacity:0.2"><path d="M216.05,298.89c-.14,0-.29-.8-.32-1.8s.05-1.82.2-1.82.28.8.32,1.8S216.2,298.89,216.05,298.89Z"></path></g><g style="opacity:0.2"><path d="M220.17,298.89c-.15,0-.29-.8-.33-1.8s.06-1.82.2-1.82.29.8.32,1.8S220.31,298.89,220.17,298.89Z"></path></g><g style="opacity:0.2"><path d="M224.28,298.89c-.14,0-.29-.8-.32-1.8s0-1.82.2-1.82.28.8.32,1.8S224.43,298.89,224.28,298.89Z"></path></g><g style="opacity:0.2"><path d="M228.4,298.89c-.15,0-.29-.8-.33-1.8s.06-1.82.2-1.82.29.8.33,1.8S228.54,298.89,228.4,298.89Z"></path></g><g style="opacity:0.2"><path d="M232.51,298.89c-.14,0-.29-.8-.32-1.8s.05-1.82.2-1.82.29.8.32,1.8S232.66,298.89,232.51,298.89Z"></path></g><g style="opacity:0.2"><path d="M236.63,298.89c-.14,0-.29-.8-.32-1.8s.05-1.82.19-1.82.29.8.33,1.8S236.77,298.89,236.63,298.89Z"></path></g><g style="opacity:0.2"><path d="M240.74,298.89c-.14,0-.28-.8-.32-1.8s.05-1.82.2-1.82.29.8.32,1.8S240.89,298.89,240.74,298.89Z"></path></g><g style="opacity:0.2"><path d="M244.86,298.89c-.14,0-.29-.8-.32-1.8s.05-1.82.19-1.82.29.8.33,1.8S245,298.89,244.86,298.89Z"></path></g><g style="opacity:0.2"><path d="M249,298.89c-.15,0-.29-.8-.33-1.8s0-1.82.2-1.82.29.8.32,1.8S249.12,298.89,249,298.89Z"></path></g><g style="opacity:0.2"><path d="M253.09,298.89c-.14,0-.29-.8-.32-1.8s0-1.82.19-1.82.29.8.33,1.8S253.23,298.89,253.09,298.89Z"></path></g><g style="opacity:0.2"><path d="M257.21,298.89c-.15,0-.29-.8-.33-1.8s.06-1.82.2-1.82.29.8.32,1.8S257.35,298.89,257.21,298.89Z"></path></g><g style="opacity:0.2"><path d="M261.32,298.89c-.14,0-.29-.8-.32-1.8s.05-1.82.19-1.82.29.8.33,1.8S261.46,298.89,261.32,298.89Z"></path></g><g style="opacity:0.2"><path d="M265.44,298.89c-.15,0-.29-.8-.33-1.8s.06-1.82.2-1.82.29.8.32,1.8S265.58,298.89,265.44,298.89Z"></path></g><g style="opacity:0.2"><path d="M269.55,298.89c-.14,0-.29-.8-.32-1.8s0-1.82.2-1.82.28.8.32,1.8S269.7,298.89,269.55,298.89Z"></path></g><g style="opacity:0.2"><path d="M273.67,298.89c-.15,0-.29-.8-.33-1.8s.06-1.82.2-1.82.29.8.32,1.8S273.81,298.89,273.67,298.89Z"></path></g><g style="opacity:0.2"><path d="M277.78,298.89c-.14,0-.29-.8-.32-1.8s.05-1.82.2-1.82.28.8.32,1.8S277.93,298.89,277.78,298.89Z"></path></g><g style="opacity:0.2"><path d="M281.9,298.89c-.15,0-.29-.8-.33-1.8s.06-1.82.2-1.82.29.8.33,1.8S282,298.89,281.9,298.89Z"></path></g><g style="opacity:0.2"><path d="M286,298.89c-.14,0-.29-.8-.32-1.8s.05-1.82.2-1.82.29.8.32,1.8S286.16,298.89,286,298.89Z"></path></g><g style="opacity:0.2"><path d="M290.13,298.89c-.14,0-.29-.8-.32-1.8s.05-1.82.19-1.82.29.8.33,1.8S290.27,298.89,290.13,298.89Z"></path></g><g style="opacity:0.2"><path d="M294.24,298.89c-.14,0-.28-.8-.32-1.8s.05-1.82.2-1.82.29.8.32,1.8S294.39,298.89,294.24,298.89Z"></path></g><g style="opacity:0.2"><path d="M298.36,298.89c-.14,0-.29-.8-.32-1.8s0-1.82.19-1.82.29.8.33,1.8S298.5,298.89,298.36,298.89Z"></path></g><g style="opacity:0.2"><path d="M302.47,298.89c-.14,0-.28-.8-.32-1.8s.05-1.82.2-1.82.29.8.32,1.8S302.62,298.89,302.47,298.89Z"></path></g><g style="opacity:0.2"><path d="M307.1,294.12a9.19,9.19,0,0,1-4.34,0,9.19,9.19,0,0,1,4.34,0Z"></path></g><g style="opacity:0.2"><path d="M307.1,289.54a9.19,9.19,0,0,1-4.34,0,9.19,9.19,0,0,1,4.34,0Z"></path></g><g style="opacity:0.2"><path d="M307.1,285a9.19,9.19,0,0,1-4.34,0,9.19,9.19,0,0,1,4.34,0Z"></path></g><g style="opacity:0.2"><path d="M307.1,280.38a9.19,9.19,0,0,1-4.34,0,9.19,9.19,0,0,1,4.34,0Z"></path></g><g style="opacity:0.2"><path d="M307.1,275.8a9.19,9.19,0,0,1-4.34,0,8.86,8.86,0,0,1,4.34,0Z"></path></g><g style="opacity:0.2"><path d="M307.1,271.21a9.19,9.19,0,0,1-4.34,0,9.19,9.19,0,0,1,4.34,0Z"></path></g><g style="opacity:0.2"><path d="M307.1,266.63a9.19,9.19,0,0,1-4.34,0,9.19,9.19,0,0,1,4.34,0Z"></path></g><g style="opacity:0.2"><path d="M307.1,262.05a9.19,9.19,0,0,1-4.34,0,9.19,9.19,0,0,1,4.34,0Z"></path></g><g style="opacity:0.2"><path d="M307.1,257.47a9.19,9.19,0,0,1-4.34,0,9.19,9.19,0,0,1,4.34,0Z"></path></g><g style="opacity:0.2"><path d="M307.1,252.89a9.19,9.19,0,0,1-4.34,0,9.19,9.19,0,0,1,4.34,0Z"></path></g><g style="opacity:0.2"><path d="M307.1,248.31a9.19,9.19,0,0,1-4.34,0,9.19,9.19,0,0,1,4.34,0Z"></path></g><g style="opacity:0.2"><path d="M307.1,243.73a9.19,9.19,0,0,1-4.34,0,9.19,9.19,0,0,1,4.34,0Z"></path></g><g style="opacity:0.2"><path d="M307.1,239.15a9.19,9.19,0,0,1-4.34,0,9.19,9.19,0,0,1,4.34,0Z"></path></g><g style="opacity:0.2"><path d="M307.1,234.57a9.19,9.19,0,0,1-4.34,0,9.19,9.19,0,0,1,4.34,0Z"></path></g><g style="opacity:0.2"><path d="M307.1,230a8.86,8.86,0,0,1-4.34,0,9.19,9.19,0,0,1,4.34,0Z"></path></g><g style="opacity:0.2"><path d="M307.1,225.4a9.19,9.19,0,0,1-4.34,0,9.19,9.19,0,0,1,4.34,0Z"></path></g><g style="opacity:0.2"><path d="M307.1,220.82a9.19,9.19,0,0,1-4.34,0,9.19,9.19,0,0,1,4.34,0Z"></path></g><g style="opacity:0.2"><path d="M307.1,216.24a9.19,9.19,0,0,1-4.34,0,9.19,9.19,0,0,1,4.34,0Z"></path></g><g style="opacity:0.2"><path d="M307.1,211.66a9.19,9.19,0,0,1-4.34,0,9.19,9.19,0,0,1,4.34,0Z"></path></g><g style="opacity:0.2"><path d="M307.1,207.08a9.19,9.19,0,0,1-4.34,0,9.19,9.19,0,0,1,4.34,0Z"></path></g><g style="opacity:0.2"><path d="M307.1,202.5a9.19,9.19,0,0,1-4.34,0,9.19,9.19,0,0,1,4.34,0Z"></path></g><g style="opacity:0.2"><path d="M307.1,197.92a9.19,9.19,0,0,1-4.34,0,9.19,9.19,0,0,1,4.34,0Z"></path></g><g style="opacity:0.2"><path d="M307.1,193.34a9.19,9.19,0,0,1-4.34,0,9.19,9.19,0,0,1,4.34,0Z"></path></g><g style="opacity:0.2"><path d="M307.1,188.76a9.19,9.19,0,0,1-4.34,0,8.86,8.86,0,0,1,4.34,0Z"></path></g><g style="opacity:0.2"><path d="M307.1,184.17a9.19,9.19,0,0,1-4.34,0,9.19,9.19,0,0,1,4.34,0Z"></path></g><g style="opacity:0.2"><path d="M307.1,179.59a9.19,9.19,0,0,1-4.34,0,9.19,9.19,0,0,1,4.34,0Z"></path></g><g style="opacity:0.2"><path d="M307.1,175a9.19,9.19,0,0,1-4.34,0,9.19,9.19,0,0,1,4.34,0Z"></path></g><g style="opacity:0.2"><path d="M307.1,170.43a9.19,9.19,0,0,1-4.34,0,9.19,9.19,0,0,1,4.34,0Z"></path></g><g style="opacity:0.2"><path d="M307.1,165.85a9.19,9.19,0,0,1-4.34,0,9.19,9.19,0,0,1,4.34,0Z"></path></g><g style="opacity:0.2"><path d="M307.1,161.27a9.19,9.19,0,0,1-4.34,0,9.19,9.19,0,0,1,4.34,0Z"></path></g><g style="opacity:0.2"><path d="M307.1,156.69a9.19,9.19,0,0,1-4.34,0,9.19,9.19,0,0,1,4.34,0Z"></path></g><g style="opacity:0.2"><path d="M307.1,152.11a9.19,9.19,0,0,1-4.34,0,9.19,9.19,0,0,1,4.34,0Z"></path></g><g style="opacity:0.2"><path d="M307.1,147.53a9.19,9.19,0,0,1-4.34,0,9.19,9.19,0,0,1,4.34,0Z"></path></g><g style="opacity:0.2"><path d="M307.1,142.94a8.86,8.86,0,0,1-4.34,0,9.19,9.19,0,0,1,4.34,0Z"></path></g><g style="opacity:0.2"><path d="M307.1,138.36a9.19,9.19,0,0,1-4.34,0,9.19,9.19,0,0,1,4.34,0Z"></path></g><g style="opacity:0.2"><path d="M307.1,133.78a9.19,9.19,0,0,1-4.34,0,9.19,9.19,0,0,1,4.34,0Z"></path></g><g style="opacity:0.2"><path d="M302.14,134.44a9,9,0,0,1,0-4.29,9,9,0,0,1,0,4.29Z"></path></g><g style="opacity:0.2"><path d="M297.78,134.44a9,9,0,0,1,0-4.29,9,9,0,0,1,0,4.29Z"></path></g><g style="opacity:0.2"><path d="M293.41,134.44a9,9,0,0,1,0-4.29,8.66,8.66,0,0,1,0,4.29Z"></path></g><g style="opacity:0.2"><path d="M289.05,134.44a9,9,0,0,1,0-4.29,9,9,0,0,1,0,4.29Z"></path></g><g style="opacity:0.2"><path d="M284.69,134.44a9,9,0,0,1,0-4.29,9,9,0,0,1,0,4.29Z"></path></g><g style="opacity:0.2"><path d="M280.32,134.44a9,9,0,0,1,0-4.29,9,9,0,0,1,0,4.29Z"></path></g><g style="opacity:0.2"><path d="M276,134.44a9,9,0,0,1,0-4.29,9,9,0,0,1,0,4.29Z"></path></g><g style="opacity:0.2"><path d="M271.59,134.44a9,9,0,0,1,0-4.29,9,9,0,0,1,0,4.29Z"></path></g><g style="opacity:0.2"><path d="M267.23,134.44a9,9,0,0,1,0-4.29,9,9,0,0,1,0,4.29Z"></path></g><g style="opacity:0.2"><path d="M262.86,134.44a9,9,0,0,1,0-4.29,9,9,0,0,1,0,4.29Z"></path></g><g style="opacity:0.2"><path d="M258.5,134.44a9,9,0,0,1,0-4.29,9,9,0,0,1,0,4.29Z"></path></g><g style="opacity:0.2"><path d="M254.14,134.44a8.66,8.66,0,0,1,0-4.29,9,9,0,0,1,0,4.29Z"></path></g><g style="opacity:0.2"><path d="M249.77,134.44a9,9,0,0,1,0-4.29,9,9,0,0,1,0,4.29Z"></path></g><g style="opacity:0.2"><path d="M245.41,134.44a9,9,0,0,1,0-4.29,9,9,0,0,1,0,4.29Z"></path></g><g style="opacity:0.2"><path d="M241,134.44a9,9,0,0,1,0-4.29,9,9,0,0,1,0,4.29Z"></path></g><g style="opacity:0.2"><path d="M236.68,134.44a9,9,0,0,1,0-4.29,9,9,0,0,1,0,4.29Z"></path></g><g style="opacity:0.2"><path d="M232.31,134.44a9,9,0,0,1,0-4.29,9,9,0,0,1,0,4.29Z"></path></g><g style="opacity:0.2"><path d="M228,134.44a9,9,0,0,1,0-4.29,9,9,0,0,1,0,4.29Z"></path></g><g style="opacity:0.2"><path d="M223.58,134.44a9,9,0,0,1,0-4.29,9,9,0,0,1,0,4.29Z"></path></g><g style="opacity:0.2"><path d="M219.22,134.44a9,9,0,0,1,0-4.29,9,9,0,0,1,0,4.29Z"></path></g><g style="opacity:0.2"><path d="M214.86,134.44a8.66,8.66,0,0,1,0-4.29,9,9,0,0,1,0,4.29Z"></path></g><g style="opacity:0.2"><path d="M210.49,134.44a9,9,0,0,1,0-4.29,9,9,0,0,1,0,4.29Z"></path></g><g style="opacity:0.2"><path d="M206.13,134.44a9,9,0,0,1,0-4.29,9,9,0,0,1,0,4.29Z"></path></g><g style="opacity:0.2"><path d="M201.76,134.44a9,9,0,0,1,0-4.29,9,9,0,0,1,0,4.29Z"></path></g><g style="opacity:0.2"><path d="M197.4,134.44a9,9,0,0,1,0-4.29,9,9,0,0,1,0,4.29Z"></path></g><g style="opacity:0.2"><path d="M193,134.44a9,9,0,0,1,0-4.29,9,9,0,0,1,0,4.29Z"></path></g><g style="opacity:0.2"><path d="M189.88,135.94a11.82,11.82,0,0,1-4.93,0,11.82,11.82,0,0,1,4.93,0Z"></path></g><g style="opacity:0.2"><path d="M189.88,139.59a11.82,11.82,0,0,1-4.93,0,11.82,11.82,0,0,1,4.93,0Z"></path></g><g style="opacity:0.2"><path d="M189.88,143.24a11.82,11.82,0,0,1-4.93,0,11.82,11.82,0,0,1,4.93,0Z"></path></g><g style="opacity:0.2"><path d="M189.88,146.89a11.82,11.82,0,0,1-4.93,0,11.82,11.82,0,0,1,4.93,0Z"></path></g><g style="opacity:0.2"><path d="M189.88,150.54a11.82,11.82,0,0,1-4.93,0,11.82,11.82,0,0,1,4.93,0Z"></path></g><g style="opacity:0.2"><path d="M189.88,154.19a11.82,11.82,0,0,1-4.93,0,11.82,11.82,0,0,1,4.93,0Z"></path></g><g style="opacity:0.2"><path d="M189.88,157.84a11.82,11.82,0,0,1-4.93,0,11.82,11.82,0,0,1,4.93,0Z"></path></g><g style="opacity:0.2"><path d="M189.88,161.49a11.82,11.82,0,0,1-4.93,0,11.82,11.82,0,0,1,4.93,0Z"></path></g><g style="opacity:0.2"><path d="M189.88,165.13a11.39,11.39,0,0,1-4.93,0,11.82,11.82,0,0,1,4.93,0Z"></path></g><g style="opacity:0.2"><path d="M189.88,168.78a11.82,11.82,0,0,1-4.93,0,11.82,11.82,0,0,1,4.93,0Z"></path></g><g style="opacity:0.2"><path d="M189.88,172.43a11.82,11.82,0,0,1-4.93,0,11.82,11.82,0,0,1,4.93,0Z"></path></g><g style="opacity:0.2"><path d="M189.88,176.08a11.82,11.82,0,0,1-4.93,0,11.82,11.82,0,0,1,4.93,0Z"></path></g><g style="opacity:0.2"><path d="M189.88,179.73a11.82,11.82,0,0,1-4.93,0,11.82,11.82,0,0,1,4.93,0Z"></path></g><g style="opacity:0.2"><path d="M189.88,183.38a11.82,11.82,0,0,1-4.93,0,11.82,11.82,0,0,1,4.93,0Z"></path></g><g style="opacity:0.2"><path d="M189.88,187a11.82,11.82,0,0,1-4.93,0,11.82,11.82,0,0,1,4.93,0Z"></path></g><g style="opacity:0.2"><path d="M189.88,190.68a11.82,11.82,0,0,1-4.93,0,11.82,11.82,0,0,1,4.93,0Z"></path></g><g style="opacity:0.2"><path d="M189.88,194.33a11.82,11.82,0,0,1-4.93,0,11.82,11.82,0,0,1,4.93,0Z"></path></g><g style="opacity:0.2"><path d="M189.88,198a11.82,11.82,0,0,1-4.93,0,11.39,11.39,0,0,1,4.93,0Z"></path></g><g style="opacity:0.2"><path d="M189.88,201.62a11.82,11.82,0,0,1-4.93,0,11.82,11.82,0,0,1,4.93,0Z"></path></g><g style="opacity:0.2"><path d="M189.88,205.27a11.82,11.82,0,0,1-4.93,0,11.82,11.82,0,0,1,4.93,0Z"></path></g><g style="opacity:0.2"><path d="M189.88,208.92a11.82,11.82,0,0,1-4.93,0,11.82,11.82,0,0,1,4.93,0Z"></path></g><g style="opacity:0.2"><path d="M189.88,212.57a11.82,11.82,0,0,1-4.93,0,11.82,11.82,0,0,1,4.93,0Z"></path></g><g style="opacity:0.2"><path d="M189.88,216.22a11.82,11.82,0,0,1-4.93,0,11.82,11.82,0,0,1,4.93,0Z"></path></g><g style="opacity:0.2"><path d="M189.88,219.87a11.82,11.82,0,0,1-4.93,0,11.82,11.82,0,0,1,4.93,0Z"></path></g><g style="opacity:0.2"><path d="M189.88,223.52a11.82,11.82,0,0,1-4.93,0,11.82,11.82,0,0,1,4.93,0Z"></path></g><g style="opacity:0.2"><path d="M189.88,227.17a11.82,11.82,0,0,1-4.93,0,11.82,11.82,0,0,1,4.93,0Z"></path></g><g style="opacity:0.2"><path d="M189.88,230.82a11.82,11.82,0,0,1-4.93,0,11.82,11.82,0,0,1,4.93,0Z"></path></g><g style="opacity:0.2"><path d="M189.88,234.46a11.39,11.39,0,0,1-4.93,0,11.82,11.82,0,0,1,4.93,0Z"></path></g><g style="opacity:0.2"><path d="M189.88,238.11a11.82,11.82,0,0,1-4.93,0,11.82,11.82,0,0,1,4.93,0Z"></path></g><g style="opacity:0.2"><path d="M189.88,241.76a11.82,11.82,0,0,1-4.93,0,11.82,11.82,0,0,1,4.93,0Z"></path></g><g style="opacity:0.2"><path d="M189.88,245.41a11.82,11.82,0,0,1-4.93,0,11.82,11.82,0,0,1,4.93,0Z"></path></g><g style="opacity:0.2"><path d="M189.88,249.06a11.82,11.82,0,0,1-4.93,0,11.82,11.82,0,0,1,4.93,0Z"></path></g><g style="opacity:0.2"><path d="M189.88,252.71a11.82,11.82,0,0,1-4.93,0,11.82,11.82,0,0,1,4.93,0Z"></path></g><g style="opacity:0.2"><path d="M189.88,256.36a11.82,11.82,0,0,1-4.93,0,11.82,11.82,0,0,1,4.93,0Z"></path></g><g style="opacity:0.2"><path d="M189.88,260a11.82,11.82,0,0,1-4.93,0,11.82,11.82,0,0,1,4.93,0Z"></path></g><g style="opacity:0.2"><path d="M189.88,263.66a11.82,11.82,0,0,1-4.93,0,11.82,11.82,0,0,1,4.93,0Z"></path></g><g style="opacity:0.2"><path d="M189.88,267.31a11.82,11.82,0,0,1-4.93,0,11.82,11.82,0,0,1,4.93,0Z"></path></g><g style="opacity:0.2"><path d="M189.88,271a11.82,11.82,0,0,1-4.93,0,11.82,11.82,0,0,1,4.93,0Z"></path></g><g style="opacity:0.2"><path d="M189.88,274.6a11.82,11.82,0,0,1-4.93,0,11.82,11.82,0,0,1,4.93,0Z"></path></g><g style="opacity:0.2"><path d="M189.88,278.25a11.82,11.82,0,0,1-4.93,0,11.82,11.82,0,0,1,4.93,0Z"></path></g><g style="opacity:0.2"><path d="M189.88,281.9a11.82,11.82,0,0,1-4.93,0,11.82,11.82,0,0,1,4.93,0Z"></path></g><g style="opacity:0.2"><path d="M189.88,285.55a11.82,11.82,0,0,1-4.93,0,11.82,11.82,0,0,1,4.93,0Z"></path></g><g style="opacity:0.2"><path d="M189.88,289.2a11.82,11.82,0,0,1-4.93,0,11.82,11.82,0,0,1,4.93,0Z"></path></g><g style="opacity:0.2"><path d="M189.88,292.85a11.82,11.82,0,0,1-4.93,0,11.82,11.82,0,0,1,4.93,0Z"></path></g><path d="M194.33,161.46c1.71,1.26,2.47,3.42,2.92,5.49S198,171.2,199,173c2.9-.85,6,1,7.63,3.6s2,5.69,2.32,8.69a2,2,0,0,1,2.48-1.28,4.76,4.76,0,0,1,2.35,2,19.77,19.77,0,0,1,3.53,11c7.2,5.65,12.92,13.11,18.49,20.44a17.61,17.61,0,0,1,21.41-2.73,40.24,40.24,0,0,1,17.37-21.89,10.19,10.19,0,0,1,11.6-11.18,7.35,7.35,0,0,1,7.64-10.36,17,17,0,0,1,5.38-13.74A5.48,5.48,0,0,1,302.8,156V134.44H189.93v26.68A4.23,4.23,0,0,1,194.33,161.46Z" style="fill:#ebebeb"></path><path d="M213.39,194.26a46.45,46.45,0,0,1,4,2.82,19.77,19.77,0,0,0-3.53-11,4.76,4.76,0,0,0-2.35-2,2,2,0,0,0-2.48,1.28c-.35-3-.74-6.11-2.32-8.69s-4.73-4.45-7.63-3.6c-1.07-1.83-1.33-4-1.79-6.08s-1.21-4.23-2.92-5.49a4.23,4.23,0,0,0-4.4-.34v27.64C197.86,187.46,206.49,189.86,213.39,194.26Z" style="fill:#263238"></path><path d="M299.24,157.62a17,17,0,0,0-5.38,13.74,7.35,7.35,0,0,0-7.64,10.36,10.19,10.19,0,0,0-11.6,11.18c.67-.4,1.34-.79,2-1.15A40.21,40.21,0,0,1,302.8,188V156A5.48,5.48,0,0,0,299.24,157.62Z" style="fill:#263238"></path><path d="M276.65,191.75c-.69.36-1.36.75-2,1.15a40.24,40.24,0,0,0-17.37,21.89,17.61,17.61,0,0,0-21.41,2.73c-5.57-7.33-11.29-14.79-18.49-20.44a46.45,46.45,0,0,0-4-2.82c-6.9-4.4-15.53-6.8-23.46-5.5V295.21H302.8V188A40.21,40.21,0,0,0,276.65,191.75Z" style="fill:#455a64"></path><path d="M206.09,270.22c-5.21,6.39-11.47,16.73-11.87,25.22l102.86.06c-2.19-15.77-16.26-33.7-31-35.62" style="fill:#FF725E"></path><g style="opacity:0.4"><path d="M206.09,270.22c-5.21,6.39-11.47,16.73-11.87,25.22l102.66-.17c-2.2-15.78-16.06-33.47-30.79-35.39"></path></g><path d="M235.8,273.92l-10.92,3.95-4.56,4.18a1.85,1.85,0,0,0-.47,1.71c.36,1.56,1.08,4.43,1.49,4.55a19,19,0,0,0,2.32.31s.9,1.52,1.42,1.53l.53,1a1.65,1.65,0,0,0,2.11.74l2.93-1.28s.41-.82-.21-1a5.22,5.22,0,0,0-2.37.3s-.67-1.61-.45-2.06a4,4,0,0,1,2.17-2.4c1.32-.4,9.2-3.7,9.2-3.7Z" style="fill:#ffbe9d"></path><path d="M223.18,288.58c0,.08-.57,0-1-.7a2.69,2.69,0,0,1-.51-1.31,5.57,5.57,0,0,1,.14-1.66,8.6,8.6,0,0,1,1.58-3.83c.14.07-.61,1.74-1.07,3.94a6,6,0,0,0-.17,1.51,2.6,2.6,0,0,0,.34,1.15A4.75,4.75,0,0,0,223.18,288.58Z" style="fill:#eb996e"></path><path d="M223.8,288.84c-.07,0-.25-.29-.4-.86a4.84,4.84,0,0,1,0-2.27,8.74,8.74,0,0,1,.86-2.06c.29-.49.5-.77.56-.74s-.47,1.34-.91,2.93A13,13,0,0,0,223.8,288.84Z" style="fill:#eb996e"></path><path d="M225.28,290.54a3.14,3.14,0,0,1-.5-2.71,3.7,3.7,0,0,1,1.29-2.44c.13.09-.52,1.12-.77,2.53A17.7,17.7,0,0,0,225.28,290.54Z" style="fill:#eb996e"></path><path d="M226.93,163.39a26.38,26.38,0,0,0-3.45,18.44c.71,3.87,2.31,7.67,1.91,11.59-.5,4.87-4.06,9.37-3.19,14.19.76,4.18,4.69,7.08,8.7,8.49a9.64,9.64,0,0,0,5.77.53c2.77-.8,4.57-3.43,6-6a18.94,18.94,0,0,0,2.54-6.95c.3-2.75-.43-5.49-1.08-8.18a144.76,144.76,0,0,1-4-32.24" style="fill:#263238"></path><path d="M267.23,210.28s3.12,2.38,5.38,9.77c1.37,4.48,6.4,20.48,9.29,31.75,1.88,7.36-2,14.42-9,18L237.06,283.6l-4.23-11,28.61-18.8-6.92-25.61c-1.13-3.89-1.63-7.85-.2-11.65S261.22,209.55,267.23,210.28Z" style="fill:#FF725E"></path><path d="M281.27,261.34a2.42,2.42,0,0,1-.16.5,7.19,7.19,0,0,1-.62,1.34,14.73,14.73,0,0,1-3.58,4.12,32.11,32.11,0,0,1-6.9,4.22c-2.76,1.32-6,2.29-9.23,3.51-6.56,2.43-12.45,4.8-16.82,6.22-2.18.73-4,1.26-5.19,1.61l-1.43.38a1.5,1.5,0,0,1-.51.1,3.2,3.2,0,0,1,.48-.2l1.4-.47c1.21-.41,3-1,5.13-1.77,4.33-1.5,10.18-3.93,16.76-6.36,3.28-1.23,6.48-2.17,9.21-3.46a32.44,32.44,0,0,0,6.87-4.07,15.62,15.62,0,0,0,3.64-3.93,8.15,8.15,0,0,0,.69-1.28A1.84,1.84,0,0,1,281.27,261.34Z" style="fill:#263238"></path><path d="M248.15,199.53s16.11,7.24,19.08,10.75c6.6,7.82,2.26,48.69,2.26,48.69L240.56,272.9H225.63s-4.08-16.93-7.37-28.22a34.21,34.21,0,0,1,0-20Z" style="fill:#FF725E"></path><path d="M226.06,165.3a11.65,11.65,0,0,1,5.55-9.07,19.12,19.12,0,0,1,10.56-2.7c5.63,0,11.58,2,14.86,6.62,2.34,3.27,3,7.38,3.68,11.35,1.83,11.29,3.66,22.85,1.59,34.1a12.11,12.11,0,0,1-1.68,4.75,4.86,4.86,0,0,1-4.27,2.28" style="fill:#263238"></path><path d="M255.9,160.79l-.06,2.93-.59,43.9c-.06,5.1-4.5,9.1-10,9h0c-5.51-.12-10-4.38-10-9.53,0-5.4-.13-11.09-.13-11.09s-7-1.16-8.41-10.24c-.71-4.52-.49-11.93-.11-18a9.6,9.6,0,0,1,10.58-8.95Z" style="fill:#ffbe9d"></path><path d="M229.38,172.92a1.16,1.16,0,0,0,1.13,1.17,1.11,1.11,0,0,0,1.2-1.05,1.18,1.18,0,0,0-1.13-1.18A1.12,1.12,0,0,0,229.38,172.92Z" style="fill:#263238"></path><path d="M228.25,171.61c.15.15,1-.5,2.28-.5s2.17.63,2.31.48-.08-.34-.48-.63a3.17,3.17,0,0,0-1.85-.57,3,3,0,0,0-1.81.58C228.31,171.27,228.18,171.54,228.25,171.61Z" style="fill:#263238"></path><path d="M242,172.92a1.15,1.15,0,0,0,1.12,1.17,1.11,1.11,0,0,0,1.2-1.05,1.18,1.18,0,0,0-1.12-1.18A1.12,1.12,0,0,0,242,172.92Z" style="fill:#263238"></path><path d="M240.57,171.84c.15.16,1-.5,2.28-.49s2.18.63,2.31.47-.08-.34-.48-.63a3.2,3.2,0,0,0-1.85-.57,3,3,0,0,0-1.81.59C240.63,171.5,240.5,171.78,240.57,171.84Z" style="fill:#263238"></path><path d="M236,181.14a8.68,8.68,0,0,0-2-.37c-.32,0-.63-.09-.68-.31a1.71,1.71,0,0,1,.21-1c.31-.77.62-1.59.95-2.44a41.61,41.61,0,0,0,2.13-6.37,42.47,42.47,0,0,0-2.64,6.19c-.31.85-.62,1.67-.9,2.45a1.89,1.89,0,0,0-.17,1.26.8.8,0,0,0,.53.46,1.86,1.86,0,0,0,.54.08A8,8,0,0,0,236,181.14Z" style="fill:#263238"></path><path d="M235.16,196a23.11,23.11,0,0,0,12.16-3.25s-2.95,6.24-12,5.39Z" style="fill:#eb996e"></path><path d="M243.21,183.09c0,.14-.83.31-1.8,0s-1.53-1-1.43-1.11.74.32,1.6.62S243.21,182.94,243.21,183.09Z" style="fill:#eb996e"></path><path d="M237,158.52c-2,3.45-7.63,6.32-11.32,7.8a14,14,0,0,1,2.16-5,8.34,8.34,0,0,1,4.33-3.2c.89-.26,3.15-.52,3.8.15" style="fill:#263238"></path><path d="M235.23,184.32a.82.82,0,0,1,.67-.6c.28-.05.56,0,.85,0a11.66,11.66,0,0,0,1.28-.37,1,1,0,0,1,1.18.53,1.62,1.62,0,0,1-.16,1.42,2,2,0,0,1-1,.73,3.7,3.7,0,0,1-1.39.24,1.43,1.43,0,0,1-.93-.33,1.69,1.69,0,0,1-.32-1.64" style="fill:#eb996e"></path><path d="M240.13,184a4.14,4.14,0,0,1-2.62,1.09,3.82,3.82,0,0,1-2.79-.5c0-.15,1.25.16,2.73,0S240.06,183.86,240.13,184Z" style="fill:#263238"></path><path d="M227.18,215.31a252.55,252.55,0,0,0-3.64,27.95c-.19,2.6-1.49,13.13-1.49,13.13l10.84,7.89-2.27,9.64c-7.06-1.36-15.59-.57-22.57-2.26-2.22-.54-4.59-1.19-6.08-2.92-2-2.34-1.79-5.83-1.43-8.91.48-4.09,1.09-8.49,3.92-11.49,2.39-2.54,6.07-3.72,8-6.59,1.79-2.6,1.77-6,2.17-9.12A31.34,31.34,0,0,1,229,210.28" style="fill:#FF725E"></path><path d="M235.16,203.14s-15.8,16.73-16.9,21.5,16.62,12.06,26,8.59,11.87-8.12,11.63-12.41-5.55-17.68-5.55-17.68Z" style="fill:#ffbe9d"></path><path d="M258.89,169.47l.09.92c1.06,11.41,1.32,22.89,1.59,34.35.07,3.17,0,6.67-2.07,9a8.86,8.86,0,0,1-5.16,2.63c-1.81.32-3.88.21-5.2-1.06-1.66-1.6-1.47-4.26-1.19-6.55,1.44-11.72,3.47-23.83,3.24-35.63a6.49,6.49,0,0,0-.41-2.6c-.55-1.23-3.19-1.7-4.26-2.52-3.13-2.37-6.88-6.07-8-9.84l14.71-.27,5.08,2.66" style="fill:#263238"></path><path d="M222.62,255.46a5.07,5.07,0,0,1-.72-.94,25.25,25.25,0,0,1-1.66-2.77,31.52,31.52,0,0,1-1.94-4.39,34.84,34.84,0,0,1-1.46-5.68,37.24,37.24,0,0,1-.16-10.64,30.39,30.39,0,0,1,.54-3.18,4.66,4.66,0,0,1,.32-1.14c.09,0-.24,1.67-.5,4.36a41.68,41.68,0,0,0,.31,10.51,36.61,36.61,0,0,0,3.21,10C221.76,254,222.7,255.41,222.62,255.46Z" style="fill:#263238"></path><path d="M232.36,265c-.07.05-.72-.86-1.91-2.23a47.34,47.34,0,0,0-5-5,39.21,39.21,0,0,0-5.75-4.08c-1.56-.9-2.61-1.31-2.58-1.39a2.51,2.51,0,0,1,.77.2,15.94,15.94,0,0,1,2,.87,30.89,30.89,0,0,1,5.9,4,35.53,35.53,0,0,1,5,5.12A11.17,11.17,0,0,1,232.36,265Z" style="fill:#263238"></path><path d="M228.55,265.44l3.81-.48,14.77,6s-.95,1.14-1.62.95a14.7,14.7,0,0,1-1.52-.57s6.67,5.34,6.2,6.1-1.72-.19-3.25-.76a58.35,58.35,0,0,1-5.52-3s7.14,7.15,7.05,8-1.05,1.43-1.62.95-2-1.52-2-1.52-.67,1.05-1.62.95a7.38,7.38,0,0,1-2-.57s-2.28,1.14-3.14.57-8.1-8.2-8.1-8.2l-3.15-.76S224.93,266.78,228.55,265.44Z" style="fill:#ffbe9d"></path><path d="M239,269.4a7.65,7.65,0,0,1,2.71.79,7.91,7.91,0,0,1,2.52,1.27,7.65,7.65,0,0,1-2.71-.79A8.05,8.05,0,0,1,239,269.4Z" style="fill:#eb996e"></path><path d="M238.7,275.24a21.71,21.71,0,0,1,3.1,2.89,23.24,23.24,0,0,1,2.9,3.09,23.68,23.68,0,0,1-6-6Z" style="fill:#eb996e"></path><path d="M237.76,279.27c.11-.09.77.47,1.61,1.12s1.54,1.15,1.47,1.28-.92-.19-1.79-.87S237.66,279.36,237.76,279.27Z" style="fill:#eb996e"></path><g style="opacity:0.2"><path d="M237,266.89a10.32,10.32,0,0,1,4.19-6.35c2.05-1.6,4.41-2.75,6.56-4.21a12.46,12.46,0,0,0,5.05-5.78c.6-1.69.63-3.54,1.21-5.23s2-3.33,3.83-3.21a3.57,3.57,0,0,1,2.62,1.73,8.14,8.14,0,0,1,1,3.06,9,9,0,0,1-.34,5.06c-.83,1.85-2.57,3.09-4.24,4.23-6,4.13-10.67,7.84-16.71,12"></path></g><path d="M221.15,254.65a11.74,11.74,0,0,0-6.63-6.6,2.94,2.94,0,0,1,1.43.31,8.74,8.74,0,0,1,4.88,4.86A2.89,2.89,0,0,1,221.15,254.65Z" style="fill:#263238"></path><path d="M225,252.24s-.23-.23-.57-.7a16,16,0,0,1-1.27-2.12,24,24,0,0,1-2.11-15.88,18.25,18.25,0,0,1,.68-2.38c.2-.54.33-.84.37-.82s-.33,1.24-.68,3.27a26.25,26.25,0,0,0,2.07,15.65C224.39,251.12,225.1,252.19,225,252.24Z" style="fill:#263238"></path><path d="M230.59,253.85s-.19-.22-.46-.68a17.07,17.07,0,0,1-1-2A24,24,0,0,1,227.4,244a23.71,23.71,0,0,1,.5-7.35,16.17,16.17,0,0,1,.62-2.14,2.9,2.9,0,0,1,.34-.75c.09,0-.27,1.14-.6,3A27.27,27.27,0,0,0,229.49,251C230.13,252.78,230.67,253.81,230.59,253.85Z" style="fill:#263238"></path><path d="M236.83,255.79s-.21-.22-.53-.67a14.48,14.48,0,0,1-1.15-2,19.55,19.55,0,0,1-1.22-3.25,23.31,23.31,0,0,1-.7-4.19,22.44,22.44,0,0,1,.19-4.25,19,19,0,0,1,.81-3.37,13.93,13.93,0,0,1,.9-2.15c.26-.49.41-.75.44-.73s-.45,1.13-1,3a22,22,0,0,0,.9,14.79C236.24,254.73,236.91,255.74,236.83,255.79Z" style="fill:#263238"></path><path d="M242.94,254.17s-.19-.2-.46-.63a14.72,14.72,0,0,1-1-1.88,23.77,23.77,0,0,1-2-6.73,23.44,23.44,0,0,1,.07-7,13.86,13.86,0,0,1,.46-2.07c.14-.49.23-.75.27-.74s-.17,1.1-.37,2.86a27.43,27.43,0,0,0,1.88,13.57C242.48,253.16,243,254.13,242.94,254.17Z" style="fill:#263238"></path><path d="M231,228.43a4,4,0,0,1,1.49,2.31,5,5,0,0,1,.25,2c-.06.51-.2.8-.27.78a19.6,19.6,0,0,0-.48-2.58C231.56,229.52,230.88,228.53,231,228.43Z" style="fill:#eb996e"></path><path d="M238.25,227.93c0,.07-.41.28-1.12.6a12.26,12.26,0,0,0-2.58,1.43,6,6,0,0,0-1.65,2.35c-.29.7-.35,1.18-.43,1.17s-.14-.51.08-1.29a5.46,5.46,0,0,1,1.67-2.64,9,9,0,0,1,2.78-1.37A3.08,3.08,0,0,1,238.25,227.93Z" style="fill:#eb996e"></path><path d="M289.4,254.34c-.82-2.58-2.63-4.71-4-7C283.1,243.43,282,239,281,234.59s-1.79-8.87-3.65-13-4.35-10-9-9.64v0c-4.81.19-9.63,2.83-13.12,6.14a39,39,0,0,0-10.82,18.41c-1.79,7,0,19.81,2.18,26.68l9.48-6.48a26.85,26.85,0,0,1-1.22-22.6c3-7.19,9.85-12.89,17.28-15.18,2.54,7.49,4.81,15.49,6.94,22.72,1.86,6.34,4.31,13,2.28,19.28-.52,1.61-2.73,4.2-1.39,5.22,1.71,1.3,4.24.6,5.94-.72A10.41,10.41,0,0,0,289.4,254.34Z" style="fill:#FF725E"></path><g style="opacity:0.4"><path d="M289.4,254.34c-.82-2.58-2.63-4.71-4-7C283.1,243.43,282,239,281,234.59s-1.79-8.87-3.65-13-4.35-10-9-9.64v0c-4.81.19-9.63,2.83-13.12,6.14a39,39,0,0,0-10.82,18.41c-1.79,7,0,19.81,2.18,26.68l9.48-6.48a26.85,26.85,0,0,1-1.22-22.6c3-7.19,9.85-12.89,17.28-15.18,2.54,7.49,4.81,15.49,6.94,22.72,1.86,6.34,4.31,13,2.28,19.28-.52,1.61-2.73,4.2-1.39,5.22,1.71,1.3,4.24.6,5.94-.72A10.41,10.41,0,0,0,289.4,254.34Z"></path></g><path d="M258.23,232.22a12.45,12.45,0,0,1,.42,1.77c.27,1.23.64,2.86,1.08,4.84s1,4.47,1.49,7.22c.22,1.37.4,2.81.5,4.34a3.51,3.51,0,0,1-.57,2.34,7.74,7.74,0,0,1-1.8,1.64c-5.15,3.8-9.82,7.21-13.21,9.66l-4,2.88-1.11.76c-.26.17-.4.26-.41.24a2.12,2.12,0,0,1,.34-.32l1.06-.84,3.94-3c3.34-2.53,8-6,13.12-9.79a7.53,7.53,0,0,0,1.69-1.51,3,3,0,0,0,.48-2c-.09-1.49-.26-2.93-.46-4.29-.42-2.73-1-5.16-1.38-7.21s-.74-3.72-.92-4.88c-.09-.58-.15-1-.19-1.34A1.4,1.4,0,0,1,258.23,232.22Z" style="fill:#263238"></path><path d="M269.59,255.52a11.93,11.93,0,0,0-3.39-2.74,12.07,12.07,0,0,0-4.26-.89,2.56,2.56,0,0,1,1.32-.27,7.11,7.11,0,0,1,3.17.69,6.94,6.94,0,0,1,2.53,2C269.47,255,269.64,255.49,269.59,255.52Z" style="fill:#263238"></path><path d="M275.07,216.87a5.25,5.25,0,0,0-2-.69,10,10,0,0,0-5.61,1.5,33.19,33.19,0,0,0-7,5.28,38.33,38.33,0,0,0-6.73,8.37,25.93,25.93,0,0,0-2.94,10.25,30.87,30.87,0,0,0,.54,8.75,32.06,32.06,0,0,0,1.74,5.67c.53,1.31.88,2,.84,2a2.16,2.16,0,0,1-.29-.49,14.92,14.92,0,0,1-.73-1.46,28.64,28.64,0,0,1-1.92-5.67,30.57,30.57,0,0,1-.66-8.87,26,26,0,0,1,3-10.46,37.68,37.68,0,0,1,6.85-8.47,32.48,32.48,0,0,1,7.16-5.26,9.83,9.83,0,0,1,5.81-1.37,4.74,4.74,0,0,1,.92.23,5.91,5.91,0,0,1,.62.31A2.65,2.65,0,0,1,275.07,216.87Z" style="fill:#263238"></path><path d="M272.93,213.59s-.85.15-2.36.47a27.62,27.62,0,0,0-6.13,2.13,30.18,30.18,0,0,0-7.87,5.52,32.52,32.52,0,0,0-6.8,9.56,36.21,36.21,0,0,0-3,11.38,40.76,40.76,0,0,0,.21,9.64,45.91,45.91,0,0,0,1.33,6.39c.19.75.39,1.31.5,1.7a2.52,2.52,0,0,1,.14.61,3.05,3.05,0,0,1-.24-.57c-.14-.38-.38-.94-.6-1.68a41.41,41.41,0,0,1-1.82-16.14,35.87,35.87,0,0,1,3-11.54,31.9,31.9,0,0,1,6.94-9.69,29.73,29.73,0,0,1,8-5.51,25.15,25.15,0,0,1,6.25-2,16.89,16.89,0,0,1,1.78-.24A2.43,2.43,0,0,1,272.93,213.59Z" style="fill:#263238"></path><g style="opacity:0.2"><path d="M220.35,253.85c-1.75-1-3.53-2.58-5.28-3.54a3.53,3.53,0,0,1-1.1-.81,1.07,1.07,0,0,1,1.17-1.76,3.46,3.46,0,0,1,1.33.81,15,15,0,0,1-1.52-4.61c-.1-.58,0-1.37.55-1.52s1,.54,1.24,1.11c1.33,3.42,3.62,8.2,5.24,11.33"></path></g></g><g id="freepik--Lamp--inject-40"><rect x="202.83" y="50.29" width="3.3" height="23" rx="1.65" style="fill:#263238"></rect><path d="M288,73.29h0a1.65,1.65,0,0,1-1.65-1.65V51.94A1.65,1.65,0,0,1,288,50.29h0a1.65,1.65,0,0,1,1.65,1.65v19.7A1.65,1.65,0,0,1,288,73.29Z" style="fill:#263238"></path><polygon points="184.09 69.59 311.3 69.59 317.24 83.34 180.87 83.34 184.09 69.59" style="fill:#263238"></polygon></g></svg>