<svg width="965" height="508" viewBox="0 0 965 508" fill="none" xmlns="http://www.w3.org/2000/svg">
<rect width="965" height="507.674" fill="white"/>
<path d="M25.3806 281L81.5199 155.046H110.309L166.629 281H136.04L89.9768 169.801H101.493L55.2496 281H25.3806ZM53.4502 254.01L61.1874 231.878H125.964L133.881 254.01H53.4502ZM238.757 283.159C228.8 283.159 219.624 281.6 211.227 278.481C202.95 275.242 195.692 270.684 189.455 264.806C183.337 258.928 178.539 252.031 175.06 244.114C171.701 236.197 170.022 227.5 170.022 218.023C170.022 208.547 171.701 199.85 175.06 191.933C178.539 184.016 183.397 177.118 189.635 171.24C195.872 165.363 203.19 160.864 211.587 157.745C219.984 154.507 229.22 152.887 239.296 152.887C250.452 152.887 260.469 154.747 269.345 158.465C278.342 162.184 285.899 167.582 292.017 174.659L273.304 191.933C268.746 187.135 263.767 183.596 258.369 181.317C252.971 178.918 247.094 177.718 240.736 177.718C234.618 177.718 229.04 178.678 224.002 180.597C218.964 182.516 214.586 185.275 210.867 188.874C207.268 192.473 204.449 196.731 202.41 201.649C200.491 206.567 199.531 212.025 199.531 218.023C199.531 223.901 200.491 229.299 202.41 234.217C204.449 239.135 207.268 243.454 210.867 247.172C214.586 250.771 218.904 253.53 223.822 255.449C228.86 257.369 234.378 258.328 240.376 258.328C246.134 258.328 251.712 257.429 257.11 255.629C262.628 253.71 267.966 250.531 273.124 246.093L289.678 267.145C282.84 272.303 274.863 276.262 265.747 279.021C256.75 281.78 247.753 283.159 238.757 283.159ZM263.048 263.367V216.044H289.678V267.145L263.048 263.367ZM403.123 155.046H432.272V281H403.123V155.046ZM345.904 281H316.755V155.046H345.904V281ZM405.282 229.359H343.745V204.708H405.282V229.359ZM445.519 281L501.658 155.046H530.447L586.767 281H556.178L510.115 169.801H521.631L475.388 281H445.519ZM473.588 254.01L481.325 231.878H546.102L554.019 254.01H473.588ZM599.834 281V155.046H628.983V281H599.834ZM658.875 281V155.046H716.094C729.769 155.046 741.824 157.685 752.26 162.964C762.697 168.122 770.854 175.379 776.731 184.735C782.609 194.092 785.548 205.188 785.548 218.023C785.548 230.739 782.609 241.834 776.731 251.311C770.854 260.667 762.697 267.985 752.26 273.263C741.824 278.421 729.769 281 716.094 281H658.875ZM688.024 257.069H714.654C723.051 257.069 730.309 255.509 736.426 252.391C742.664 249.152 747.462 244.593 750.821 238.716C754.3 232.838 756.039 225.94 756.039 218.023C756.039 209.986 754.3 203.089 750.821 197.331C747.462 191.453 742.664 186.955 736.426 183.836C730.309 180.597 723.051 178.978 714.654 178.978H688.024V257.069ZM893.899 155.046H923.048V281H893.899V155.046ZM836.68 281H807.531V155.046H836.68V281ZM896.058 229.359H834.521V204.708H896.058V229.359Z" fill="url(#paint0_linear_365_14)"/>
<path d="M312.972 356.342H331.175L330.315 360.691H312.062L312.972 356.342ZM309.686 375H304.629L311.708 339.606H336.686L335.827 344.005H315.854L309.686 375ZM347.01 375.303C344.751 375.303 342.729 374.848 340.942 373.938C339.156 372.994 337.74 371.663 336.695 369.944C335.683 368.225 335.178 366.151 335.178 363.724C335.178 361.432 335.549 359.325 336.29 357.404C337.066 355.483 338.127 353.814 339.476 352.398C340.858 350.982 342.476 349.887 344.33 349.112C346.184 348.336 348.189 347.949 350.347 347.949C352.673 347.949 354.645 348.353 356.263 349.162C357.881 349.971 359.128 351.168 360.004 352.752C360.881 354.303 361.319 356.207 361.319 358.466C361.319 361.769 360.746 364.702 359.6 367.264C358.454 369.792 356.802 371.764 354.645 373.18C352.521 374.595 349.976 375.303 347.01 375.303ZM348.072 371.056C350.094 371.056 351.897 370.567 353.482 369.59C355.066 368.612 356.296 367.281 357.173 365.595C358.083 363.876 358.538 361.921 358.538 359.73C358.538 357.37 357.847 355.533 356.465 354.218C355.083 352.87 353.111 352.196 350.549 352.196C348.56 352.196 346.774 352.685 345.189 353.662C343.605 354.606 342.358 355.938 341.448 357.657C340.538 359.342 340.083 361.297 340.083 363.522C340.083 365.848 340.774 367.685 342.156 369.034C343.538 370.382 345.51 371.056 348.072 371.056ZM355.808 375L357.223 368.073L358.842 361.854L359.499 355.483L360.915 348.201H365.769L360.46 375H355.808ZM382.386 375.303C379.79 375.303 377.532 374.831 375.61 373.888C373.723 372.91 372.256 371.562 371.211 369.843C370.166 368.09 369.644 366.05 369.644 363.724C369.644 360.691 370.318 357.994 371.666 355.634C373.015 353.241 374.886 351.37 377.279 350.022C379.672 348.64 382.386 347.949 385.42 347.949C388.015 347.949 390.24 348.437 392.094 349.415C393.948 350.359 395.398 351.808 396.442 353.763L392.347 356.039C391.673 354.724 390.712 353.763 389.465 353.157C388.251 352.516 386.785 352.196 385.066 352.196C383.043 352.196 381.24 352.685 379.655 353.662C378.071 354.606 376.824 355.938 375.914 357.657C375.004 359.342 374.549 361.297 374.549 363.522C374.549 365.848 375.24 367.685 376.622 369.034C378.037 370.382 380.026 371.056 382.588 371.056C384.172 371.056 385.656 370.736 387.038 370.095C388.453 369.455 389.633 368.511 390.577 367.264L394.117 369.792C392.903 371.511 391.251 372.859 389.161 373.837C387.071 374.815 384.813 375.303 382.386 375.303ZM410.978 375.303C408.349 375.303 406.074 374.831 404.152 373.888C402.231 372.91 400.748 371.562 399.703 369.843C398.658 368.09 398.135 366.033 398.135 363.674C398.135 360.64 398.792 357.943 400.107 355.584C401.422 353.224 403.208 351.37 405.467 350.022C407.759 348.64 410.355 347.949 413.254 347.949C415.681 347.949 417.787 348.421 419.574 349.364C421.361 350.275 422.743 351.589 423.72 353.308C424.731 355.027 425.237 357.101 425.237 359.528C425.237 360.134 425.203 360.758 425.136 361.398C425.069 362.005 424.984 362.578 424.883 363.118H401.675L402.281 359.578H422.557L420.585 360.792C420.889 358.904 420.754 357.32 420.181 356.039C419.608 354.724 418.698 353.73 417.45 353.056C416.237 352.348 414.771 351.994 413.051 351.994C411.029 351.994 409.242 352.482 407.692 353.46C406.175 354.404 404.995 355.735 404.152 357.455C403.309 359.14 402.888 361.129 402.888 363.421C402.888 365.848 403.579 367.736 404.961 369.084C406.377 370.399 408.518 371.056 411.383 371.056C413.068 371.056 414.636 370.786 416.085 370.247C417.535 369.674 418.731 368.916 419.675 367.972L421.748 371.461C420.467 372.708 418.866 373.668 416.945 374.343C415.023 374.983 413.035 375.303 410.978 375.303ZM443.333 375L450.412 339.606H463.558C467.704 339.606 470.907 340.516 473.165 342.336C475.424 344.156 476.553 346.701 476.553 349.971C476.553 352.971 475.879 355.55 474.53 357.707C473.216 359.831 471.311 361.466 468.817 362.612C466.322 363.724 463.373 364.281 459.968 364.281H448.339L451.019 361.854L448.389 375H443.333ZM450.917 362.41L449.148 359.882H460.069C463.676 359.882 466.474 359.089 468.463 357.505C470.485 355.887 471.497 353.527 471.497 350.426C471.497 348.303 470.772 346.701 469.322 345.623C467.873 344.544 465.8 344.005 463.103 344.005H452.434L455.114 341.426L450.917 362.41ZM490.355 375.303C488.096 375.303 486.074 374.848 484.287 373.938C482.501 372.994 481.085 371.663 480.04 369.944C479.029 368.225 478.523 366.151 478.523 363.724C478.523 361.432 478.894 359.325 479.635 357.404C480.411 355.483 481.473 353.814 482.821 352.398C484.203 350.982 485.821 349.887 487.675 349.112C489.529 348.336 491.535 347.949 493.692 347.949C496.018 347.949 497.99 348.353 499.608 349.162C501.226 349.971 502.473 351.168 503.35 352.752C504.226 354.303 504.664 356.207 504.664 358.466C504.664 361.769 504.091 364.702 502.945 367.264C501.799 369.792 500.147 371.764 497.99 373.18C495.866 374.595 493.321 375.303 490.355 375.303ZM491.417 371.056C493.439 371.056 495.243 370.567 496.827 369.59C498.411 368.612 499.642 367.281 500.518 365.595C501.428 363.876 501.883 361.921 501.883 359.73C501.883 357.37 501.192 355.533 499.81 354.218C498.428 352.87 496.456 352.196 493.894 352.196C491.905 352.196 490.119 352.685 488.535 353.662C486.95 354.606 485.703 355.938 484.793 357.657C483.883 359.342 483.428 361.297 483.428 363.522C483.428 365.848 484.119 367.685 485.501 369.034C486.883 370.382 488.855 371.056 491.417 371.056ZM499.153 375L500.569 368.073L502.187 361.854L502.844 355.483L504.26 348.201H509.114L503.805 375H499.153ZM513.04 375L518.349 348.201H523.203L517.894 375H513.04ZM522.192 343.044C521.281 343.044 520.54 342.757 519.967 342.184C519.427 341.611 519.158 340.92 519.158 340.111C519.158 339.167 519.478 338.375 520.118 337.735C520.759 337.061 521.602 336.724 522.647 336.724C523.523 336.724 524.248 337.01 524.821 337.583C525.428 338.122 525.731 338.78 525.731 339.555C525.731 340.6 525.411 341.443 524.77 342.083C524.13 342.724 523.27 343.044 522.192 343.044ZM546.174 347.949C548.533 347.949 550.505 348.421 552.09 349.364C553.674 350.308 554.769 351.69 555.376 353.511C556.017 355.297 556.084 357.455 555.578 359.983L552.595 375H547.741L550.724 359.983C551.23 357.556 550.994 355.668 550.016 354.32C549.039 352.971 547.286 352.297 544.758 352.297C542.162 352.297 540.005 353.005 538.286 354.421C536.567 355.803 535.42 357.943 534.847 360.842L532.016 375H527.162L532.471 348.201H537.123L535.606 355.887L534.696 353.814C535.977 351.791 537.595 350.308 539.55 349.364C541.539 348.421 543.747 347.949 546.174 347.949ZM570.781 375.303C569.163 375.303 567.764 374.949 566.584 374.242C565.438 373.534 564.612 372.522 564.107 371.208C563.635 369.893 563.567 368.342 563.904 366.556L568.758 342.336H573.613L568.758 366.455C568.522 367.904 568.657 369.067 569.163 369.944C569.702 370.786 570.697 371.208 572.146 371.208C572.82 371.208 573.495 371.107 574.169 370.904C574.843 370.668 575.45 370.348 575.989 369.944L577 373.635C576.09 374.275 575.079 374.713 573.966 374.949C572.888 375.185 571.826 375.303 570.781 375.303ZM562.236 352.196L562.994 348.201H580.135L579.326 352.196H562.236ZM582.515 375L587.824 348.201H592.678L587.369 375H582.515ZM591.667 343.044C590.757 343.044 590.015 342.757 589.442 342.184C588.903 341.611 588.633 340.92 588.633 340.111C588.633 339.167 588.953 338.375 589.594 337.735C590.234 337.061 591.077 336.724 592.122 336.724C592.998 336.724 593.723 337.01 594.296 337.583C594.903 338.122 595.206 338.78 595.206 339.555C595.206 340.6 594.886 341.443 594.246 342.083C593.605 342.724 592.746 343.044 591.667 343.044ZM615.649 347.949C618.008 347.949 619.98 348.421 621.565 349.364C623.149 350.308 624.245 351.69 624.851 353.511C625.492 355.297 625.559 357.455 625.054 359.983L622.07 375H617.216L620.2 359.983C620.705 357.556 620.469 355.668 619.492 354.32C618.514 352.971 616.761 352.297 614.233 352.297C611.638 352.297 609.48 353.005 607.761 354.421C606.042 355.803 604.896 357.943 604.323 360.842L601.491 375H596.637L601.946 348.201H606.598L605.081 355.887L604.171 353.814C605.452 351.791 607.07 350.308 609.025 349.364C611.014 348.421 613.222 347.949 615.649 347.949ZM641.369 385.113C638.84 385.113 636.531 384.776 634.441 384.101C632.351 383.461 630.582 382.534 629.132 381.32L631.812 377.579C632.857 378.556 634.239 379.332 635.958 379.905C637.711 380.511 639.633 380.815 641.723 380.815C644.891 380.815 647.318 380.09 649.004 378.641C650.689 377.225 651.818 375.051 652.391 372.118L653.656 365.899L655.172 360.893L655.931 355.533L657.397 348.201H661.998L657.397 371.359C656.42 376.214 654.616 379.719 651.987 381.877C649.358 384.034 645.818 385.113 641.369 385.113ZM643.088 373.888C640.762 373.888 638.689 373.449 636.868 372.573C635.082 371.697 633.683 370.449 632.672 368.831C631.66 367.18 631.155 365.224 631.155 362.966C631.155 360.809 631.526 358.837 632.267 357.05C633.043 355.23 634.104 353.645 635.453 352.297C636.801 350.915 638.402 349.853 640.256 349.112C642.144 348.336 644.2 347.949 646.425 347.949C648.447 347.949 650.285 348.303 651.936 349.01C653.622 349.718 654.953 350.814 655.931 352.297C656.942 353.747 657.448 355.634 657.448 357.96C657.481 360.927 656.925 363.623 655.779 366.05C654.633 368.444 652.981 370.348 650.824 371.764C648.7 373.18 646.122 373.888 643.088 373.888ZM644.048 369.64C646.105 369.64 647.908 369.185 649.459 368.275C651.043 367.365 652.29 366.118 653.2 364.533C654.111 362.949 654.566 361.146 654.566 359.123C654.566 356.966 653.858 355.28 652.442 354.067C651.06 352.82 649.105 352.196 646.577 352.196C644.52 352.196 642.7 352.651 641.116 353.561C639.565 354.438 638.335 355.668 637.425 357.252C636.515 358.837 636.059 360.64 636.059 362.663C636.059 364.854 636.767 366.573 638.183 367.82C639.599 369.034 641.554 369.64 644.048 369.64Z" fill="url(#paint1_linear_365_14)"/>
<defs>
<linearGradient id="paint0_linear_365_14" x1="482.5" y1="107" x2="482.5" y2="326" gradientUnits="userSpaceOnUse">
<stop stop-color="#09B25C"/>
<stop offset="1" stop-color="#2EA5D6"/>
</linearGradient>
<linearGradient id="paint1_linear_365_14" x1="483" y1="326" x2="483" y2="388" gradientUnits="userSpaceOnUse">
<stop stop-color="#0AB35D"/>
<stop offset="1" stop-color="#2EA5D5"/>
</linearGradient>
</defs>
</svg>
