<svg width="965" height="508" viewBox="0 0 965 508" fill="none" xmlns="http://www.w3.org/2000/svg">
<rect width="965" height="507.674" fill="white"/>
<path d="M73.9345 281V155.046H131.153C144.828 155.046 156.884 157.685 167.32 162.964C177.756 168.122 185.913 175.379 191.791 184.735C197.669 194.092 200.608 205.188 200.608 218.023C200.608 230.739 197.669 241.834 191.791 251.311C185.913 260.667 177.756 267.985 167.32 273.263C156.884 278.421 144.828 281 131.153 281H73.9345ZM103.084 257.069H129.714C138.111 257.069 145.368 255.509 151.486 252.391C157.724 249.152 162.522 244.593 165.881 238.716C169.359 232.838 171.099 225.94 171.099 218.023C171.099 209.986 169.359 203.089 165.881 197.331C162.522 191.453 157.724 186.955 151.486 183.836C145.368 180.597 138.111 178.978 129.714 178.978H103.084V257.069ZM249.401 205.788H310.038V228.459H249.401V205.788ZM251.56 257.609H320.115V281H222.591V155.046H317.776V178.438H251.56V257.609ZM384.693 283.159C374.616 283.159 364.96 281.84 355.723 279.201C346.487 276.442 339.049 272.903 333.411 268.585L343.308 246.633C348.706 250.471 355.063 253.65 362.381 256.169C369.818 258.568 377.315 259.768 384.872 259.768C390.63 259.768 395.249 259.228 398.727 258.148C402.326 256.949 404.965 255.329 406.644 253.29C408.324 251.251 409.164 248.912 409.164 246.273C409.164 242.914 407.844 240.275 405.205 238.356C402.566 236.316 399.087 234.697 394.769 233.498C390.45 232.178 385.652 230.978 380.374 229.899C375.216 228.699 369.998 227.26 364.72 225.58C359.562 223.901 354.824 221.742 350.505 219.103C346.187 216.464 342.648 212.985 339.889 208.667C337.25 204.348 335.931 198.83 335.931 192.113C335.931 184.915 337.85 178.378 341.688 172.5C345.647 166.502 351.525 161.764 359.322 158.285C367.239 154.687 377.135 152.887 389.011 152.887C396.928 152.887 404.725 153.847 412.402 155.766C420.08 157.566 426.857 160.324 432.735 164.043L423.738 186.175C417.86 182.816 411.982 180.357 406.105 178.798C400.227 177.118 394.469 176.279 388.831 176.279C383.193 176.279 378.575 176.938 374.976 178.258C371.377 179.577 368.798 181.317 367.239 183.476C365.68 185.515 364.9 187.914 364.9 190.673C364.9 193.912 366.219 196.551 368.858 198.59C371.497 200.51 374.976 202.069 379.295 203.269C383.613 204.468 388.351 205.668 393.509 206.867C398.787 208.067 404.005 209.446 409.164 211.006C414.442 212.565 419.24 214.664 423.558 217.303C427.877 219.943 431.355 223.421 433.994 227.74C436.753 232.058 438.133 237.516 438.133 244.114C438.133 251.191 436.154 257.669 432.195 263.546C428.236 269.424 422.299 274.163 414.382 277.761C406.584 281.36 396.688 283.159 384.693 283.159ZM441.497 281L497.636 155.046H526.425L582.745 281H552.156L506.093 169.801H517.609L471.366 281H441.497ZM469.566 254.01L477.304 231.878H542.08L549.997 254.01H469.566ZM622.802 211.726H683.26V235.117H622.802V211.726ZM624.962 281H595.812V155.046H690.997V178.438H624.962V281ZM710.731 281V155.046H739.88V281H710.731ZM830.949 283.159C820.993 283.159 811.756 281.54 803.239 278.301C794.842 275.062 787.525 270.504 781.287 264.626C775.17 258.748 770.371 251.851 766.893 243.934C763.534 236.017 761.855 227.38 761.855 218.023C761.855 208.667 763.534 200.03 766.893 192.113C770.371 184.196 775.23 177.298 781.467 171.42C787.705 165.543 795.022 160.984 803.419 157.745C811.816 154.507 820.933 152.887 830.769 152.887C840.725 152.887 849.842 154.507 858.119 157.745C866.516 160.984 873.773 165.543 879.891 171.42C886.129 177.298 890.987 184.196 894.466 192.113C897.944 199.91 899.684 208.547 899.684 218.023C899.684 227.38 897.944 236.077 894.466 244.114C890.987 252.031 886.129 258.928 879.891 264.806C873.773 270.564 866.516 275.062 858.119 278.301C849.842 281.54 840.785 283.159 830.949 283.159ZM830.769 258.328C836.407 258.328 841.565 257.369 846.243 255.449C851.042 253.53 855.24 250.771 858.839 247.172C862.437 243.574 865.196 239.315 867.116 234.397C869.155 229.479 870.175 224.021 870.175 218.023C870.175 212.025 869.155 206.567 867.116 201.649C865.196 196.731 862.437 192.473 858.839 188.874C855.36 185.275 851.222 182.516 846.423 180.597C841.625 178.678 836.407 177.718 830.769 177.718C825.131 177.718 819.913 178.678 815.115 180.597C810.437 182.516 806.298 185.275 802.699 188.874C799.101 192.473 796.282 196.731 794.243 201.649C792.323 206.567 791.364 212.025 791.364 218.023C791.364 223.901 792.323 229.359 794.243 234.397C796.282 239.315 799.041 243.574 802.52 247.172C806.118 250.771 810.317 253.53 815.115 255.449C819.913 257.369 825.131 258.328 830.769 258.328Z" fill="url(#paint0_linear_364_4)"/>
<path d="M231.629 375L238.708 339.606H252.563C256.136 339.606 259.186 340.212 261.714 341.426C264.243 342.606 266.164 344.274 267.479 346.432C268.827 348.589 269.501 351.151 269.501 354.117C269.501 357.219 268.979 360.067 267.934 362.663C266.889 365.224 265.389 367.432 263.434 369.286C261.512 371.107 259.203 372.522 256.506 373.534C253.81 374.511 250.793 375 247.456 375H231.629ZM237.545 370.601H247.607C251.113 370.601 254.113 369.91 256.608 368.528C259.102 367.112 261.023 365.191 262.372 362.764C263.72 360.303 264.394 357.522 264.394 354.421C264.394 352.297 263.939 350.46 263.029 348.909C262.119 347.325 260.737 346.111 258.883 345.269C257.063 344.426 254.787 344.005 252.057 344.005H242.854L237.545 370.601ZM284.527 375.303C282.269 375.303 280.246 374.848 278.46 373.938C276.673 372.994 275.257 371.663 274.212 369.944C273.201 368.225 272.695 366.151 272.695 363.724C272.695 361.432 273.066 359.325 273.808 357.404C274.583 355.483 275.645 353.814 276.993 352.398C278.375 350.982 279.993 349.887 281.847 349.112C283.701 348.336 285.707 347.949 287.864 347.949C290.19 347.949 292.162 348.353 293.78 349.162C295.398 349.971 296.646 351.168 297.522 352.752C298.398 354.303 298.837 356.207 298.837 358.466C298.837 361.769 298.264 364.702 297.118 367.264C295.971 369.792 294.32 371.764 292.162 373.18C290.039 374.595 287.494 375.303 284.527 375.303ZM285.589 371.056C287.612 371.056 289.415 370.567 290.999 369.59C292.584 368.612 293.814 367.281 294.69 365.595C295.601 363.876 296.056 361.921 296.056 359.73C296.056 357.37 295.365 355.533 293.983 354.218C292.601 352.87 290.629 352.196 288.067 352.196C286.078 352.196 284.291 352.685 282.707 353.662C281.123 354.606 279.875 355.938 278.965 357.657C278.055 359.342 277.6 361.297 277.6 363.522C277.6 365.848 278.291 367.685 279.673 369.034C281.055 370.382 283.027 371.056 285.589 371.056ZM293.325 375L294.741 368.073L296.359 361.854L297.016 355.483L298.432 348.201H303.286L297.977 375H293.325ZM326.224 347.949C328.583 347.949 330.555 348.421 332.14 349.364C333.724 350.308 334.82 351.69 335.426 353.511C336.067 355.297 336.134 357.455 335.629 359.983L332.645 375H327.791L330.775 359.983C331.28 357.556 331.044 355.668 330.067 354.32C329.089 352.971 327.336 352.297 324.808 352.297C322.213 352.297 320.055 353.005 318.336 354.421C316.617 355.803 315.471 357.943 314.898 360.842L312.066 375H307.212L312.521 348.201H317.173L315.656 355.887L314.746 353.814C316.027 351.791 317.645 350.308 319.6 349.364C321.589 348.421 323.797 347.949 326.224 347.949ZM354.32 375.303C351.725 375.303 349.466 374.831 347.545 373.888C345.657 372.91 344.191 371.562 343.146 369.843C342.101 368.09 341.578 366.05 341.578 363.724C341.578 360.691 342.252 357.994 343.601 355.634C344.949 353.241 346.82 351.37 349.213 350.022C351.607 348.64 354.32 347.949 357.354 347.949C359.949 347.949 362.174 348.437 364.028 349.415C365.882 350.359 367.332 351.808 368.377 353.763L364.281 356.039C363.607 354.724 362.646 353.763 361.399 353.157C360.185 352.516 358.719 352.196 357 352.196C354.977 352.196 353.174 352.685 351.59 353.662C350.005 354.606 348.758 355.938 347.848 357.657C346.938 359.342 346.483 361.297 346.483 363.522C346.483 365.848 347.174 367.685 348.556 369.034C349.972 370.382 351.96 371.056 354.522 371.056C356.107 371.056 357.59 370.736 358.972 370.095C360.388 369.455 361.568 368.511 362.511 367.264L366.051 369.792C364.837 371.511 363.186 372.859 361.096 373.837C359.006 374.815 356.747 375.303 354.32 375.303ZM382.912 375.303C380.283 375.303 378.008 374.831 376.086 373.888C374.165 372.91 372.682 371.562 371.637 369.843C370.592 368.09 370.069 366.033 370.069 363.674C370.069 360.64 370.727 357.943 372.041 355.584C373.356 353.224 375.143 351.37 377.401 350.022C379.693 348.64 382.289 347.949 385.188 347.949C387.615 347.949 389.722 348.421 391.508 349.364C393.295 350.275 394.677 351.589 395.654 353.308C396.666 355.027 397.171 357.101 397.171 359.528C397.171 360.134 397.138 360.758 397.07 361.398C397.003 362.005 396.919 362.578 396.817 363.118H373.609L374.216 359.578H394.492L392.52 360.792C392.823 358.904 392.688 357.32 392.115 356.039C391.542 354.724 390.632 353.73 389.385 353.056C388.171 352.348 386.705 351.994 384.986 351.994C382.963 351.994 381.176 352.482 379.626 353.46C378.109 354.404 376.929 355.735 376.086 357.455C375.244 359.14 374.822 361.129 374.822 363.421C374.822 365.848 375.513 367.736 376.895 369.084C378.311 370.399 380.452 371.056 383.317 371.056C385.002 371.056 386.57 370.786 388.019 370.247C389.469 369.674 390.666 368.916 391.609 367.972L393.682 371.461C392.402 372.708 390.8 373.668 388.879 374.343C386.958 374.983 384.969 375.303 382.912 375.303ZM432.56 375.405C428.987 375.405 425.936 374.781 423.408 373.534C420.913 372.286 418.992 370.55 417.644 368.326C416.329 366.067 415.672 363.455 415.672 360.488C415.672 357.556 416.177 354.808 417.189 352.246C418.2 349.651 419.649 347.376 421.537 345.42C423.458 343.465 425.734 341.948 428.363 340.87C431.026 339.757 434.026 339.201 437.363 339.201C440.296 339.201 442.892 339.673 445.15 340.617C447.409 341.561 449.145 342.926 450.358 344.713L446.718 347.847C445.673 346.499 444.341 345.471 442.723 344.763C441.105 344.055 439.2 343.701 437.009 343.701C434.481 343.701 432.206 344.139 430.183 345.016C428.194 345.859 426.492 347.055 425.076 348.606C423.661 350.123 422.582 351.876 421.84 353.865C421.099 355.853 420.728 357.96 420.728 360.185C420.728 362.309 421.183 364.179 422.093 365.797C423.037 367.382 424.402 368.629 426.189 369.539C428.009 370.449 430.251 370.904 432.914 370.904C435.071 370.904 437.043 370.55 438.83 369.843C440.65 369.135 442.251 368.09 443.633 366.708L446.566 370.045C444.948 371.831 442.925 373.18 440.498 374.09C438.071 374.966 435.425 375.405 432.56 375.405ZM462.554 375.303C459.992 375.303 457.767 374.831 455.879 373.888C454.025 372.91 452.576 371.562 451.531 369.843C450.486 368.09 449.963 366.05 449.963 363.724C449.963 360.691 450.638 357.994 451.986 355.634C453.334 353.241 455.188 351.37 457.548 350.022C459.941 348.64 462.655 347.949 465.689 347.949C468.217 347.949 470.425 348.421 472.312 349.364C474.2 350.308 475.65 351.64 476.661 353.359C477.706 355.078 478.228 357.117 478.228 359.477C478.228 362.511 477.554 365.224 476.206 367.618C474.857 369.977 473.003 371.848 470.644 373.23C468.318 374.612 465.621 375.303 462.554 375.303ZM462.857 371.056C464.88 371.056 466.683 370.567 468.267 369.59C469.852 368.612 471.082 367.281 471.959 365.595C472.869 363.876 473.324 361.921 473.324 359.73C473.324 357.37 472.633 355.533 471.251 354.218C469.869 352.87 467.897 352.196 465.335 352.196C463.346 352.196 461.559 352.685 459.975 353.662C458.391 354.606 457.143 355.938 456.233 357.657C455.323 359.342 454.868 361.297 454.868 363.522C454.868 365.848 455.559 367.685 456.941 369.034C458.323 370.382 460.295 371.056 462.857 371.056ZM520.235 347.949C522.628 347.949 524.6 348.421 526.151 349.364C527.701 350.308 528.78 351.69 529.387 353.511C530.027 355.297 530.078 357.455 529.538 359.983L526.555 375H521.701L524.684 359.983C525.19 357.556 524.971 355.668 524.027 354.32C523.117 352.971 521.448 352.297 519.021 352.297C516.56 352.297 514.521 352.988 512.903 354.37C511.285 355.752 510.189 357.859 509.616 360.691L506.734 375H501.88L504.914 359.983C505.386 357.556 505.15 355.668 504.206 354.32C503.296 352.971 501.627 352.297 499.2 352.297C496.74 352.297 494.7 353.005 493.082 354.421C491.464 355.803 490.369 357.943 489.796 360.842L486.964 375H482.11L487.419 348.201H492.071L490.554 355.887L489.644 353.814C490.891 351.791 492.459 350.308 494.346 349.364C496.268 348.421 498.391 347.949 500.717 347.949C502.538 347.949 504.122 348.252 505.47 348.859C506.819 349.466 507.88 350.376 508.656 351.589C509.465 352.769 509.937 354.202 510.071 355.887L507.442 355.381C508.824 352.887 510.594 351.033 512.751 349.819C514.942 348.572 517.437 347.949 520.235 347.949ZM550.959 375.303C548.667 375.303 546.695 374.899 545.043 374.09C543.425 373.247 542.178 372.05 541.301 370.5C540.425 368.916 539.987 367.011 539.987 364.786C539.987 361.415 540.56 358.483 541.706 355.988C542.852 353.46 544.487 351.488 546.611 350.072C548.768 348.656 551.33 347.949 554.296 347.949C556.588 347.949 558.611 348.404 560.364 349.314C562.15 350.224 563.549 351.555 564.561 353.308C565.606 355.027 566.128 357.084 566.128 359.477C566.128 361.769 565.74 363.876 564.965 365.797C564.223 367.719 563.162 369.387 561.78 370.803C560.431 372.219 558.83 373.331 556.976 374.14C555.122 374.916 553.116 375.303 550.959 375.303ZM533.565 384.809L540.846 348.201H545.498L544.082 355.129L542.515 361.348L541.807 367.719L538.419 384.809H533.565ZM550.757 371.056C552.779 371.056 554.566 370.567 556.117 369.59C557.701 368.612 558.948 367.281 559.858 365.595C560.768 363.876 561.223 361.921 561.223 359.73C561.223 357.37 560.532 355.533 559.15 354.218C557.768 352.87 555.796 352.196 553.234 352.196C551.246 352.196 549.442 352.685 547.824 353.662C546.24 354.606 544.993 355.938 544.082 357.657C543.206 359.342 542.768 361.297 542.768 363.522C542.768 365.848 543.459 367.685 544.841 369.034C546.223 370.382 548.195 371.056 550.757 371.056ZM582.796 375.303C580.166 375.303 577.891 374.831 575.97 373.888C574.048 372.91 572.565 371.562 571.52 369.843C570.475 368.09 569.953 366.033 569.953 363.674C569.953 360.64 570.61 357.943 571.925 355.584C573.239 353.224 575.026 351.37 577.284 350.022C579.577 348.64 582.172 347.949 585.071 347.949C587.498 347.949 589.605 348.421 591.392 349.364C593.178 350.275 594.56 351.589 595.538 353.308C596.549 355.027 597.055 357.101 597.055 359.528C597.055 360.134 597.021 360.758 596.954 361.398C596.886 362.005 596.802 362.578 596.701 363.118H573.492L574.099 359.578H594.375L592.403 360.792C592.706 358.904 592.571 357.32 591.998 356.039C591.425 354.724 590.515 353.73 589.268 353.056C588.054 352.348 586.588 351.994 584.869 351.994C582.846 351.994 581.06 352.482 579.509 353.46C577.992 354.404 576.812 355.735 575.97 357.455C575.127 359.14 574.706 361.129 574.706 363.421C574.706 365.848 575.397 367.736 576.779 369.084C578.195 370.399 580.335 371.056 583.2 371.056C584.886 371.056 586.453 370.786 587.903 370.247C589.352 369.674 590.549 368.916 591.493 367.972L593.566 371.461C592.285 372.708 590.684 373.668 588.762 374.343C586.841 374.983 584.852 375.303 582.796 375.303ZM610.117 375.303C608.499 375.303 607.1 374.949 605.92 374.242C604.774 373.534 603.948 372.522 603.442 371.208C602.97 369.893 602.903 368.342 603.24 366.556L608.094 342.336H612.948L608.094 366.455C607.858 367.904 607.993 369.067 608.499 369.944C609.038 370.786 610.032 371.208 611.482 371.208C612.156 371.208 612.83 371.107 613.504 370.904C614.179 370.668 614.785 370.348 615.325 369.944L616.336 373.635C615.426 374.275 614.414 374.713 613.302 374.949C612.223 375.185 611.162 375.303 610.117 375.303ZM601.571 352.196L602.33 348.201H619.471L618.662 352.196H601.571ZM621.85 375L627.16 348.201H632.014L626.705 375H621.85ZM631.002 343.044C630.092 343.044 629.351 342.757 628.778 342.184C628.238 341.611 627.969 340.92 627.969 340.111C627.969 339.167 628.289 338.375 628.929 337.735C629.57 337.061 630.412 336.724 631.457 336.724C632.334 336.724 633.059 337.01 633.632 337.583C634.238 338.122 634.542 338.78 634.542 339.555C634.542 340.6 634.222 341.443 633.581 342.083C632.941 342.724 632.081 343.044 631.002 343.044ZM645.175 375.303C643.557 375.303 642.158 374.949 640.978 374.242C639.832 373.534 639.006 372.522 638.501 371.208C638.029 369.893 637.961 368.342 638.299 366.556L643.153 342.336H648.007L643.153 366.455C642.917 367.904 643.051 369.067 643.557 369.944C644.096 370.786 645.091 371.208 646.54 371.208C647.215 371.208 647.889 371.107 648.563 370.904C649.237 370.668 649.844 370.348 650.383 369.944L651.394 373.635C650.484 374.275 649.473 374.713 648.361 374.949C647.282 375.185 646.22 375.303 645.175 375.303ZM636.63 352.196L637.388 348.201H654.529L653.72 352.196H636.63ZM656.909 375L662.218 348.201H667.072L661.763 375H656.909ZM666.061 343.044C665.151 343.044 664.409 342.757 663.836 342.184C663.297 341.611 663.027 340.92 663.027 340.111C663.027 339.167 663.347 338.375 663.988 337.735C664.628 337.061 665.471 336.724 666.516 336.724C667.392 336.724 668.117 337.01 668.69 337.583C669.297 338.122 669.6 338.78 669.6 339.555C669.6 340.6 669.28 341.443 668.64 342.083C667.999 342.724 667.14 343.044 666.061 343.044ZM683.571 375.303C681.009 375.303 678.784 374.831 676.897 373.888C675.043 372.91 673.593 371.562 672.548 369.843C671.503 368.09 670.981 366.05 670.981 363.724C670.981 360.691 671.655 357.994 673.003 355.634C674.352 353.241 676.206 351.37 678.565 350.022C680.958 348.64 683.672 347.949 686.706 347.949C689.234 347.949 691.442 348.421 693.33 349.364C695.217 350.308 696.667 351.64 697.678 353.359C698.723 355.078 699.246 357.117 699.246 359.477C699.246 362.511 698.571 365.224 697.223 367.618C695.875 369.977 694.021 371.848 691.661 373.23C689.335 374.612 686.638 375.303 683.571 375.303ZM683.874 371.056C685.897 371.056 687.7 370.567 689.285 369.59C690.869 368.612 692.099 367.281 692.976 365.595C693.886 363.876 694.341 361.921 694.341 359.73C694.341 357.37 693.65 355.533 692.268 354.218C690.886 352.87 688.914 352.196 686.352 352.196C684.363 352.196 682.577 352.685 680.992 353.662C679.408 354.606 678.161 355.938 677.25 357.657C676.34 359.342 675.885 361.297 675.885 363.522C675.885 365.848 676.576 367.685 677.958 369.034C679.34 370.382 681.312 371.056 683.874 371.056ZM722.139 347.949C724.499 347.949 726.471 348.421 728.055 349.364C729.639 350.308 730.735 351.69 731.341 353.511C731.982 355.297 732.049 357.455 731.544 359.983L728.56 375H723.706L726.69 359.983C727.195 357.556 726.959 355.668 725.982 354.32C725.004 352.971 723.251 352.297 720.723 352.297C718.128 352.297 715.97 353.005 714.251 354.421C712.532 355.803 711.386 357.943 710.813 360.842L707.981 375H703.127L708.436 348.201H713.088L711.571 355.887L710.661 353.814C711.942 351.791 713.56 350.308 715.515 349.364C717.504 348.421 719.712 347.949 722.139 347.949Z" fill="url(#paint1_linear_364_4)"/>
<defs>
<linearGradient id="paint0_linear_364_4" x1="483" y1="107" x2="483" y2="326" gradientUnits="userSpaceOnUse">
<stop stop-color="#09B25C"/>
<stop offset="1" stop-color="#2EA5D6"/>
</linearGradient>
<linearGradient id="paint1_linear_364_4" x1="482.5" y1="326" x2="482.5" y2="388" gradientUnits="userSpaceOnUse">
<stop stop-color="#0AB35D"/>
<stop offset="1" stop-color="#2EA5D5"/>
</linearGradient>
</defs>
</svg>
