<svg width="965" height="508" viewBox="0 0 965 508" fill="none" xmlns="http://www.w3.org/2000/svg">
<rect width="965" height="507.674" fill="white"/>
<path d="M218.934 281V155.046H248.084V257.249H311.24V281H218.934ZM311.676 281L367.816 155.046H396.605L452.924 281H422.335L376.272 169.801H387.788L341.545 281H311.676ZM339.746 254.01L347.483 231.878H412.259L420.176 254.01H339.746ZM465.992 281V155.046H520.512C531.788 155.046 541.504 156.906 549.661 160.624C557.818 164.223 564.116 169.441 568.554 176.279C572.992 183.116 575.212 191.273 575.212 200.75C575.212 210.106 572.992 218.203 568.554 225.041C564.116 231.878 557.818 237.156 549.661 240.875C541.504 244.473 531.788 246.273 520.512 246.273H482.186L495.141 233.138V281H465.992ZM495.141 236.376L482.186 222.522H518.892C527.889 222.522 534.607 220.602 539.045 216.764C543.483 212.925 545.702 207.587 545.702 200.75C545.702 193.792 543.483 188.394 539.045 184.556C534.607 180.717 527.889 178.798 518.892 178.798H482.186L495.141 164.943V236.376ZM596.022 281V155.046H625.171V281H596.022ZM646.966 281V262.107L724.877 168.182L728.476 178.798H648.405V155.046H754.386V173.939L676.655 267.865L673.056 257.249H757.085V281H646.966Z" fill="url(#paint0_linear_365_14)"/>
<path d="M304.629 375L311.708 339.606H324.855C329.001 339.606 332.203 340.516 334.462 342.336C336.72 344.156 337.849 346.701 337.849 349.971C337.849 352.971 337.175 355.55 335.827 357.707C334.512 359.831 332.608 361.466 330.113 362.612C327.619 363.724 324.669 364.281 321.265 364.281H309.635L312.315 361.854L309.686 375H304.629ZM312.214 362.41L310.444 359.882H321.366C324.973 359.882 327.77 359.089 329.759 357.505C331.782 355.887 332.793 353.527 332.793 350.426C332.793 348.303 332.068 346.701 330.619 345.623C329.169 344.544 327.096 344.005 324.4 344.005H313.731L316.411 341.426L312.214 362.41ZM352.663 375.303C350.033 375.303 347.758 374.831 345.836 373.888C343.915 372.91 342.432 371.562 341.387 369.843C340.342 368.09 339.819 366.033 339.819 363.674C339.819 360.64 340.477 357.943 341.791 355.584C343.106 353.224 344.893 351.37 347.151 350.022C349.443 348.64 352.039 347.949 354.938 347.949C357.365 347.949 359.472 348.421 361.258 349.364C363.045 350.275 364.427 351.589 365.404 353.308C366.416 355.027 366.921 357.101 366.921 359.528C366.921 360.134 366.888 360.758 366.82 361.398C366.753 362.005 366.669 362.578 366.567 363.118H343.359L343.966 359.578H364.242L362.27 360.792C362.573 358.904 362.438 357.32 361.865 356.039C361.292 354.724 360.382 353.73 359.135 353.056C357.921 352.348 356.455 351.994 354.736 351.994C352.713 351.994 350.927 352.482 349.376 353.46C347.859 354.404 346.679 355.735 345.836 357.455C344.994 359.14 344.572 361.129 344.572 363.421C344.572 365.848 345.263 367.736 346.645 369.084C348.061 370.399 350.202 371.056 353.067 371.056C354.752 371.056 356.32 370.786 357.769 370.247C359.219 369.674 360.416 368.916 361.359 367.972L363.433 371.461C362.152 372.708 360.55 373.668 358.629 374.343C356.708 374.983 354.719 375.303 352.663 375.303ZM389.793 347.949C392.152 347.949 394.124 348.421 395.709 349.364C397.293 350.308 398.388 351.69 398.995 353.511C399.636 355.297 399.703 357.455 399.197 359.983L396.214 375H391.36L394.343 359.983C394.849 357.556 394.613 355.668 393.635 354.32C392.658 352.971 390.905 352.297 388.377 352.297C385.781 352.297 383.624 353.005 381.905 354.421C380.186 355.803 379.039 357.943 378.466 360.842L375.635 375H370.781L376.09 348.201H380.742L379.225 355.887L378.315 353.814C379.596 351.791 381.214 350.308 383.169 349.364C385.158 348.421 387.366 347.949 389.793 347.949ZM417.889 375.303C415.293 375.303 413.035 374.831 411.113 373.888C409.226 372.91 407.759 371.562 406.714 369.843C405.669 368.09 405.147 366.05 405.147 363.724C405.147 360.691 405.821 357.994 407.169 355.634C408.518 353.241 410.389 351.37 412.782 350.022C415.175 348.64 417.889 347.949 420.923 347.949C423.518 347.949 425.743 348.437 427.597 349.415C429.451 350.359 430.9 351.808 431.945 353.763L427.85 356.039C427.176 354.724 426.215 353.763 424.968 353.157C423.754 352.516 422.288 352.196 420.569 352.196C418.546 352.196 416.743 352.685 415.158 353.662C413.574 354.606 412.327 355.938 411.417 357.657C410.507 359.342 410.052 361.297 410.052 363.522C410.052 365.848 410.743 367.685 412.125 369.034C413.54 370.382 415.529 371.056 418.091 371.056C419.675 371.056 421.159 370.736 422.541 370.095C423.956 369.455 425.136 368.511 426.08 367.264L429.62 369.792C428.406 371.511 426.754 372.859 424.664 373.837C422.574 374.815 420.316 375.303 417.889 375.303ZM433.738 375L439.047 348.201H443.901L438.592 375H433.738ZM442.89 343.044C441.98 343.044 441.238 342.757 440.665 342.184C440.126 341.611 439.856 340.92 439.856 340.111C439.856 339.167 440.176 338.375 440.817 337.735C441.457 337.061 442.3 336.724 443.345 336.724C444.222 336.724 444.946 337.01 445.519 337.583C446.126 338.122 446.429 338.78 446.429 339.555C446.429 340.6 446.109 341.443 445.469 342.083C444.828 342.724 443.969 343.044 442.89 343.044ZM447.86 375L455.344 337.482H460.198L452.714 375H447.86ZM489.798 375L496.877 339.606H510.731C514.304 339.606 517.355 340.212 519.883 341.426C522.411 342.606 524.333 344.274 525.647 346.432C526.996 348.589 527.67 351.151 527.67 354.117C527.67 357.219 527.147 360.067 526.102 362.663C525.057 365.224 523.557 367.432 521.602 369.286C519.681 371.107 517.372 372.522 514.675 373.534C511.978 374.511 508.961 375 505.624 375H489.798ZM495.714 370.601H505.776C509.282 370.601 512.282 369.91 514.776 368.528C517.271 367.112 519.192 365.191 520.54 362.764C521.889 360.303 522.563 357.522 522.563 354.421C522.563 352.297 522.108 350.46 521.198 348.909C520.288 347.325 518.905 346.111 517.051 345.269C515.231 344.426 512.956 344.005 510.225 344.005H501.023L495.714 370.601ZM530.915 375L536.224 348.201H540.876L539.359 355.988L538.853 354.067C540.1 351.808 541.685 350.224 543.606 349.314C545.527 348.404 547.904 347.949 550.735 347.949L549.825 352.651C549.623 352.617 549.421 352.6 549.218 352.6C549.016 352.6 548.797 352.6 548.561 352.6C545.898 352.6 543.69 353.325 541.937 354.775C540.218 356.224 539.055 358.499 538.448 361.601L535.769 375H530.915ZM562.842 375.303C560.584 375.303 558.561 374.848 556.775 373.938C554.988 372.994 553.572 371.663 552.527 369.944C551.516 368.225 551.01 366.151 551.01 363.724C551.01 361.432 551.381 359.325 552.123 357.404C552.898 355.483 553.96 353.814 555.308 352.398C556.69 350.982 558.308 349.887 560.162 349.112C562.016 348.336 564.022 347.949 566.179 347.949C568.505 347.949 570.477 348.353 572.095 349.162C573.713 349.971 574.96 351.168 575.837 352.752C576.713 354.303 577.152 356.207 577.152 358.466C577.152 361.769 576.579 364.702 575.432 367.264C574.286 369.792 572.635 371.764 570.477 373.18C568.354 374.595 565.809 375.303 562.842 375.303ZM563.904 371.056C565.927 371.056 567.73 370.567 569.314 369.59C570.899 368.612 572.129 367.281 573.005 365.595C573.916 363.876 574.371 361.921 574.371 359.73C574.371 357.37 573.68 355.533 572.297 354.218C570.915 352.87 568.943 352.196 566.382 352.196C564.393 352.196 562.606 352.685 561.022 353.662C559.438 354.606 558.19 355.938 557.28 357.657C556.37 359.342 555.915 361.297 555.915 363.522C555.915 365.848 556.606 367.685 557.988 369.034C559.37 370.382 561.342 371.056 563.904 371.056ZM571.64 375L573.056 368.073L574.674 361.854L575.331 355.483L576.747 348.201H581.601L576.292 375H571.64ZM591.493 375L586.387 348.201H590.786L595.286 372.472H593.01L606.865 348.201H611.011L615.612 372.472H613.337L627.039 348.201H631.641L616.623 375H611.87L607.37 352.853H608.837L596.145 375H591.493ZM631.103 375L636.412 348.201H641.266L635.957 375H631.103ZM640.255 343.044C639.345 343.044 638.603 342.757 638.03 342.184C637.491 341.611 637.221 340.92 637.221 340.111C637.221 339.167 637.541 338.375 638.182 337.735C638.822 337.061 639.665 336.724 640.71 336.724C641.587 336.724 642.311 337.01 642.884 337.583C643.491 338.122 643.794 338.78 643.794 339.555C643.794 340.6 643.474 341.443 642.834 342.083C642.193 342.724 641.334 343.044 640.255 343.044ZM664.237 347.949C666.597 347.949 668.569 348.421 670.153 349.364C671.737 350.308 672.833 351.69 673.44 353.511C674.08 355.297 674.148 357.455 673.642 359.983L670.659 375H665.805L668.788 359.983C669.293 357.556 669.057 355.668 668.08 354.32C667.102 352.971 665.349 352.297 662.821 352.297C660.226 352.297 658.068 353.005 656.349 354.421C654.63 355.803 653.484 357.943 652.911 360.842L650.079 375H645.225L650.534 348.201H655.186L653.669 355.887L652.759 353.814C654.04 351.791 655.658 350.308 657.613 349.364C659.602 348.421 661.81 347.949 664.237 347.949ZM689.957 385.113C687.429 385.113 685.12 384.776 683.03 384.101C680.94 383.461 679.17 382.534 677.721 381.32L680.4 377.579C681.445 378.556 682.827 379.332 684.547 379.905C686.299 380.511 688.221 380.815 690.311 380.815C693.479 380.815 695.906 380.09 697.592 378.641C699.277 377.225 700.407 375.051 700.98 372.118L702.244 365.899L703.761 360.893L704.519 355.533L705.985 348.201H710.587L705.985 371.359C705.008 376.214 703.204 379.719 700.575 381.877C697.946 384.034 694.406 385.113 689.957 385.113ZM691.676 373.888C689.35 373.888 687.277 373.449 685.457 372.573C683.67 371.697 682.271 370.449 681.26 368.831C680.249 367.18 679.743 365.224 679.743 362.966C679.743 360.809 680.114 358.837 680.855 357.05C681.631 355.23 682.693 353.645 684.041 352.297C685.389 350.915 686.99 349.853 688.844 349.112C690.732 348.336 692.788 347.949 695.013 347.949C697.036 347.949 698.873 348.303 700.525 349.01C702.21 349.718 703.542 350.814 704.519 352.297C705.53 353.747 706.036 355.634 706.036 357.96C706.07 360.927 705.514 363.623 704.367 366.05C703.221 368.444 701.57 370.348 699.412 371.764C697.289 373.18 694.71 373.888 691.676 373.888ZM692.637 369.64C694.693 369.64 696.496 369.185 698.047 368.275C699.631 367.365 700.879 366.118 701.789 364.533C702.699 362.949 703.154 361.146 703.154 359.123C703.154 356.966 702.446 355.28 701.03 354.067C699.648 352.82 697.693 352.196 695.165 352.196C693.109 352.196 691.288 352.651 689.704 353.561C688.153 354.438 686.923 355.668 686.013 357.252C685.103 358.837 684.648 360.64 684.648 362.663C684.648 364.854 685.356 366.573 686.771 367.82C688.187 369.034 690.142 369.64 692.637 369.64Z" fill="url(#paint1_linear_365_14)"/>
<defs>
<linearGradient id="paint0_linear_365_14" x1="482.5" y1="107" x2="482.5" y2="326" gradientUnits="userSpaceOnUse">
<stop stop-color="#09B25C"/>
<stop offset="1" stop-color="#2EA5D6"/>
</linearGradient>
<linearGradient id="paint1_linear_365_14" x1="507.5" y1="326" x2="507.5" y2="388" gradientUnits="userSpaceOnUse">
<stop stop-color="#0AB35D"/>
<stop offset="1" stop-color="#2EA5D5"/>
</linearGradient>
</defs>
</svg>
