<svg width="965" height="508" viewBox="0 0 965 508" fill="none" xmlns="http://www.w3.org/2000/svg">
<rect width="965" height="507.674" fill="url(#paint0_linear_454_2)"/>
<g filter="url(#filter0_d_454_2)">
<path d="M199.105 250.154L195.998 268H148.673L151.78 250.154H199.105ZM173.526 171.764L156.803 268H134.198L150.855 171.764H173.526ZM239.754 196.484L227.394 268H205.582L218.008 196.484H239.754ZM219.925 178.44C219.837 175.003 220.983 172.271 223.362 170.244C225.786 168.217 228.628 167.181 231.889 167.137C235.017 167.093 237.793 168.018 240.217 169.913C242.64 171.764 243.874 174.342 243.918 177.646C244.006 181.083 242.838 183.815 240.415 185.842C238.035 187.869 235.215 188.905 231.955 188.949C228.826 188.993 226.05 188.09 223.627 186.239C221.247 184.344 220.013 181.744 219.925 178.44ZM296.332 196.484H316.293L304.594 265.158C303.669 272.032 301.334 277.782 297.588 282.409C293.887 287.08 289.216 290.583 283.576 292.918C277.936 295.254 271.767 296.333 265.069 296.157C261.896 296.113 258.768 295.672 255.683 294.835C252.643 293.998 249.757 292.764 247.025 291.134C244.293 289.547 241.869 287.542 239.754 285.119L250.065 272.296C251.96 274.676 254.163 276.504 256.675 277.782C259.23 279.06 262.028 279.721 265.069 279.765C268.197 279.853 270.973 279.302 273.397 278.113C275.865 276.923 277.892 275.227 279.478 273.023C281.064 270.82 282.144 268.176 282.717 265.092L291.706 212.281L296.332 196.484ZM244.116 233.564L244.315 232.176C244.843 227.681 245.901 223.209 247.487 218.758C249.074 214.308 251.211 210.276 253.899 206.663C256.631 203.049 259.935 200.207 263.813 198.136C267.735 196.021 272.295 195.03 277.495 195.162C282.298 195.294 286.132 196.528 288.996 198.863C291.904 201.199 294.085 204.195 295.539 207.852C296.993 211.51 297.941 215.453 298.381 219.684C298.822 223.87 298.976 227.902 298.844 231.779L298.712 233.498C298.007 237.331 296.839 241.363 295.209 245.593C293.622 249.824 291.551 253.767 288.996 257.425C286.484 261.082 283.444 264.034 279.874 266.281C276.349 268.485 272.295 269.52 267.713 269.388C262.91 269.3 258.9 268.176 255.683 266.017C252.466 263.814 249.933 260.972 248.082 257.491C246.275 253.966 245.064 250.132 244.447 245.99C243.83 241.804 243.72 237.662 244.116 233.564ZM266.06 232.176L265.928 233.564C265.752 235.282 265.664 237.199 265.664 239.314C265.708 241.385 265.994 243.39 266.523 245.329C267.052 247.268 267.955 248.876 269.233 250.154C270.511 251.432 272.295 252.115 274.587 252.203C277.98 252.379 280.778 251.674 282.981 250.088C285.184 248.502 286.881 246.409 288.07 243.809C289.26 241.165 290.031 238.367 290.384 235.415L290.979 230.127C291.199 228.144 291.309 226.139 291.309 224.112C291.353 222.041 291.089 220.124 290.516 218.362C289.987 216.599 289.04 215.167 287.674 214.065C286.308 212.92 284.347 212.325 281.791 212.281C279.191 212.193 276.944 212.788 275.049 214.065C273.199 215.299 271.656 216.93 270.423 218.957C269.189 220.984 268.219 223.165 267.514 225.5C266.809 227.836 266.325 230.061 266.06 232.176ZM355.026 166.476L337.378 268H315.632L333.28 166.476H355.026ZM341.542 229.796L336.783 229.995C337.18 226.029 338.039 221.975 339.361 217.833C340.727 213.691 342.578 209.879 344.913 206.398C347.293 202.917 350.223 200.141 353.704 198.07C357.185 195.955 361.283 194.964 365.998 195.096C370.14 195.184 373.555 196.021 376.243 197.608C378.975 199.194 381.09 201.331 382.588 204.019C384.13 206.663 385.144 209.681 385.628 213.074C386.113 216.423 386.157 219.926 385.761 223.583L378.358 268H356.48L364.015 223.385C364.235 221.27 364.191 219.397 363.883 217.767C363.574 216.092 362.825 214.77 361.635 213.801C360.49 212.788 358.749 212.259 356.414 212.215C353.77 212.171 351.567 212.633 349.804 213.603C348.042 214.572 346.61 215.916 345.508 217.635C344.406 219.309 343.547 221.204 342.93 223.319C342.357 225.434 341.895 227.593 341.542 229.796ZM439.365 196.484L436.655 211.95H394.75L397.46 196.484H439.365ZM409.291 178.704H431.037L419.668 244.8C419.492 246.342 419.492 247.62 419.668 248.634C419.844 249.603 420.307 250.352 421.056 250.881C421.849 251.366 423.061 251.652 424.691 251.74C425.617 251.784 426.542 251.762 427.467 251.674C428.393 251.586 429.318 251.498 430.243 251.41L428.723 267.537C426.828 268.154 424.89 268.595 422.907 268.859C420.968 269.124 418.985 269.256 416.958 269.256C412.463 269.168 408.696 268.264 405.656 266.546C402.659 264.783 400.478 262.294 399.112 259.077C397.79 255.816 397.327 251.939 397.724 247.444L409.291 178.704ZM498.19 171.764H515.904L525.091 238.521L557.479 171.764H576.647L528.264 268H513.26L498.19 171.764ZM486.623 171.764H505.725L496.34 246.519L492.572 268H469.967L486.623 171.764ZM568.252 171.764H587.486L570.83 268H548.093L552.191 244.602L568.252 171.764ZM627.805 249.493L636.992 196.484H658.804L646.378 268H626.086L627.805 249.493ZM631.903 236.009L637.521 235.877C637.081 239.931 636.199 243.963 634.877 247.973C633.555 251.983 631.727 255.618 629.391 258.879C627.056 262.139 624.148 264.739 620.667 266.678C617.23 268.573 613.154 269.476 608.439 269.388C604.517 269.3 601.19 268.551 598.458 267.141C595.77 265.731 593.611 263.814 591.981 261.39C590.35 258.923 589.249 256.103 588.676 252.93C588.103 249.757 587.993 246.364 588.346 242.751L596.079 196.484H617.824L609.959 243.016C609.827 244.293 609.827 245.483 609.959 246.585C610.135 247.686 610.466 248.656 610.95 249.493C611.479 250.286 612.206 250.925 613.132 251.41C614.057 251.895 615.247 252.159 616.701 252.203C620.006 252.335 622.694 251.652 624.765 250.154C626.836 248.612 628.422 246.585 629.524 244.073C630.669 241.562 631.462 238.874 631.903 236.009ZM698.594 247.51C698.947 245.659 698.396 244.249 696.942 243.28C695.532 242.267 693.835 241.517 691.852 241.033C689.913 240.504 688.349 240.085 687.159 239.777C684.472 239.072 681.806 238.169 679.162 237.067C676.518 235.921 674.116 234.511 671.957 232.837C669.842 231.118 668.146 229.069 666.868 226.69C665.634 224.266 665.083 221.446 665.215 218.23C665.348 214.264 666.339 210.827 668.19 207.919C670.085 205.01 672.53 202.609 675.527 200.714C678.523 198.775 681.784 197.343 685.309 196.418C688.878 195.492 692.425 195.074 695.95 195.162C700.797 195.206 705.358 196.065 709.632 197.74C713.95 199.414 717.454 201.97 720.141 205.407C722.873 208.844 724.261 213.206 724.306 218.494L702.692 218.428C702.736 216.709 702.516 215.211 702.031 213.933C701.59 212.655 700.819 211.686 699.718 211.025C698.616 210.32 697.118 209.968 695.223 209.968C693.813 209.968 692.425 210.254 691.059 210.827C689.693 211.4 688.503 212.215 687.49 213.272C686.521 214.33 685.904 215.608 685.639 217.106C685.375 218.384 685.551 219.463 686.168 220.345C686.785 221.182 687.622 221.865 688.68 222.394C689.737 222.922 690.839 223.363 691.984 223.716C693.174 224.024 694.232 224.266 695.157 224.443C699.167 225.412 703.045 226.712 706.79 228.342C710.58 229.929 713.664 232.198 716.044 235.15C718.467 238.058 719.613 241.936 719.481 246.783C719.348 250.881 718.247 254.384 716.176 257.292C714.105 260.157 711.439 262.492 708.178 264.299C704.961 266.061 701.48 267.339 697.735 268.132C694.033 268.969 690.442 269.366 686.961 269.322C682.114 269.234 677.531 268.264 673.213 266.414C668.895 264.519 665.37 261.787 662.638 258.218C659.95 254.604 658.54 250.176 658.408 244.932L678.501 244.999C678.545 247.07 678.919 248.81 679.624 250.22C680.374 251.586 681.453 252.644 682.863 253.393C684.273 254.098 686.014 254.45 688.085 254.45C689.627 254.45 691.125 254.23 692.579 253.789C694.078 253.305 695.355 252.556 696.413 251.542C697.515 250.484 698.242 249.141 698.594 247.51ZM760.989 196.484L748.629 268H726.817L739.243 196.484H760.989ZM741.16 178.44C741.072 175.003 742.218 172.271 744.597 170.244C747.021 168.217 749.863 167.181 753.123 167.137C756.252 167.093 759.028 168.018 761.452 169.913C763.875 171.764 765.109 174.342 765.153 177.646C765.241 181.083 764.073 183.815 761.65 185.842C759.27 187.869 756.45 188.905 753.19 188.949C750.061 188.993 747.285 188.09 744.861 186.239C742.482 184.344 741.248 181.744 741.16 178.44ZM794.037 252.203C796.108 252.247 797.893 251.873 799.391 251.079C800.889 250.242 802.079 249.096 802.96 247.642C803.885 246.144 804.48 244.426 804.745 242.487L825.168 242.421C824.904 248.061 823.252 252.908 820.211 256.962C817.215 261.016 813.359 264.122 808.644 266.281C803.929 268.441 798.862 269.454 793.442 269.322C788.243 269.234 783.77 268.22 780.025 266.281C776.279 264.299 773.239 261.655 770.903 258.35C768.568 255.001 766.916 251.167 765.946 246.849C765.021 242.531 764.778 237.97 765.219 233.167L765.417 231.581C765.946 226.558 767.136 221.821 768.987 217.37C770.881 212.92 773.393 209.02 776.522 205.671C779.65 202.278 783.352 199.656 787.626 197.806C791.944 195.911 796.791 195.03 802.167 195.162C807.895 195.25 812.764 196.528 816.774 198.996C820.828 201.463 823.891 204.834 825.962 209.108C828.033 213.382 829.002 218.318 828.87 223.914L808.446 223.848C808.534 221.953 808.358 220.146 807.917 218.428C807.521 216.665 806.728 215.233 805.538 214.132C804.348 212.986 802.63 212.369 800.382 212.281C797.783 212.193 795.667 212.766 794.037 213.999C792.407 215.233 791.107 216.864 790.137 218.89C789.212 220.873 788.529 223.01 788.088 225.302C787.648 227.549 787.317 229.664 787.097 231.647L787.031 233.167C786.855 234.754 786.678 236.626 786.502 238.785C786.37 240.901 786.436 242.972 786.7 244.999C787.009 247.025 787.714 248.722 788.815 250.088C789.917 251.41 791.658 252.115 794.037 252.203Z" fill="white"/>
</g>
<defs>
<filter id="filter0_d_454_2" x="120.75" y="153.029" width="721.766" height="156.84" filterUnits="userSpaceOnUse" color-interpolation-filters="sRGB">
<feFlood flood-opacity="0" result="BackgroundImageFix"/>
<feColorMatrix in="SourceAlpha" type="matrix" values="0 0 0 0 0 0 0 0 0 0 0 0 0 0 0 0 0 0 127 0" result="hardAlpha"/>
<feOffset/>
<feGaussianBlur stdDeviation="6.7239"/>
<feComposite in2="hardAlpha" operator="out"/>
<feColorMatrix type="matrix" values="0 0 0 0 0 0 0 0 0 0 0 0 0 0 0 0 0 0 0.23 0"/>
<feBlend mode="normal" in2="BackgroundImageFix" result="effect1_dropShadow_454_2"/>
<feBlend mode="normal" in="SourceGraphic" in2="effect1_dropShadow_454_2" result="shape"/>
</filter>
<linearGradient id="paint0_linear_454_2" x1="482.5" y1="0" x2="482.5" y2="507.674" gradientUnits="userSpaceOnUse">
<stop stop-color="#09B25C"/>
<stop offset="1" stop-color="#2EA5D6"/>
</linearGradient>
</defs>
</svg>
