<svg width="965" height="508" viewBox="0 0 965 508" fill="none" xmlns="http://www.w3.org/2000/svg">
<rect width="965" height="507.674" fill="url(#paint0_linear_364_5)"/>
<g filter="url(#filter0_d_364_5)">
<path d="M76.856 244.404L107.392 171.764H133.368L86.7705 268H69.9159L76.856 244.404ZM70.4447 171.764L78.5084 246.453L78.2441 268H62.1166L45.8569 171.764H70.4447ZM210.767 217.569L210.304 221.468C209.423 227.769 207.727 233.828 205.215 239.645C202.747 245.417 199.487 250.551 195.433 255.045C191.423 259.54 186.664 263.087 181.156 265.687C175.648 268.242 169.457 269.454 162.583 269.322C155.973 269.19 150.333 267.78 145.662 265.092C141.035 262.404 137.334 258.813 134.558 254.318C131.826 249.824 129.975 244.778 129.006 239.182C128.037 233.586 127.904 227.813 128.609 221.865L129.072 217.965C129.953 211.708 131.65 205.715 134.161 199.987C136.673 194.215 139.956 189.081 144.01 184.587C148.064 180.092 152.845 176.589 158.353 174.077C163.861 171.522 170.03 170.31 176.86 170.442C183.425 170.53 189.021 171.918 193.648 174.606C198.275 177.294 201.954 180.885 204.686 185.38C207.462 189.83 209.335 194.853 210.304 200.45C211.318 206.002 211.472 211.708 210.767 217.569ZM187.303 221.865L187.832 217.767C188.14 215.167 188.338 212.237 188.426 208.976C188.515 205.715 188.228 202.565 187.567 199.524C186.906 196.44 185.628 193.884 183.734 191.857C181.883 189.83 179.151 188.729 175.538 188.552C171.528 188.376 168.135 189.191 165.359 190.998C162.583 192.76 160.292 195.14 158.485 198.136C156.722 201.089 155.334 204.305 154.321 207.786C153.307 211.267 152.58 214.616 152.14 217.833L151.611 221.931C151.302 224.531 151.082 227.483 150.95 230.788C150.862 234.049 151.126 237.221 151.743 240.306C152.404 243.39 153.682 245.968 155.577 248.039C157.471 250.066 160.247 251.145 163.905 251.278C167.826 251.454 171.175 250.639 173.951 248.832C176.727 246.981 179.019 244.558 180.825 241.562C182.676 238.565 184.108 235.326 185.122 231.845C186.179 228.364 186.906 225.037 187.303 221.865ZM299.204 216.577L292.991 256.169C290.038 259.606 286.337 262.294 281.887 264.233C277.436 266.127 272.765 267.449 267.874 268.198C263.027 268.991 258.466 269.344 254.192 269.256C247.494 269.168 241.788 267.846 237.073 265.29C232.403 262.734 228.679 259.275 225.903 254.913C223.127 250.551 221.254 245.593 220.285 240.041C219.315 234.489 219.205 228.673 219.954 222.592L220.681 217.304C221.519 211.047 223.149 205.098 225.573 199.458C228.04 193.774 231.235 188.729 235.157 184.322C239.078 179.916 243.727 176.457 249.103 173.945C254.523 171.433 260.648 170.244 267.478 170.376C274.572 170.464 280.587 171.808 285.522 174.408C290.501 176.963 294.357 180.665 297.089 185.512C299.821 190.359 301.407 196.286 301.848 203.292L280.234 203.226C280.014 200.317 279.463 197.762 278.582 195.559C277.745 193.311 276.401 191.549 274.55 190.271C272.699 188.993 270.165 188.288 266.949 188.156C263.071 187.979 259.766 188.795 257.034 190.601C254.302 192.364 252.011 194.721 250.16 197.674C248.354 200.626 246.922 203.821 245.864 207.258C244.851 210.695 244.124 213.977 243.683 217.106L242.956 222.658C242.603 225.61 242.383 228.739 242.295 232.044C242.251 235.348 242.625 238.455 243.419 241.363C244.212 244.271 245.644 246.651 247.715 248.502C249.83 250.352 252.848 251.322 256.77 251.41C258.488 251.454 260.141 251.344 261.727 251.079C263.358 250.815 264.922 250.396 266.42 249.824C267.962 249.207 269.438 248.436 270.848 247.51L273.823 232.506H258.158L260.934 216.577H299.204ZM370.654 171.764H393.259L382.551 234.555C381.494 241.914 379.092 248.215 375.347 253.459C371.645 258.702 366.864 262.69 361.004 265.422C355.143 268.154 348.512 269.476 341.109 269.388C334.235 269.256 328.22 267.78 323.065 264.96C317.953 262.139 314.119 258.152 311.564 252.996C309.008 247.841 308.149 241.716 308.986 234.621L319.694 171.764H342.365L331.723 234.687C331.371 237.596 331.393 240.306 331.789 242.817C332.23 245.329 333.287 247.378 334.962 248.964C336.636 250.551 339.148 251.388 342.497 251.476C346.066 251.608 349.04 250.947 351.42 249.493C353.843 248.039 355.738 246.012 357.104 243.412C358.514 240.812 359.462 237.882 359.946 234.621L370.654 171.764ZM458.033 250.154L454.927 268H405.024L408.13 250.154H458.033ZM429.876 171.764L413.154 268H390.549L407.205 171.764H429.876ZM458.562 209.968L455.587 227.219H412.096L415.137 209.968H458.562ZM471.781 171.764L468.675 189.676H418.574L421.746 171.764H471.781ZM536.82 171.764L520.097 268H497.492L514.149 171.764H536.82ZM566.166 211.818L563.06 229.664H520.23L523.336 211.818H566.166ZM576.742 171.764L573.635 189.676H527.104L530.276 171.764H576.742ZM609.988 171.764L593.332 268H570.727L587.449 171.764H609.988ZM676.415 250.154L673.309 268H623.406L626.512 250.154H676.415ZM648.258 171.764L631.536 268H608.931L625.587 171.764H648.258ZM676.944 209.968L673.969 227.219H630.478L633.519 209.968H676.944ZM690.163 171.764L687.057 189.676H636.956L640.128 171.764H690.163ZM735.042 241.958C735.439 239.887 735.285 238.125 734.58 236.67C733.919 235.216 732.905 233.982 731.539 232.969C730.217 231.956 728.697 231.096 726.979 230.391C725.304 229.642 723.674 228.959 722.087 228.342C718.65 226.976 715.258 225.434 711.909 223.716C708.56 221.953 705.519 219.882 702.787 217.502C700.055 215.123 697.918 212.347 696.376 209.174C694.878 206.002 694.239 202.278 694.459 198.004C694.768 193.113 696.156 188.905 698.623 185.38C701.091 181.855 704.241 178.99 708.075 176.787C711.953 174.54 716.117 172.91 720.567 171.896C725.062 170.839 729.446 170.354 733.72 170.442C739.801 170.53 745.221 171.764 749.98 174.143C754.783 176.523 758.551 179.938 761.283 184.388C764.015 188.795 765.336 194.126 765.248 200.384H742.842C742.93 197.916 742.599 195.779 741.85 193.972C741.145 192.122 739.978 190.689 738.347 189.676C736.717 188.618 734.602 188.068 732.002 188.024C729.843 187.979 727.684 188.332 725.524 189.081C723.365 189.786 721.493 190.888 719.906 192.386C718.32 193.884 717.307 195.823 716.866 198.202C716.557 200.009 716.844 201.595 717.725 202.961C718.606 204.283 719.818 205.429 721.36 206.398C722.903 207.324 724.511 208.117 726.185 208.778C727.904 209.439 729.402 210.012 730.68 210.496C734.293 211.862 737.752 213.471 741.057 215.321C744.406 217.128 747.358 219.265 749.914 221.733C752.514 224.2 754.497 227.086 755.863 230.391C757.273 233.652 757.846 237.442 757.581 241.76C757.229 246.739 755.907 250.991 753.615 254.516C751.324 258.042 748.372 260.906 744.758 263.109C741.145 265.312 737.179 266.92 732.861 267.934C728.543 268.947 724.158 269.432 719.708 269.388C714.729 269.3 710.08 268.551 705.762 267.141C701.443 265.687 697.676 263.594 694.459 260.862C691.243 258.086 688.753 254.693 686.99 250.683C685.228 246.629 684.391 241.98 684.479 236.736L707.15 236.803C707.018 239.27 707.172 241.451 707.612 243.346C708.097 245.197 708.89 246.761 709.992 248.039C711.138 249.273 712.614 250.22 714.42 250.881C716.227 251.498 718.408 251.806 720.964 251.806C723.123 251.806 725.194 251.476 727.177 250.815C729.204 250.11 730.922 249.03 732.332 247.576C733.742 246.122 734.646 244.249 735.042 241.958ZM826.652 171.764L809.996 268H787.324L804.047 171.764H826.652ZM854.743 171.764L851.636 189.676H773.444L776.617 171.764H854.743ZM892.153 193.113L856.726 268H831.675L882.701 171.764H898.697L892.153 193.113ZM898.234 268L888.452 190.8L888.98 171.764H904.05L921.83 268H898.234ZM903.389 232.11L900.217 250.022H852.165L855.338 232.11H903.389Z" fill="white"/>
</g>
<g filter="url(#filter1_d_364_5)">
<path d="M243.565 285.309L233.035 345.91H220.84L231.329 285.309H243.565ZM262.503 311.197L260.797 320.937H233.992L235.699 311.197H262.503ZM269.787 285.309L268.122 295.09H238.487L240.194 285.309H269.787ZM289.557 335.754L292.72 315.568C292.859 314.347 292.804 313.209 292.554 312.155C292.304 311.1 291.791 310.268 291.014 309.657C290.265 309.019 289.196 308.672 287.809 308.617C286.56 308.589 285.437 308.811 284.438 309.283C283.466 309.727 282.662 310.379 282.024 311.239C281.385 312.071 280.941 313.07 280.692 314.236L268.954 314.319C269.093 311.822 269.787 309.671 271.035 307.868C272.312 306.036 273.921 304.538 275.864 303.372C277.806 302.207 279.915 301.347 282.19 300.792C284.493 300.237 286.741 299.987 288.933 300.043C292.068 300.098 294.857 300.75 297.299 301.999C299.768 303.248 301.655 305.037 302.959 307.368C304.291 309.671 304.791 312.474 304.458 315.776L301.336 335.088C301.086 336.697 300.892 338.39 300.753 340.166C300.615 341.914 300.864 343.579 301.502 345.16L301.419 345.91L289.932 345.951C289.404 344.314 289.141 342.635 289.141 340.915C289.169 339.167 289.307 337.447 289.557 335.754ZM294.052 318.481L292.928 325.265L286.977 325.224C285.783 325.252 284.59 325.418 283.397 325.723C282.232 326.001 281.15 326.445 280.151 327.055C279.152 327.638 278.319 328.401 277.653 329.344C277.015 330.288 276.613 331.439 276.446 332.799C276.308 333.77 276.405 334.644 276.738 335.421C277.071 336.17 277.584 336.767 278.278 337.211C278.999 337.655 279.859 337.891 280.858 337.918C282.273 337.946 283.661 337.682 285.02 337.128C286.38 336.545 287.559 335.726 288.558 334.672C289.557 333.617 290.251 332.397 290.639 331.009L293.137 336.212C292.471 337.766 291.624 339.195 290.598 340.499C289.599 341.803 288.447 342.941 287.143 343.912C285.839 344.855 284.41 345.577 282.856 346.076C281.302 346.603 279.637 346.853 277.861 346.825C275.392 346.77 273.117 346.187 271.035 345.077C268.982 343.94 267.345 342.4 266.124 340.457C264.931 338.487 264.39 336.198 264.501 333.59C264.612 330.648 265.347 328.207 266.707 326.264C268.066 324.294 269.815 322.74 271.951 321.603C274.115 320.465 276.46 319.66 278.985 319.189C281.538 318.689 284.063 318.439 286.56 318.439L294.052 318.481ZM334.467 333.215C334.689 331.883 334.356 330.857 333.468 330.135C332.58 329.386 331.484 328.817 330.18 328.429C328.903 328.04 327.793 327.735 326.85 327.513C325.185 327.069 323.506 326.514 321.814 325.848C320.149 325.154 318.637 324.294 317.277 323.268C315.917 322.241 314.835 320.992 314.031 319.522C313.226 318.023 312.865 316.261 312.948 314.236C313.032 311.822 313.642 309.727 314.78 307.951C315.945 306.147 317.443 304.663 319.275 303.497C321.106 302.304 323.104 301.416 325.268 300.834C327.433 300.251 329.583 299.987 331.72 300.043C334.716 300.07 337.491 300.625 340.044 301.708C342.625 302.79 344.706 304.399 346.287 306.536C347.897 308.672 348.701 311.336 348.701 314.527L337.089 314.485C337.117 313.264 336.922 312.196 336.506 311.281C336.09 310.365 335.452 309.657 334.592 309.158C333.731 308.658 332.635 308.409 331.303 308.409C330.249 308.409 329.195 308.617 328.14 309.033C327.114 309.421 326.226 310.004 325.476 310.781C324.727 311.558 324.256 312.515 324.061 313.653C323.895 314.596 324.034 315.373 324.478 315.984C324.921 316.594 325.518 317.094 326.267 317.482C327.016 317.843 327.807 318.148 328.64 318.398C329.472 318.62 330.221 318.8 330.887 318.939C333.329 319.577 335.715 320.396 338.046 321.395C340.377 322.393 342.278 323.795 343.748 325.598C345.219 327.374 345.899 329.747 345.788 332.716C345.705 335.241 345.039 337.405 343.79 339.209C342.541 340.984 340.932 342.441 338.962 343.579C337.019 344.689 334.911 345.493 332.635 345.993C330.388 346.52 328.182 346.77 326.018 346.742C322.993 346.687 320.149 346.076 317.485 344.911C314.849 343.745 312.713 342.053 311.075 339.833C309.438 337.585 308.606 334.838 308.578 331.592L319.566 331.633C319.594 333.076 319.885 334.297 320.44 335.296C320.995 336.295 321.786 337.058 322.813 337.585C323.867 338.085 325.116 338.335 326.559 338.335C327.696 338.362 328.82 338.21 329.93 337.877C331.068 337.544 332.053 337.003 332.885 336.253C333.718 335.477 334.245 334.464 334.467 333.215ZM373.424 281.979L362.312 345.91H350.616L361.729 281.979H373.424ZM364.934 321.811L361.895 321.852C362.201 319.3 362.797 316.719 363.685 314.111C364.601 311.503 365.835 309.13 367.389 306.994C368.943 304.829 370.844 303.109 373.092 301.832C375.367 300.528 378.003 299.918 381 300.001C383.525 300.057 385.62 300.57 387.284 301.541C388.977 302.485 390.295 303.775 391.239 305.412C392.182 307.021 392.806 308.866 393.111 310.948C393.417 313.001 393.444 315.165 393.195 317.441L388.45 345.91H376.671L381.499 317.316C381.666 315.845 381.624 314.527 381.374 313.362C381.152 312.168 380.611 311.225 379.751 310.531C378.919 309.81 377.684 309.435 376.047 309.408C374.243 309.352 372.689 309.671 371.385 310.365C370.109 311.059 369.026 312.016 368.139 313.237C367.251 314.43 366.557 315.776 366.057 317.274C365.558 318.745 365.183 320.257 364.934 321.811ZM417.335 300.875L409.552 345.91H397.815L405.64 300.875H417.335ZM406.93 289.346C406.874 287.459 407.485 285.947 408.761 284.809C410.065 283.672 411.633 283.089 413.464 283.061C415.213 283.033 416.739 283.561 418.043 284.643C419.347 285.697 419.999 287.126 419.999 288.93C420.054 290.817 419.43 292.329 418.126 293.467C416.822 294.604 415.268 295.187 413.464 295.215C411.716 295.242 410.19 294.729 408.886 293.675C407.61 292.62 406.958 291.177 406.93 289.346ZM421.123 324.1L421.248 323.226C421.581 320.035 422.344 317.038 423.537 314.236C424.758 311.405 426.367 308.922 428.365 306.785C430.391 304.621 432.763 302.942 435.482 301.749C438.229 300.528 441.309 299.959 444.722 300.043C447.969 300.098 450.771 300.75 453.13 301.999C455.488 303.248 457.417 304.926 458.915 307.035C460.441 309.144 461.51 311.558 462.12 314.277C462.758 316.997 462.939 319.868 462.661 322.893L462.578 323.809C462.217 326.972 461.412 329.955 460.164 332.757C458.943 335.532 457.32 337.988 455.294 340.124C453.296 342.233 450.924 343.884 448.177 345.077C445.43 346.27 442.378 346.825 439.02 346.742C435.829 346.687 433.04 346.048 430.654 344.828C428.268 343.579 426.325 341.914 424.827 339.833C423.329 337.724 422.274 335.324 421.664 332.632C421.053 329.941 420.873 327.097 421.123 324.1ZM432.943 323.226L432.86 324.142C432.721 325.473 432.68 326.902 432.735 328.429C432.791 329.927 433.027 331.356 433.443 332.716C433.887 334.075 434.608 335.185 435.607 336.045C436.606 336.906 437.98 337.363 439.728 337.419C441.587 337.474 443.182 337.1 444.514 336.295C445.846 335.49 446.942 334.408 447.802 333.049C448.662 331.661 449.342 330.163 449.842 328.553C450.341 326.916 450.674 325.321 450.841 323.767L450.924 322.893C451.035 321.561 451.063 320.132 451.007 318.606C450.979 317.052 450.743 315.595 450.299 314.236C449.856 312.848 449.134 311.711 448.135 310.823C447.136 309.935 445.763 309.463 444.015 309.408C442.156 309.324 440.56 309.713 439.228 310.573C437.896 311.405 436.8 312.515 435.94 313.903C435.08 315.29 434.4 316.802 433.901 318.439C433.429 320.077 433.11 321.672 432.943 323.226ZM483.264 311.156L477.229 345.91H465.491L473.316 300.875H484.304L483.264 311.156ZM479.809 321.811L476.896 321.894C477.201 319.203 477.811 316.539 478.727 313.903C479.643 311.267 480.891 308.894 482.473 306.785C484.082 304.649 486.039 302.97 488.342 301.749C490.672 300.528 493.378 299.946 496.458 300.001C498.955 300.084 501.008 300.612 502.618 301.583C504.255 302.526 505.504 303.803 506.364 305.412C507.252 307.021 507.82 308.839 508.07 310.864C508.348 312.89 508.375 314.999 508.153 317.191L503.325 345.91H491.546L496.416 317.066C496.583 315.595 496.541 314.291 496.291 313.154C496.042 312.016 495.487 311.114 494.626 310.448C493.794 309.782 492.573 309.435 490.964 309.408C489.188 309.352 487.648 309.685 486.344 310.406C485.067 311.128 483.985 312.099 483.097 313.32C482.209 314.541 481.502 315.887 480.975 317.357C480.447 318.828 480.059 320.312 479.809 321.811ZM567.256 329.761C567.506 328.29 567.381 327.055 566.881 326.056C566.41 325.03 565.688 324.169 564.717 323.476C563.774 322.754 562.705 322.144 561.512 321.644C560.347 321.145 559.181 320.687 558.016 320.271C555.88 319.438 553.771 318.495 551.69 317.441C549.636 316.386 547.763 315.137 546.071 313.695C544.378 312.224 543.06 310.517 542.117 308.575C541.173 306.605 540.785 304.302 540.951 301.666C541.145 298.669 541.992 296.075 543.49 293.883C544.989 291.691 546.889 289.901 549.192 288.514C551.523 287.098 554.048 286.058 556.767 285.392C559.514 284.726 562.206 284.421 564.842 284.476C568.616 284.532 571.973 285.323 574.914 286.849C577.856 288.347 580.159 290.484 581.824 293.258C583.516 296.005 584.307 299.307 584.196 303.164H572.126C572.237 301.333 572.001 299.751 571.418 298.419C570.863 297.06 569.961 296.019 568.713 295.298C567.492 294.549 565.924 294.146 564.01 294.091C562.372 294.063 560.763 294.327 559.181 294.882C557.628 295.409 556.282 296.241 555.144 297.379C554.034 298.489 553.341 299.932 553.063 301.708C552.841 303.012 553.021 304.136 553.604 305.079C554.215 306.022 555.033 306.827 556.06 307.493C557.114 308.159 558.224 308.728 559.39 309.199C560.583 309.643 561.651 310.046 562.594 310.406C564.842 311.211 567.006 312.168 569.087 313.278C571.196 314.388 573.055 315.706 574.665 317.232C576.274 318.731 577.509 320.507 578.369 322.56C579.229 324.586 579.576 326.944 579.41 329.636C579.16 332.716 578.327 335.352 576.912 337.544C575.497 339.708 573.666 341.484 571.418 342.871C569.171 344.231 566.715 345.23 564.051 345.868C561.387 346.506 558.682 346.811 555.935 346.784C552.938 346.728 550.122 346.257 547.486 345.369C544.85 344.481 542.547 343.204 540.577 341.539C538.607 339.847 537.08 337.78 535.998 335.338C534.944 332.868 534.458 330.052 534.542 326.889L546.737 326.93C546.626 328.623 546.751 330.107 547.111 331.384C547.5 332.632 548.11 333.687 548.943 334.547C549.803 335.407 550.857 336.059 552.106 336.503C553.382 336.919 554.867 337.141 556.559 337.169C558.196 337.169 559.778 336.919 561.304 336.42C562.83 335.92 564.134 335.13 565.217 334.048C566.299 332.938 566.979 331.509 567.256 329.761ZM606.588 281.979L595.475 345.91H583.78L594.893 281.979H606.588ZM598.098 321.811L595.059 321.852C595.364 319.3 595.961 316.719 596.849 314.111C597.765 311.503 598.999 309.13 600.553 306.994C602.107 304.829 604.008 303.109 606.255 301.832C608.531 300.528 611.167 299.918 614.164 300.001C616.689 300.057 618.784 300.57 620.448 301.541C622.141 302.485 623.459 303.775 624.402 305.412C625.346 307.021 625.97 308.866 626.275 310.948C626.581 313.001 626.608 315.165 626.359 317.441L621.614 345.91H609.835L614.663 317.316C614.829 315.845 614.788 314.527 614.538 313.362C614.316 312.168 613.775 311.225 612.915 310.531C612.082 309.81 610.848 309.435 609.211 309.408C607.407 309.352 605.853 309.671 604.549 310.365C603.273 311.059 602.19 312.016 601.302 313.237C600.415 314.43 599.721 315.776 599.221 317.274C598.722 318.745 598.347 320.257 598.098 321.811ZM632.394 324.1L632.519 323.226C632.852 320.035 633.615 317.038 634.808 314.236C636.029 311.405 637.638 308.922 639.636 306.785C641.662 304.621 644.034 302.942 646.753 301.749C649.5 300.528 652.58 299.959 655.993 300.043C659.24 300.098 662.042 300.75 664.401 301.999C666.759 303.248 668.688 304.926 670.186 307.035C671.712 309.144 672.781 311.558 673.391 314.277C674.029 316.997 674.21 319.868 673.932 322.893L673.849 323.809C673.488 326.972 672.683 329.955 671.435 332.757C670.214 335.532 668.591 337.988 666.565 340.124C664.567 342.233 662.195 343.884 659.448 345.077C656.701 346.27 653.649 346.825 650.291 346.742C647.1 346.687 644.311 346.048 641.925 344.828C639.539 343.579 637.596 341.914 636.098 339.833C634.6 337.724 633.545 335.324 632.935 332.632C632.324 329.941 632.144 327.097 632.394 324.1ZM644.214 323.226L644.131 324.142C643.992 325.473 643.951 326.902 644.006 328.429C644.062 329.927 644.298 331.356 644.714 332.716C645.158 334.075 645.879 335.185 646.878 336.045C647.877 336.906 649.251 337.363 650.999 337.419C652.858 337.474 654.453 337.1 655.785 336.295C657.117 335.49 658.213 334.408 659.073 333.049C659.933 331.661 660.613 330.163 661.113 328.553C661.612 326.916 661.945 325.321 662.112 323.767L662.195 322.893C662.306 321.561 662.334 320.132 662.278 318.606C662.25 317.052 662.014 315.595 661.57 314.236C661.127 312.848 660.405 311.711 659.406 310.823C658.407 309.935 657.034 309.463 655.286 309.408C653.427 309.324 651.831 309.713 650.499 310.573C649.167 311.405 648.071 312.515 647.211 313.903C646.351 315.29 645.671 316.802 645.172 318.439C644.7 320.077 644.381 321.672 644.214 323.226ZM691.621 333.673L706.272 300.875H713.972L709.144 314.527L694.784 345.91H688.292L691.621 333.673ZM692.703 300.875L693.411 334.838L692.037 345.91H684.962L681.632 300.875H692.703ZM716.553 333.09L728.373 300.875H739.944L721.089 345.91H713.597L716.553 333.09ZM714.721 300.875L718.093 334.63L717.302 345.91H711.267L707.646 313.486V300.875H714.721Z" fill="white"/>
</g>
<defs>
<filter id="filter0_d_364_5" x="32.4086" y="156.73" width="902.869" height="126.238" filterUnits="userSpaceOnUse" color-interpolation-filters="sRGB">
<feFlood flood-opacity="0" result="BackgroundImageFix"/>
<feColorMatrix in="SourceAlpha" type="matrix" values="0 0 0 0 0 0 0 0 0 0 0 0 0 0 0 0 0 0 127 0" result="hardAlpha"/>
<feOffset/>
<feGaussianBlur stdDeviation="6.7239"/>
<feComposite in2="hardAlpha" operator="out"/>
<feColorMatrix type="matrix" values="0 0 0 0 0 0 0 0 0 0 0 0 0 0 0 0 0 0 0.23 0"/>
<feBlend mode="normal" in2="BackgroundImageFix" result="effect1_dropShadow_364_5"/>
<feBlend mode="normal" in="SourceGraphic" in2="effect1_dropShadow_364_5" result="shape"/>
</filter>
<filter id="filter1_d_364_5" x="212.372" y="273.511" width="536.041" height="81.8247" filterUnits="userSpaceOnUse" color-interpolation-filters="sRGB">
<feFlood flood-opacity="0" result="BackgroundImageFix"/>
<feColorMatrix in="SourceAlpha" type="matrix" values="0 0 0 0 0 0 0 0 0 0 0 0 0 0 0 0 0 0 127 0" result="hardAlpha"/>
<feOffset/>
<feGaussianBlur stdDeviation="4.23412"/>
<feComposite in2="hardAlpha" operator="out"/>
<feColorMatrix type="matrix" values="0 0 0 0 0 0 0 0 0 0 0 0 0 0 0 0 0 0 0.23 0"/>
<feBlend mode="normal" in2="BackgroundImageFix" result="effect1_dropShadow_364_5"/>
<feBlend mode="normal" in="SourceGraphic" in2="effect1_dropShadow_364_5" result="shape"/>
</filter>
<linearGradient id="paint0_linear_364_5" x1="482.5" y1="0" x2="482.5" y2="507.674" gradientUnits="userSpaceOnUse">
<stop stop-color="#09B25C"/>
<stop offset="1" stop-color="#2EA5D6"/>
</linearGradient>
</defs>
</svg>
